<svg width="22" height="23" viewBox="0 0 22 23" fill="none" xmlns="http://www.w3.org/2000/svg">
<path d="M5.76 4.84078L3.96 3.05078L2.55 4.46078L4.34 6.25078L5.76 4.84078ZM0 10.5008H3V12.5008H0V10.5008ZM10 0.550781H12V3.50078H10V0.550781ZM18.04 3.04578L19.448 4.45278L17.658 6.24278L16.251 4.83478L18.04 3.04578ZM16.24 18.1608L18.03 19.9608L19.44 18.5508L17.64 16.7608L16.24 18.1608ZM19 10.5008H22V12.5008H19V10.5008ZM11 5.50078C7.69 5.50078 5 8.19078 5 11.5008C5 14.8108 7.69 17.5008 11 17.5008C14.31 17.5008 17 14.8108 17 11.5008C17 8.19078 14.31 5.50078 11 5.50078ZM11 15.5008C8.79 15.5008 7 13.7108 7 11.5008C7 9.29078 8.79 7.50078 11 7.50078C13.21 7.50078 15 9.29078 15 11.5008C15 13.7108 13.21 15.5008 11 15.5008ZM10 19.5008H12V22.4508H10V19.5008ZM2.55 18.5408L3.96 19.9508L5.75 18.1508L4.34 16.7408L2.55 18.5408Z" fill="#444444"/>
</svg>
