<svg width="14" height="14" viewBox="0 0 14 14" fill="none" xmlns="http://www.w3.org/2000/svg">
<g clip-path="url(#clip0_1994_9061)">
<path d="M12.5865 9.38714L11.9507 4.9188C11.7874 3.76964 10.8015 2.91797 9.64069 2.91797H4.35569C3.19485 2.91797 2.20902 3.76964 2.04569 4.9188L1.40985 9.38714C1.28152 10.2855 1.97569 11.0846 2.87985 11.0846C3.27652 11.0846 3.64985 10.9271 3.92985 10.6471L5.24819 9.33464H8.74819L10.0607 10.6471C10.3407 10.9271 10.7199 11.0846 11.1107 11.0846C12.0207 11.0846 12.7149 10.2855 12.5865 9.38714ZM11.3615 9.80714C11.3149 9.85964 11.239 9.91797 11.1165 9.91797C11.029 9.91797 10.9474 9.88297 10.889 9.82464L9.23235 8.16797H4.76402L3.10735 9.82464C3.04902 9.88297 2.96735 9.91797 2.87985 9.91797C2.75735 9.91797 2.68152 9.85964 2.63485 9.80714C2.58819 9.75464 2.54152 9.67297 2.55902 9.55047L3.19485 5.08214C3.28235 4.5163 3.77819 4.08464 4.35569 4.08464H9.64069C10.2182 4.08464 10.714 4.5163 10.7957 5.08797L11.4315 9.5563C11.449 9.67297 11.4024 9.75464 11.3615 9.80714Z" fill="#3E79A1"/>
<path d="M5.25 4.66797H4.66667V5.83464H3.5V6.41797H4.66667V7.58464H5.25V6.41797H6.41667V5.83464H5.25V4.66797Z" fill="#3E79A1"/>
<path d="M9.91536 7.58464C10.2375 7.58464 10.4987 7.32347 10.4987 7.0013C10.4987 6.67914 10.2375 6.41797 9.91536 6.41797C9.5932 6.41797 9.33203 6.67914 9.33203 7.0013C9.33203 7.32347 9.5932 7.58464 9.91536 7.58464Z" fill="#3E79A1"/>
<path d="M8.7474 5.83464C9.06956 5.83464 9.33073 5.57347 9.33073 5.2513C9.33073 4.92914 9.06956 4.66797 8.7474 4.66797C8.42523 4.66797 8.16406 4.92914 8.16406 5.2513C8.16406 5.57347 8.42523 5.83464 8.7474 5.83464Z" fill="#3E79A1"/>
</g>
<defs>
<clipPath id="clip0_1994_9061">
<rect width="14" height="14" fill="white"/>
</clipPath>
</defs>
</svg>
