<svg width="16" height="16" viewBox="0 0 16 16" fill="none" xmlns="http://www.w3.org/2000/svg">
<g clip-path="url(#clip0_800_16125)">
<path d="M14.8 7.406L11.8 7.4C11.47 7.4 11.2 7.67 11.2 8V13.4C11.2 13.73 11.47 14 11.8 14H14.8C15.13 14 15.4 13.73 15.4 13.4V8C15.4 7.67 15.13 7.406 14.8 7.406ZM14.8 12.8H11.8V8.6H14.8V12.8ZM13 2H2.2C1.534 2 1 2.534 1 3.2V10.4C1 11.06 1.534 11.6 2.2 11.6H6.4V12.8H5.2V14H10V12.8H8.8V11.6H10V10.4H2.2V3.2H13V6.2H14.2V3.2C14.2 2.534 13.66 2 13 2ZM8.182 6.2L7.6 4.4L7.018 6.2H5.2L6.682 7.256L6.118 9.002L7.6 7.922L9.082 9.002L8.518 7.256L10 6.2H8.182Z" fill="#444444"/>
</g>
<defs>
<clipPath id="clip0_800_16125">
<rect width="16" height="16" fill="white"/>
</clipPath>
</defs>
</svg>
