<svg width="14" height="14" viewBox="0 0 14 14" fill="none" xmlns="http://www.w3.org/2000/svg">
<path d="M7.41341 7.09766C6.93495 7.09766 6.47609 7.28772 6.13777 7.62605C5.79944 7.96437 5.60938 8.42323 5.60938 8.9017C5.60938 9.38016 5.79944 9.83902 6.13777 10.1773C6.47609 10.5157 6.93495 10.7057 7.41341 10.7057C7.89188 10.7057 8.35074 10.5157 8.68906 10.1773C9.02739 9.83902 9.21745 9.38016 9.21745 8.9017C9.21745 8.42323 9.02739 7.96437 8.68906 7.62605C8.35074 7.28772 7.89188 7.09766 7.41341 7.09766ZM6.64025 8.9017C6.64025 8.69664 6.72171 8.49998 6.86671 8.35499C7.0117 8.20999 7.20836 8.12854 7.41341 8.12854C7.61847 8.12854 7.81512 8.20999 7.96012 8.35499C8.10512 8.49998 8.18657 8.69664 8.18657 8.9017C8.18657 9.10675 8.10512 9.30341 7.96012 9.4484C7.81512 9.5934 7.61847 9.67486 7.41341 9.67486C7.20836 9.67486 7.0117 9.5934 6.86671 9.4484C6.72171 9.30341 6.64025 9.10675 6.64025 8.9017Z" fill="#EC4B5D"/>
<path d="M10.2604 3.29732L8.62186 1L2.59688 5.81318L2.26287 5.80957V5.81472H2V12H12.8242V5.81472H12.3284L11.3418 2.92878L10.2604 3.29732ZM11.2393 5.81472H6.07043L9.92025 4.50241L10.7047 4.25139L11.2393 5.81472ZM9.24193 3.64472L5.26789 4.9993L8.41516 2.48498L9.24193 3.64472ZM3.03088 10.0254V7.78834C3.24849 7.71154 3.44614 7.58701 3.60936 7.42388C3.77258 7.26076 3.89722 7.06317 3.97413 6.8456H10.8501C10.927 7.06326 11.0516 7.26095 11.2148 7.42417C11.378 7.58739 11.5757 7.712 11.7934 7.78886V10.0259C11.5757 10.1027 11.378 10.2273 11.2148 10.3905C11.0516 10.5538 10.927 10.7515 10.8501 10.9691H3.97517C3.89794 10.7514 3.77309 10.5537 3.60973 10.3905C3.44636 10.2272 3.2486 10.1025 3.03088 10.0254Z" fill="#EC4B5D"/>
</svg>
