<svg width="14" height="14" viewBox="0 0 14 14" fill="none" xmlns="http://www.w3.org/2000/svg">
<path d="M10.6014 7.32384L10.3081 7.05183L10.6014 7.32384ZM6.17944 2.90186L6.45145 3.19514L6.17944 2.90186ZM12.701 1.98538L13.0976 2.03725L12.701 1.98538ZM11.5179 0.802282L11.5698 1.1989L11.5179 0.802282ZM3.21641 7.22485L3.57557 7.40093L3.21641 7.22485ZM6.27843 10.2869L6.10235 9.92771L6.27843 10.2869ZM4.25131 5.71438C4.0951 5.55817 3.84184 5.55817 3.68563 5.71438C3.52942 5.87059 3.52942 6.12385 3.68563 6.28006L4.25131 5.71438ZM7.22321 9.81765C7.37942 9.97386 7.63269 9.97386 7.7889 9.81765C7.94511 9.66144 7.94511 9.40817 7.7889 9.25196L7.22321 9.81765ZM3.14582 10.9231C3.30203 10.7669 3.30203 10.5137 3.14582 10.3575C2.98961 10.2013 2.73634 10.2013 2.58013 10.3575L3.14582 10.9231ZM0.811338 12.1263C0.655129 12.2825 0.655128 12.5357 0.811338 12.6919C0.967548 12.8481 1.22081 12.8481 1.37702 12.6919L0.811338 12.1263ZM1.81922 9.59655C1.97543 9.44034 1.97543 9.18708 1.81922 9.03087C1.66301 8.87466 1.40975 8.87466 1.25354 9.03087L1.81922 9.59655ZM0.369139 9.91526C0.212929 10.0715 0.21293 10.3247 0.369139 10.4809C0.525349 10.6372 0.778615 10.6372 0.934825 10.4809L0.369139 9.91526ZM4.47241 12.2497C4.62862 12.0935 4.62862 11.8403 4.47241 11.6841C4.3162 11.5278 4.06294 11.5278 3.90673 11.6841L4.47241 12.2497ZM3.02233 12.5685C2.86612 12.7247 2.86612 12.9779 3.02233 13.1341C3.17854 13.2903 3.43181 13.2903 3.58801 13.1341L3.02233 12.5685ZM5.78148 12.4975L6.17746 12.441L6.17746 12.441L5.78148 12.4975ZM9.00953 10.3308L9.40551 10.2742L9.00953 10.3308ZM1.00573 7.72181L1.0623 7.32583L1.0623 7.32583L1.00573 7.72181ZM3.1725 4.49376L3.11593 4.88974L3.11593 4.88974L3.1725 4.49376ZM5.20371 9.76221L3.74107 8.29957L3.17539 8.86526L4.63802 10.3279L5.20371 9.76221ZM10.3081 7.05183C9.11459 8.33873 7.18163 9.3986 6.10235 9.92771L6.45451 10.646C7.54206 10.1129 9.59288 8.99948 10.8947 7.59585L10.3081 7.05183ZM3.57557 7.40093C4.10468 6.32165 5.16455 4.38869 6.45145 3.19514L5.90743 2.60858C4.5038 3.9104 3.39042 5.96122 2.85725 7.04877L3.57557 7.40093ZM12.3044 1.93351C12.1141 3.38808 11.6074 5.65093 10.3081 7.05183L10.8947 7.59585C12.377 5.99765 12.9049 3.51085 13.0976 2.03725L12.3044 1.93351ZM6.45145 3.19514C7.85235 1.89584 10.1152 1.38914 11.5698 1.1989L11.466 0.40566C9.99244 0.598386 7.50563 1.1263 5.90743 2.60858L6.45145 3.19514ZM13.0976 2.03725C13.2237 1.07295 12.4303 0.279541 11.466 0.40566L11.5698 1.1989C12.0131 1.14093 12.3624 1.49022 12.3044 1.93351L13.0976 2.03725ZM3.74107 8.29957C3.49442 8.05292 3.43149 7.69481 3.57557 7.40093L2.85725 7.04877C2.55324 7.66888 2.70227 8.39214 3.17539 8.86526L3.74107 8.29957ZM4.63802 10.3279C5.11114 10.801 5.8344 10.95 6.45451 10.646L6.10235 9.92771C5.80847 10.0718 5.45036 10.0089 5.20371 9.76221L4.63802 10.3279ZM3.68563 6.28006L7.22321 9.81765L7.7889 9.25196L4.25131 5.71438L3.68563 6.28006ZM2.58013 10.3575L0.811338 12.1263L1.37702 12.6919L3.14582 10.9231L2.58013 10.3575ZM1.25354 9.03087L0.369139 9.91526L0.934825 10.4809L1.81922 9.59655L1.25354 9.03087ZM3.90673 11.6841L3.02233 12.5685L3.58801 13.1341L4.47241 12.2497L3.90673 11.6841ZM7.44431 3.72449C6.79966 4.36913 6.79967 5.41432 7.44431 6.05896L8.01 5.49328C7.67777 5.16105 7.67777 4.6224 8.01 4.29017L7.44431 3.72449ZM7.44431 6.05896C8.08896 6.70361 9.13414 6.70361 9.77879 6.05896L9.21311 5.49328C8.88088 5.82551 8.34223 5.82551 8.01 5.49328L7.44431 6.05896ZM9.77879 6.05896C10.4234 5.41432 10.4234 4.36913 9.77879 3.72449L9.21311 4.29017C9.54534 4.6224 9.54534 5.16105 9.21311 5.49328L9.77879 6.05896ZM9.77879 3.72449C9.13414 3.07984 8.08896 3.07984 7.44431 3.72449L8.01 4.29017C8.34223 3.95794 8.88088 3.95794 9.21311 4.29017L9.77879 3.72449ZM8.54981 10.5786L6.55992 12.5685L7.1256 13.1341L9.1155 11.1442L8.54981 10.5786ZM6.17746 12.441L5.91214 10.5837L5.12018 10.6969L5.3855 12.5541L6.17746 12.441ZM8.43667 9.14918L8.61355 10.3873L9.40551 10.2742L9.22863 9.03604L8.43667 9.14918ZM6.55992 12.5685C6.4286 12.6998 6.20373 12.6248 6.17746 12.441L5.3855 12.5541C5.505 13.3906 6.52814 13.7316 7.1256 13.1341L6.55992 12.5685ZM9.1155 11.1442C9.34371 10.916 9.45116 10.5937 9.40551 10.2742L8.61355 10.3873C8.62358 10.4576 8.59997 10.5284 8.54981 10.5786L9.1155 11.1442ZM2.35902 4.3878L0.369126 6.37769L0.934812 6.94337L2.9247 4.95348L2.35902 4.3878ZM0.94916 8.11779L2.80639 8.38311L2.91953 7.59115L1.0623 7.32583L0.94916 8.11779ZM4.46722 4.27466L3.22907 4.09778L3.11593 4.88974L4.35409 5.06662L4.46722 4.27466ZM0.369126 6.37769C-0.228341 6.97516 0.112706 7.99829 0.94916 8.11779L1.0623 7.32583C0.878453 7.29956 0.803495 7.07469 0.934812 6.94337L0.369126 6.37769ZM2.9247 4.95348C2.97486 4.90332 3.04571 4.87971 3.11593 4.88974L3.22907 4.09778C2.90957 4.05214 2.58723 4.15958 2.35902 4.3878L2.9247 4.95348Z" fill="#EC4B5D"/>
</svg>
