<svg width="14" height="14" viewBox="0 0 14 14" fill="none" xmlns="http://www.w3.org/2000/svg">
<g clip-path="url(#clip0_2643_11017)">
<path d="M1.7487 2.91536H0.582031V12.2487C0.582031 12.8904 1.10703 13.4154 1.7487 13.4154H11.082V12.2487H1.7487V2.91536ZM12.2487 0.582031H4.08203C3.44036 0.582031 2.91536 1.10703 2.91536 1.7487V9.91537C2.91536 10.557 3.44036 11.082 4.08203 11.082H12.2487C12.8904 11.082 13.4154 10.557 13.4154 9.91537V1.7487C13.4154 1.10703 12.8904 0.582031 12.2487 0.582031ZM12.2487 9.91537H4.08203V1.7487H12.2487V9.91537ZM9.91537 7.58203H7.58203V6.41537H8.7487C9.39037 6.41537 9.91537 5.8962 9.91537 5.2487V4.08203C9.91537 3.43453 9.39037 2.91536 8.7487 2.91536H6.41537V4.08203H8.7487V5.2487H7.58203C6.94036 5.2487 6.41537 5.76786 6.41537 6.41537V8.7487H9.91537V7.58203Z" fill="#444444"/>
</g>
<defs>
<clipPath id="clip0_2643_11017">
<rect width="14" height="14" fill="white"/>
</clipPath>
</defs>
</svg>
