<svg width="16" height="16" viewBox="0 0 16 16" fill="none" xmlns="http://www.w3.org/2000/svg">
<rect width="16" height="16" rx="8" fill="#F8F8F8"/>
<path d="M7.99208 5.65199V7.42969L8.88104 8.31865M9.76979 10.5407L10.6587 11.4297M6.21438 10.5407L5.32542 11.4297M5.32542 3.4297C5.0243 3.43149 4.73265 3.53515 4.49795 3.72382C4.26326 3.91249 4.09933 4.17505 4.03288 4.46875C3.96642 4.76245 4.00134 5.07 4.13195 5.34133C4.26256 5.61266 4.48118 5.83178 4.7522 5.96303C5.10856 5.17379 5.74066 4.54169 6.5299 4.18533C6.42088 3.95856 6.24993 3.76727 6.03679 3.63356C5.82365 3.49985 5.57703 3.42917 5.32542 3.4297ZM10.6587 3.4297C10.4074 3.43042 10.1614 3.50216 9.9491 3.63665C9.73678 3.77113 9.5668 3.96289 9.45875 4.18981C10.248 4.54617 10.8801 5.17827 11.2365 5.96751C11.5104 5.83748 11.7318 5.61798 11.8641 5.34521C11.9965 5.07245 12.032 4.76271 11.9647 4.46707C11.8974 4.17144 11.7314 3.90757 11.4939 3.71898C11.2565 3.5304 10.9619 3.42836 10.6587 3.4297Z" stroke="#2D304D" stroke-width="0.8" stroke-linecap="round" stroke-linejoin="round"/>
<path d="M11.5488 7.43199C11.5488 8.375 11.1741 9.27938 10.5073 9.94619C9.84053 10.613 8.93614 10.9876 7.99313 10.9876C7.05012 10.9876 6.14574 10.613 5.47893 9.94619C4.81212 9.27938 4.43751 8.375 4.43751 7.43199C4.43614 6.92609 4.54383 6.42584 4.75325 5.96532C5.10961 5.17608 5.74171 4.54398 6.53095 4.18762C6.99176 3.979 7.49178 3.87109 7.99761 3.87109C8.50345 3.87109 9.00346 3.979 9.46428 4.18762C10.2535 4.54398 10.8856 5.17608 11.242 5.96532C11.4483 6.42653 11.5529 6.92675 11.5488 7.43199Z" stroke="#52D17C" stroke-width="0.8" stroke-linecap="round" stroke-linejoin="round"/>
</svg>
