<svg width="14" height="14" viewBox="0 0 14 14" fill="none" xmlns="http://www.w3.org/2000/svg">
<g clip-path="url(#clip0_2123_6767)">
<path d="M7.5 5C8.055 5 8.5 4.55 8.5 4C8.5 3.81 8.45 3.635 8.355 3.485L7.5 2L6.645 3.485C6.55 3.635 6.5 3.81 6.5 4C6.5 4.55 6.95 5 7.5 5ZM10.5 6.5H8V5.5H7V6.5H4.5C3.67 6.5 3 7.17 3 8V12.5C3 12.775 3.225 13 3.5 13H11.5C11.775 13 12 12.775 12 12.5V8C12 7.17 11.33 6.5 10.5 6.5ZM11 12H4V10.5C4.45 10.495 4.88 10.315 5.2 9.995L5.745 9.46L6.28 9.995C6.935 10.65 8.075 10.645 8.725 9.995L9.265 9.46L9.8 9.995C10.12 10.315 10.55 10.495 11 10.5V12ZM11 9.75C10.745 9.745 10.505 9.65 10.325 9.465L9.26 8.4L8.19 9.465C7.82 9.835 7.175 9.835 6.805 9.465L5.74 8.4L4.67 9.465C4.495 9.645 4.255 9.745 4 9.75V8C4 7.725 4.225 7.5 4.5 7.5H10.5C10.775 7.5 11 7.725 11 8V9.75Z" fill="#EC4B5D"/>
</g>
<defs>
<clipPath id="clip0_2123_6767">
<rect width="14" height="14" fill="white"/>
</clipPath>
</defs>
</svg>
