<svg width="16" height="16" viewBox="0 0 16 16" fill="none" xmlns="http://www.w3.org/2000/svg">
<g clip-path="url(#clip0_800_16098)">
<path d="M13.8933 2.81464C13.86 2.73464 13.82 2.6613 13.7733 2.58797C13.68 2.44797 13.5533 2.3213 13.4133 2.22797C13.34 2.1813 13.2667 2.1413 13.1867 2.10797C13.0267 2.0413 12.8533 2.0013 12.6667 2.0013H12V0.667969H10.6667V2.0013H5.33333V0.667969H4V2.0013H3.33333C3.05333 2.0013 2.8 2.08797 2.58667 2.22797C2.44667 2.3213 2.32 2.44797 2.22667 2.58797C2.18 2.6613 2.14 2.73464 2.10667 2.81464C2.04 2.97464 2 3.14797 2 3.33464V12.668C2 13.4013 2.59333 14.0013 3.33333 14.0013H12.6667C12.8533 14.0013 13.0267 13.9613 13.1867 13.8946C13.2667 13.8613 13.34 13.8213 13.4133 13.7746C13.5533 13.6813 13.68 13.5546 13.7733 13.4146C13.9133 13.2013 14 12.9413 14 12.668V3.33464C14 3.14797 13.96 2.97464 13.8933 2.81464ZM3.33333 12.668V3.33464H12.6667V12.668H3.33333ZM8 8.58797C6.64667 8.58797 4 9.30797 4 10.9746V12.0013H12V10.9813C12 9.30797 9.35333 8.58797 8 8.58797ZM5.54 10.668C6 10.2946 7.12667 9.9213 8 9.9213C8.87333 9.9213 10.0067 10.2946 10.46 10.668H5.54ZM8 8.0013C9.1 8.0013 10 7.1013 10 6.0013C10 4.9013 9.1 4.0013 8 4.0013C6.9 4.0013 6 4.9013 6 6.0013C6 7.1013 6.9 8.0013 8 8.0013ZM8 5.33464C8.36667 5.33464 8.66667 5.63463 8.66667 6.0013C8.66667 6.36797 8.36667 6.66797 8 6.66797C7.63333 6.66797 7.33333 6.36797 7.33333 6.0013C7.33333 5.63463 7.63333 5.33464 8 5.33464Z" fill="#444444"/>
</g>
<defs>
<clipPath id="clip0_800_16098">
<rect width="16" height="16" fill="white"/>
</clipPath>
</defs>
</svg>
