<svg width="30" height="30" viewBox="0 0 30 30" fill="none" xmlns="http://www.w3.org/2000/svg">
<mask id="mask0_3220_16578" style="mask-type:luminance" maskUnits="userSpaceOnUse" x="0" y="0" width="30" height="30">
<path d="M0 0.433594H30V29.7048H0V0.433594Z" fill="white"/>
</mask>
<g mask="url(#mask0_3220_16578)">
<path fill-rule="evenodd" clip-rule="evenodd" d="M9.88686 17.7008H5.70354V20.2786C5.70354 20.3735 5.6466 20.4583 5.55931 20.495C5.47201 20.531 5.37079 20.5108 5.30374 20.4437L0.100044 15.2362C0.00831858 15.1445 0.00831858 14.9965 0.100044 14.9047L5.30374 9.69726C5.37079 9.6302 5.47201 9.60996 5.55931 9.64665C5.6466 9.68271 5.70354 9.76811 5.70354 9.863V12.4408H9.88686V1.51153C9.88686 0.916261 10.3689 0.433594 10.9635 0.433594H28.9184C29.513 0.433594 29.995 0.916261 29.995 1.51153V28.6294C29.995 29.2247 29.513 29.7074 28.9184 29.7074H10.9635C10.3689 29.7074 9.88686 29.2247 9.88686 28.6294V17.7008ZM17.9581 12.9096H5.46948C5.3398 12.9096 5.23542 12.8052 5.23542 12.6755V10.4285L0.596628 15.0705L5.23542 19.7124V17.4661C5.23542 17.3371 5.3398 17.2321 5.46948 17.2321C5.46948 17.2321 7.6108 17.2321 10.1203 17.2321C10.6713 17.2321 11.2393 17.2321 11.8068 17.2321C14.8976 17.2321 17.9581 17.2321 17.9581 17.2321V12.9096ZM10.355 17.7008V28.6294C10.355 28.9666 10.6276 29.2386 10.9635 29.2386H28.9184C29.2549 29.2386 29.5275 28.9666 29.5275 28.6294V1.51153C29.5275 1.17436 29.2549 0.901711 28.9184 0.901711H10.9635C10.6276 0.901711 10.355 1.17436 10.355 1.51153V12.4408H11.5721V2.35414C11.5721 2.22572 11.6771 2.12008 11.8068 2.12008C15.2506 2.12008 28.0758 2.12008 28.0758 2.12008C28.1207 2.12008 28.163 2.13337 28.2004 2.15614C28.2668 2.19916 28.3098 2.27254 28.3098 2.35414V27.7868C28.3098 27.8615 28.275 27.9292 28.2175 27.9728C28.177 28.0038 28.1276 28.0209 28.0758 28.0209C28.0745 28.0209 28.0726 28.0209 28.072 28.0209H27.7126C25.6042 28.0209 14.9058 28.0209 11.8068 28.0209C11.6771 28.0209 11.5721 27.9159 11.5721 27.7868V17.7008H10.355ZM12.0402 12.4408H18.1928C18.3218 12.4408 18.4268 12.5458 18.4268 12.6755V17.4661C18.4268 17.5952 18.3218 17.7008 18.1928 17.7008H12.0402V27.5521C14.9198 27.5521 22.8151 27.5521 26.338 27.5521L19.8793 25.7784C19.7781 25.7499 19.7066 25.6575 19.7066 25.5525V6.27621C19.7066 6.18638 19.7584 6.10351 19.8394 6.06492L27.0503 2.58883C24.0215 2.58883 15.1348 2.58883 12.0402 2.58883V12.4408ZM27.8411 27.4794V2.72737L20.1753 6.4236V25.3735L27.8411 27.4794Z" fill="#323232"/>
</g>
<path d="M7.71929 15.5625C7.71929 15.9796 7.35976 16.3189 6.91771 16.3189C6.47566 16.3189 6.11613 15.9796 6.11613 15.5625V14.8455C6.11613 14.4283 6.47566 14.0888 6.91771 14.0888C7.35976 14.0888 7.71929 14.4283 7.71929 14.8455V15.5625ZM6.91771 13.8906C6.35997 13.8906 5.90625 14.3191 5.90625 14.8455V15.5625C5.90625 16.0888 6.35997 16.5173 6.91771 16.5173C7.47545 16.5173 7.92917 16.0888 7.92917 15.5625V14.8455C7.92917 14.3191 7.47545 13.8906 6.91771 13.8906Z" fill="#323232"/>
<path d="M5.28557 13.8906C5.22746 13.8906 5.1805 13.9351 5.1805 13.9898V16.1057L3.55796 13.9328C3.5317 13.8974 3.48447 13.8823 3.44069 13.8954C3.39691 13.9085 3.36719 13.9466 3.36719 13.9898V16.4181C3.36719 16.4728 3.41415 16.5173 3.47226 16.5173C3.53037 16.5173 3.57733 16.4728 3.57733 16.4181V14.3025L5.1996 16.4753C5.21977 16.502 5.25187 16.5173 5.28557 16.5173C5.29592 16.5173 5.30653 16.5158 5.31714 16.5125C5.36066 16.4994 5.39038 16.4613 5.39038 16.4181V13.9898C5.39038 13.9351 5.34341 13.8906 5.28557 13.8906Z" fill="#323232"/>
<path d="M8.46445 13.8906C8.40634 13.8906 8.35938 13.9351 8.35938 13.9898V15.8023C8.35938 15.857 8.40634 15.9012 8.46445 15.9012C8.52256 15.9012 8.56952 15.857 8.56952 15.8023V13.9898C8.56952 13.9351 8.52256 13.8906 8.46445 13.8906Z" fill="#323232"/>
<path d="M8.46445 16.1758C8.40634 16.1758 8.35938 16.2202 8.35938 16.275V16.4151C8.35938 16.4699 8.40634 16.5143 8.46445 16.5143C8.52256 16.5143 8.56952 16.4699 8.56952 16.4151V16.275C8.56952 16.2202 8.52256 16.1758 8.46445 16.1758Z" fill="#323232"/>
</svg>
