<svg width="14" height="14" viewBox="0 0 14 14" fill="none" xmlns="http://www.w3.org/2000/svg">
<path d="M8.74857 2.33464L6.99857 3.5013L5.24857 2.33464M8.74857 2.33464C9.09099 2.63155 9.8744 3.08889 9.9129 3.58647C9.9304 3.80172 9.84057 3.91955 9.65974 4.15522C9.26657 4.66914 8.81857 4.9713 8.81857 5.83464H5.17857C5.17857 4.97189 4.73057 4.66914 4.3374 4.15522C4.15715 3.91955 4.06674 3.8023 4.08365 3.58647C4.12274 3.08889 4.90674 2.63214 5.24857 2.33464M8.74857 2.33464V1.16797M5.24857 2.33464V1.16797M11.5853 10.3893C11.1747 8.82014 10.1287 7.38047 9.43749 6.55622C8.94165 5.96472 8.5759 5.83464 7.79832 5.83464H6.1994C5.42124 5.83464 5.05549 5.96472 4.55965 6.55622C3.8684 7.38047 2.82249 8.81955 2.41182 10.3893C2.16099 11.3471 2.50165 11.8716 3.43265 12.2105C4.26857 12.515 5.5029 12.8346 6.99857 12.8346C8.49424 12.8346 9.72799 12.515 10.5645 12.2105C11.4955 11.8721 11.8362 11.3471 11.5853 10.3893Z" stroke="#3E79A1" stroke-linecap="round" stroke-linejoin="round"/>
<path d="M8.16406 8.75C8.16406 8.75 9.33073 10.5 9.33073 12.5417M5.83073 8.75C5.83073 8.75 4.66406 10.5 4.66406 12.5417" stroke="#3E79A1" stroke-linecap="round" stroke-linejoin="round"/>
</svg>
