<svg width="22" height="18" viewBox="0 0 22 18" fill="none" xmlns="http://www.w3.org/2000/svg">
<path d="M5.76 13.1592L3.96 14.9492L2.55 13.5392L4.34 11.7492L5.76 13.1592ZM0 7.49922H3V5.49922H0V7.49922ZM10 17.4492H12V14.4992H10V17.4492ZM18.04 14.9542L19.448 13.5472L17.658 11.7572L16.251 13.1652L18.04 14.9542ZM19 7.49922H22V5.49922H19V7.49922ZM11 12.4992C7.69 12.4992 5 9.80922 5 6.49922C5 3.18922 7.69 0.499218 11 0.499218C14.31 0.499218 17 3.18922 17 6.49922C17 9.80922 14.31 12.4992 11 12.4992ZM11 2.49922C8.79 2.49922 7 4.28922 7 6.49922C7 8.70922 8.79 10.4992 11 10.4992C13.21 10.4992 15 8.70922 15 6.49922C15 4.28922 13.21 2.49922 11 2.49922Z" fill="#444444"/>
</svg>
