<svg width="34" height="34" viewBox="0 0 34 34" fill="none" xmlns="http://www.w3.org/2000/svg">
<path d="M3.66536 6.9987H0.332031V30.332C0.332031 32.1654 1.83203 33.6654 3.66536 33.6654H26.9987V30.332H3.66536V6.9987ZM30.332 0.332031H10.332C8.4987 0.332031 6.9987 1.83203 6.9987 3.66536V23.6654C6.9987 25.4987 8.4987 26.9987 10.332 26.9987H30.332C32.1654 26.9987 33.6654 25.4987 33.6654 23.6654V3.66536C33.6654 1.83203 32.1654 0.332031 30.332 0.332031ZM30.332 23.6654H10.332V3.66536H30.332V23.6654ZM13.6654 11.9987H26.9987V15.332H13.6654V11.9987ZM13.6654 16.9987H20.332V20.332H13.6654V16.9987ZM13.6654 6.9987H26.9987V10.332H13.6654V6.9987Z" fill="#EC4B5D"/>
</svg>
