<svg width="16" height="16" viewBox="0 0 16 16" fill="none" xmlns="http://www.w3.org/2000/svg">
<g clip-path="url(#clip0_800_16114)">
<path d="M7.33203 11.3346H8.66536V10.668H9.33203C9.6987 10.668 9.9987 10.368 9.9987 10.0013V8.0013C9.9987 7.63463 9.6987 7.33464 9.33203 7.33464H7.33203V6.66797H9.9987V5.33464H8.66536V4.66797H7.33203V5.33464H6.66536C6.2987 5.33464 5.9987 5.63464 5.9987 6.0013V8.0013C5.9987 8.36797 6.2987 8.66797 6.66536 8.66797H8.66536V9.33463H5.9987V10.668H7.33203V11.3346ZM13.332 2.66797H2.66536C1.92536 2.66797 1.3387 3.2613 1.3387 4.0013L1.33203 12.0013C1.33203 12.7413 1.92536 13.3346 2.66536 13.3346H13.332C14.072 13.3346 14.6654 12.7413 14.6654 12.0013V4.0013C14.6654 3.2613 14.072 2.66797 13.332 2.66797ZM13.332 12.0013H2.66536V4.0013H13.332V12.0013Z" fill="#444444"/>
</g>
<defs>
<clipPath id="clip0_800_16114">
<rect width="16" height="16" fill="white"/>
</clipPath>
</defs>
</svg>
