<svg width="270" height="270" viewBox="0 0 270 270" fill="none" xmlns="http://www.w3.org/2000/svg">
<path d="M9.41561 211H117.808C118.263 211 118.527 210.518 118.318 210.114L106.7 187.741C106.595 187.54 106.398 187.414 106.172 187.414H51.4109C49.4186 187.414 47.647 186.425 48.7862 184.793C67.2886 158.286 90.9694 125.132 94.6625 119.966C94.9091 119.621 95.394 119.632 95.6296 119.985C99.8632 126.322 131.466 173.599 149.4 199.644C154.514 207.071 160.496 211 169.523 211H256.138C264.107 211 271.022 200.172 266.637 193.529C242.471 156.921 187.772 68.0141 182.621 59.6361C182.407 59.288 181.957 59.3116 181.687 59.6189L158.039 86.6046C157.858 86.8108 157.818 87.083 157.97 87.3112C162.251 93.7412 222.892 184.855 222.892 186.54C222.892 188.287 186.146 187.039 179.147 186.54C172.458 186.063 101.862 71.639 95.5994 61.4678C95.3681 61.0922 94.9033 61.1216 94.6566 61.4873C89.0335 69.8215 37.1812 146.678 3.29129 197.023C-0.037303 201.968 3.44859 211 9.41561 211Z" fill="url(#paint0_linear_2001_573)"/>
<defs>
<linearGradient id="paint0_linear_2001_573" x1="40.4956" y1="53.7586" x2="344.869" y2="299.612" gradientUnits="userSpaceOnUse">
<stop stop-color="#EC4B5D"/>
<stop offset="1" stop-color="#F48773"/>
</linearGradient>
</defs>
</svg>
