<?xml version="1.0" encoding="UTF-8"?>
<svg version="1.1" xmlns="http://www.w3.org/2000/svg" width="512" height="512">
<path d="M0 0 C3.1875 2.375 3.1875 2.375 5 4 C8.44463128 2.73756969 11.22159636 1.27291521 14.1875 -0.875 C25.09225612 -8.30840875 37.08080033 -10.59057874 50.09375 -8.50390625 C63.5038368 -5.44516222 74.35359838 1.05033438 82.375 12.4375 C90.96534082 26.30858858 92.32318918 42.6710294 88.87329102 58.47973633 C80.02887653 93.22905517 53.01020648 120.40001207 22.91870117 138.34741211 C8.79582241 146.59866081 8.79582241 146.59866081 1 145 C-9.52470789 140.43832193 -19.09102331 133.106876 -28 126 C-28.86367187 125.34 -29.72734375 124.68 -30.6171875 124 C-53.218367 106.29462496 -74.1149909 82.48829827 -78 53 C-79.52242318 36.83784672 -77.210223 22.10143466 -67 9 C-49.5675233 -11.82670184 -22.45049564 -14.2359931 0 0 Z M-47 21 C-54.36468902 30.48203711 -55.99830617 39.08350995 -55 51 C-49.52228359 79.04459601 -25.68786731 100.15106779 -3.18359375 115.61523438 C0.09385997 117.69369116 3.48675195 119.35516114 7 121 C33.33867143 103.86230446 58.89149194 83.59460498 66.57421875 51.609375 C68.00190129 42.85990771 68.22570733 33.94564636 63.609375 26.15234375 C58.69309103 19.57741058 53.09318668 15.59865416 45 14 C36.90394226 13.10043803 29.73318099 15.62497805 23.25 20.5625 C19.56271354 23.93745161 17.57633455 28.13868332 15.45703125 32.609375 C13.83283929 35.27426905 12.92706059 36.02982549 10 37 C8 37.265625 8 37.265625 6 37.25 C5.34 37.25515625 4.68 37.2603125 4 37.265625 C1.52308287 36.93665944 0.07478542 36.41405254 -2 35 C-3.45703125 32.609375 -3.45703125 32.609375 -4.8125 29.75 C-8.62058795 22.42158893 -13.32831637 18.16873889 -21 15 C-30.08902493 12.43642887 -40.28375983 14.10223983 -47 21 Z " fill="#32CCCC" transform="translate(250,367)"/>
<path d="M0 0 C4.35204677 2.11377587 6.18085758 4.36990383 8.5234375 8.55859375 C9.46703125 10.22245117 9.46703125 10.22245117 10.4296875 11.91992188 C11.07852313 13.09222765 11.72695942 14.26475454 12.375 15.4375 C13.65339575 17.70717213 14.93204048 19.97670404 16.2109375 22.24609375 C19.891465 28.80517717 19.891465 28.80517717 20.98352051 30.76544189 C21.93215395 32.46365726 22.89166554 34.15578194 23.8515625 35.84765625 C24.40924316 36.83902588 24.96692383 37.83039551 25.54150391 38.85180664 C26.02280762 39.56071045 26.50411133 40.26961426 27 41 C27.66 41 28.32 41 29 41 C29.41773682 40.23969482 29.83547363 39.47938965 30.26586914 38.69604492 C31.84909283 35.81862816 33.43558466 32.94306133 35.02416992 30.06860352 C35.70513156 28.83493095 36.38486266 27.60057819 37.06323242 26.36547852 C49.6922353 3.37901065 49.6922353 3.37901065 55 0 C58.76813271 -0.82213804 62.4675611 -0.85842013 65.8828125 1.0546875 C68.04424538 2.8193356 69.74530423 4.49060847 71 7 C71.0980871 8.42038615 71.13501714 9.84523863 71.14044189 11.26899719 C71.14615204 12.16483521 71.15186218 13.06067322 71.15774536 13.98365784 C71.15942215 15.46188271 71.15942215 15.46188271 71.16113281 16.9699707 C71.16858017 18.52380966 71.16858017 18.52380966 71.17617798 20.10903931 C71.19082487 23.54795996 71.19760597 26.98683448 71.203125 30.42578125 C71.20887456 32.80991111 71.21463231 35.19404095 71.22039795 37.57817078 C71.23091526 42.58263363 71.23675309 47.58708038 71.24023438 52.59155273 C71.24571932 59.00771627 71.26974448 65.42366762 71.29820633 71.8397646 C71.31682018 76.76652144 71.32203766 81.69322706 71.32357025 86.6200161 C71.32660035 88.98552803 71.33464083 91.35103898 71.34775543 93.71651649 C71.36478869 97.0251242 71.36294205 100.33321208 71.35644531 103.6418457 C71.3656601 104.62125626 71.37487488 105.60066681 71.3843689 106.60975647 C71.35408133 111.52773473 71.31019127 115.06882179 68 119 C63.75417853 121.83054764 59.98515163 121.77409187 55 121 C51.37740096 119.1162485 49.31024369 116.93073106 48 113 C47.88408552 111.20596945 47.82347129 109.40813644 47.79467773 107.6105957 C47.7647599 105.95922356 47.7647599 105.95922356 47.73423767 104.27449036 C47.71752518 103.08691635 47.70081268 101.89934235 47.68359375 100.67578125 C47.66281265 99.45924362 47.64203156 98.24270599 47.62062073 96.98930359 C47.55515283 93.09709404 47.49625285 89.20481615 47.4375 85.3125 C47.39431218 82.67642518 47.3506978 80.04035731 47.30664062 77.40429688 C47.19947422 70.93627049 47.09770255 64.46817589 47 58 C46.71801758 58.49927002 46.43603516 58.99854004 46.14550781 59.51293945 C44.85585592 61.78461742 43.55311519 64.04852038 42.25 66.3125 C41.8065625 67.09818359 41.363125 67.88386719 40.90625 68.69335938 C40.46796875 69.45068359 40.0296875 70.20800781 39.578125 70.98828125 C39.18012695 71.68477783 38.78212891 72.38127441 38.37207031 73.09887695 C35.92580027 76.48839739 33.65417482 77.83039912 29.625 78.875 C25.37174686 79.0216639 23.52045868 78.34697245 20 76 C16.64335828 72.2040432 14.19847933 68.09022858 11.75 63.6875 C11.38648437 63.04232422 11.02296875 62.39714844 10.6484375 61.73242188 C9.76163795 60.15718584 8.88025437 58.57890286 8 57 C7.99635437 57.71552536 7.99270874 58.43105072 7.98895264 59.16825867 C7.95103711 65.9216775 7.89414462 72.67464119 7.81609726 79.42772198 C7.77663972 82.89934324 7.7444433 86.37071154 7.72900391 89.8425293 C7.71091939 93.83683778 7.66096158 97.83020143 7.609375 101.82421875 C7.60753204 103.68852791 7.60753204 103.68852791 7.60565186 105.59049988 C7.57607391 107.33173882 7.57607391 107.33173882 7.54589844 109.1081543 C7.53701599 110.12741501 7.52813354 111.14667572 7.51898193 112.19682312 C6.86494029 115.72949795 5.45426701 117.42438802 3 120 C-0.69725375 121.84862688 -4.96461442 121.47587094 -9 121 C-11.93423195 119.20353146 -13.47205355 118.0558929 -15 115 C-15.10239093 113.55440505 -15.14374852 112.10425608 -15.15390015 110.65507507 C-15.16250061 109.74240875 -15.17110107 108.82974243 -15.17996216 107.88941956 C-15.18422211 106.88523483 -15.18848206 105.88105011 -15.19287109 104.84643555 C-15.20104858 103.79103577 -15.20922607 102.73563599 -15.21765137 101.64825439 C-15.2425298 98.14441501 -15.25902684 94.64061618 -15.2734375 91.13671875 C-15.27876118 89.94224436 -15.28408485 88.74776997 -15.28956985 87.51709938 C-15.31631084 81.1960578 -15.33568358 74.87503605 -15.35009766 68.55395508 C-15.36675648 62.01658499 -15.41154262 55.47971795 -15.4624691 48.94253826 C-15.49608088 43.92313541 -15.50766844 38.90385289 -15.51332474 33.88434792 C-15.52005293 31.47415124 -15.53531533 29.06396291 -15.55921555 26.65387535 C-15.59074115 23.28274579 -15.59092229 19.91298557 -15.58349609 16.54174805 C-15.6081041 15.04458 -15.6081041 15.04458 -15.63320923 13.51716614 C-15.59074823 8.81535544 -15.55486333 6.71245227 -12.58853149 2.90364075 C-8.51488237 -0.09217541 -5.01051298 -0.75834791 0 0 Z " fill="#000000" transform="translate(15,197)"/>
<path d="M0 0 C14.56886355 8.49654239 21.11547971 25.94408218 25.3125 41.44921875 C39.94976945 99.28503979 39.94976945 99.28503979 33.375 114 C32.5396875 115.0209375 32.5396875 115.0209375 31.6875 116.0625 C31.254375 116.64 30.82125 117.2175 30.375 117.8125 C27.84660353 119.68538627 25.80682968 119.87901002 22.6875 120.0625 C18.17967545 119.0707786 15.65928666 117.58461753 12.6875 114.0625 C11.390141 111.467782 11.37175346 109.29464561 11.15234375 106.3984375 C11.07363037 105.3882959 10.99491699 104.3781543 10.91381836 103.33740234 C10.8185083 102.05043457 10.72319824 100.7634668 10.625 99.4375 C10.315625 95.35375 10.00625 91.27 9.6875 87.0625 C-4.5025 87.0625 -18.6925 87.0625 -33.3125 87.0625 C-33.521781 93.98702458 -33.521781 93.98702458 -33.70043945 100.91235352 C-33.94499286 107.38082101 -34.41812333 113.06831723 -39.125 117.9375 C-41.99996945 119.41605572 -44.06429538 119.93511943 -47.3125 120.0625 C-51.91330652 118.58088434 -54.95897493 117.34354115 -57.3125 113.0625 C-57.61992345 110.25952147 -57.73800797 107.73733481 -57.6875 104.9375 C-57.67807373 104.1120166 -57.66864746 103.2865332 -57.65893555 102.43603516 C-56.94446732 71.48333608 -53.12615421 28.54844781 -30.5234375 5.05859375 C-22.11843771 -2.52966577 -10.50314885 -4.74598807 0 0 Z M-16.125 23.625 C-24.32841383 33.76222106 -29.3125 51.18331402 -29.3125 64.0625 C-17.7625 64.0625 -6.2125 64.0625 5.6875 64.0625 C4.92357117 57.18714057 3.97022508 51.65235956 2 45.1875 C1.73598389 44.31488525 1.47196777 43.44227051 1.19995117 42.54321289 C-1.16950201 35.00289621 -3.94626738 26.21141682 -10.3125 21.0625 C-13.57703647 20.725755 -13.57703647 20.725755 -16.125 23.625 Z " fill="#000000" transform="translate(174.3125,198.9375)"/>
<path d="M0 0 C23.27180709 22.67509409 26.30177768 63.8714612 28.4375 94.375 C28.4895459 95.07286621 28.5415918 95.77073242 28.59521484 96.48974609 C29.36805992 108.04336146 29.36805992 108.04336146 26.0625 112.1875 C22.43604664 115.20954447 20.30440682 115.7255641 15.5390625 115.65625 C12.05899516 115.19051608 10.02836803 113.65743136 7.4375 111.375 C5.76394345 107.93232776 5.11559486 104.8717301 4.8046875 101.07421875 C4.69036377 99.75296997 4.69036377 99.75296997 4.57373047 98.4050293 C4.48752441 97.30199463 4.40131836 96.19895996 4.3125 95.0625 C4.02375 91.535625 3.735 88.00875 3.4375 84.375 C-10.4225 84.375 -24.2825 84.375 -38.5625 84.375 C-39.06012881 91.6728301 -39.06012881 91.6728301 -39.51855469 98.97314453 C-39.98039054 104.93208085 -40.55232277 108.84498499 -44.5625 113.375 C-48.58862967 116.05908645 -51.83066918 116.18110406 -56.5625 115.375 C-60.13589883 113.45143127 -62.25857513 111.2867746 -63.5625 107.375 C-64.01991375 98.60403128 -63.33459629 89.9006094 -62.375 81.1875 C-62.24335449 79.98569092 -62.11170898 78.78388184 -61.97607422 77.5456543 C-58.71860104 49.46785139 -54.80173472 15.89682426 -31.5 -3.125 C-20.10799506 -8.94219401 -10.31976911 -6.54424382 0 0 Z M-18.5625 16.375 C-29.66609071 25.72361589 -33.46072109 43.60334393 -35.5625 57.375 C-35.5625 58.365 -35.5625 59.355 -35.5625 60.375 C-23.6825 60.375 -11.8025 60.375 0.4375 60.375 C-3.24811871 36.89653184 -3.24811871 36.89653184 -16.25 17.578125 C-17.013125 17.18109375 -17.77625 16.7840625 -18.5625 16.375 Z " fill="#000000" transform="translate(445.5625,41.625)"/>
<path d="M0 0 C3.2861133 1.81784991 4.60232354 3.10118512 6.11669922 6.52392578 C7.27375189 11.07730222 7.24839687 15.31449651 7.1953125 19.9921875 C7.1924826 20.93812775 7.18965271 21.88406799 7.18673706 22.8586731 C7.17558932 25.86424694 7.15049465 28.86951702 7.125 31.875 C7.11496321 33.91926651 7.10583859 35.96353772 7.09765625 38.0078125 C7.07737376 43.00541803 7.03821466 48.00237108 7 53 C18.88 53 30.76 53 43 53 C42.94199219 49.66519531 42.88398438 46.33039063 42.82421875 42.89453125 C42.78521376 39.66107562 42.75486011 36.42764629 42.7253418 33.1940918 C42.70021277 30.94852956 42.66610385 28.703049 42.62280273 26.45776367 C42.56208224 23.22814782 42.53377369 19.99961416 42.51171875 16.76953125 C42.48591232 15.76727005 42.4601059 14.76500885 42.43351746 13.7323761 C42.43070095 6.71752291 42.43070095 6.71752291 45.46801758 2.8894043 C46.30357178 2.26590088 47.13912598 1.64239746 48 1 C48.33 0.67 48.66 0.34 49 0 C53.90599112 -0.55419529 57.78937787 -0.74119722 62.0625 1.875 C64.76703436 4.84126349 65.12596997 6.3971817 65.14717102 10.30696106 C65.15432632 11.21121323 65.16148163 12.11546539 65.16885376 13.04711914 C65.17154266 14.04195312 65.17423157 15.03678711 65.17700195 16.06176758 C65.18357315 17.10741379 65.19014435 18.15306 65.19691467 19.23039246 C65.21667724 22.70177272 65.22831638 26.17310968 65.23828125 29.64453125 C65.24235678 30.82797308 65.2464323 32.01141491 65.25063133 33.23071861 C65.27150389 39.49341026 65.28580095 45.7560799 65.29516602 52.01879883 C65.30623775 58.49555835 65.34064347 64.97197498 65.38033772 71.44861317 C65.40645074 76.42169342 65.4148531 81.3946913 65.41844749 86.36783409 C65.42332656 88.7556865 65.43497781 91.14353491 65.45348549 93.53132057 C65.477765 96.87117512 65.47693209 100.21013353 65.4699707 103.55004883 C65.48278076 104.53881012 65.49559082 105.52757141 65.50878906 106.54629517 C65.47570838 110.89449791 65.41765938 113.32217736 63.09562683 117.09062195 C59.37190226 120.4834006 56.36403824 120.32822643 51.484375 120.29296875 C48.02801166 119.88537873 46.31336131 118.53723498 44 116 C42.36054037 112.72108075 42.87969822 109.09386466 42.90234375 105.4921875 C42.9037587 104.65156769 42.90517365 103.81094788 42.90663147 102.94485474 C42.91223763 100.25486725 42.92479114 97.56496241 42.9375 94.875 C42.94251421 93.05338662 42.94707725 91.23177193 42.95117188 89.41015625 C42.961359 84.94004656 42.98093315 80.47011601 43 76 C31.12 76 19.24 76 7 76 C7.11832042 86.87437482 7.11832042 86.87437482 7.27026367 97.74829102 C7.27903653 99.12515561 7.28667857 100.50202807 7.29296875 101.87890625 C7.30831665 102.57721558 7.32366455 103.2755249 7.33947754 103.99499512 C7.34250798 109.7578818 6.26323553 114.6991223 2.12109375 118.91015625 C-1.76990386 120.90939812 -5.75029086 120.63951934 -10 120 C-12.93423195 118.20353146 -14.47205355 117.0558929 -16 114 C-16.0980871 112.57961385 -16.13501714 111.15476137 -16.14044189 109.73100281 C-16.14615204 108.83516479 -16.15186218 107.93932678 -16.15774536 107.01634216 C-16.15886322 106.03085892 -16.15998108 105.04537567 -16.16113281 104.0300293 C-16.16609772 102.99413666 -16.17106262 101.95824402 -16.17617798 100.89096069 C-16.19082487 97.45204004 -16.19760597 94.01316552 -16.203125 90.57421875 C-16.20887456 88.19008889 -16.21463231 85.80595905 -16.22039795 83.42182922 C-16.23091526 78.41736637 -16.23675309 73.41291962 -16.24023438 68.40844727 C-16.24571932 61.99228373 -16.26974448 55.57633238 -16.29820633 49.1602354 C-16.31682018 44.23347856 -16.32203766 39.30677294 -16.32357025 34.3799839 C-16.32660035 32.01447197 -16.33464083 29.64896102 -16.34775543 27.28348351 C-16.36478869 23.9748758 -16.36294205 20.66678792 -16.35644531 17.3581543 C-16.3656601 16.37874374 -16.37487488 15.39933319 -16.3843689 14.39024353 C-16.35399898 9.45889332 -16.28067734 5.97102126 -13 2 C-8.98202734 -0.71151529 -4.68164517 -0.66880645 0 0 Z " fill="#000000" transform="translate(447,198)"/>
<path d="M0 0 C4.06848166 3.23213425 7.13891014 6.51422973 8.88671875 11.44921875 C8.80332327 15.45220159 7.79204118 17.97273245 5.82421875 21.44921875 C2.44984598 24.43794892 -0.69634569 24.97758099 -5.19140625 24.80859375 C-8.44974928 24.21850013 -10.60153365 22.45141133 -13.17578125 20.44921875 C-17.69967124 17.02573443 -21.67422764 16.72033778 -27.17578125 17.44921875 C-30.40902374 18.75627422 -31.70613764 19.70205846 -33.55078125 22.63671875 C-34.64956928 27.58126489 -34.32305358 31.63788485 -31.58984375 35.953125 C-28.5848368 39.06024383 -25.5591684 40.5864518 -21.67578125 42.38671875 C-20.9681665 42.72952881 -20.26055176 43.07233887 -19.53149414 43.42553711 C-16.27126262 45.00287868 -12.99199038 46.53398169 -9.703125 48.05078125 C0.7989612 53.01636942 6.4474493 58.60987565 10.82421875 69.44921875 C14.19749755 78.90142705 13.44580108 88.18949119 9.82421875 97.44921875 C5.14064232 106.02076408 -2.39005342 111.78967553 -11.55078125 114.88671875 C-23.48686409 118.11043379 -33.66880236 116.71283624 -44.42578125 110.69921875 C-49.4071666 107.56133821 -53.51873927 103.7633027 -56.17578125 98.44921875 C-56.7197741 93.90999975 -56.79867586 90.49479185 -54.42578125 86.51171875 C-51.74160004 84.05121931 -49.6815535 82.55427263 -45.9921875 82.296875 C-40.25430425 82.84381361 -38.13200873 84.08722434 -34.17578125 88.44921875 C-30.12323684 91.33362397 -26.50074633 92.80362603 -21.48828125 92.51171875 C-18.23417265 91.94407632 -16.97733173 91.30865034 -14.17578125 89.32421875 C-11.74051472 85.82352311 -11.17578125 83.70817172 -11.17578125 79.44921875 C-12.94506854 74.14135687 -15.485193 72.28209435 -20.17578125 69.44921875 C-22.72069176 68.24735151 -25.31855836 67.19501607 -27.92578125 66.13671875 C-39.55988057 61.20204926 -50.15038271 54.68116982 -55.55078125 42.76171875 C-59.10410147 32.71705163 -59.10838538 22.36209329 -55.17578125 12.44921875 C-50.57423741 3.65653903 -44.13425614 -1.74363551 -34.98828125 -5.42578125 C-23.13670761 -8.90666302 -10.177246 -6.87428584 0 0 Z " fill="#000000" transform="translate(284.17578125,40.55078125)"/>
<path d="M0 0 C4.03024906 4.32514533 5.30547664 6.99154675 5.21875 12.96484375 C4.89920564 15.93774757 3.88589752 17.70998159 2 20 C-2.2437898 22.53012415 -6.1729876 22.92349594 -11 22 C-13.41561767 20.62842048 -15.57303661 19.05478047 -17.8125 17.4140625 C-21.80691548 14.83195821 -25.42385289 14.45839686 -30.13671875 15.44921875 C-35.64013266 17.20909048 -38.31991892 19.89834105 -41.08056641 24.99487305 C-42.47028768 29.53711394 -42.325411 33.98194088 -42.3359375 38.70703125 C-42.3425943 39.74639328 -42.3492511 40.78575531 -42.35610962 41.85661316 C-42.36622098 44.05290969 -42.37092711 46.24923686 -42.37060547 48.44555664 C-42.37497115 51.79039692 -42.41128743 55.13390926 -42.44921875 58.47851562 C-42.45508884 60.61718301 -42.45905695 62.75585663 -42.4609375 64.89453125 C-42.47530853 65.8874971 -42.48967957 66.88046295 -42.50448608 67.90351868 C-42.46417812 74.08901053 -41.60403575 78.86478121 -38 84 C-34.11138213 87.52688597 -30.44992511 88.80501359 -25.3046875 89.16015625 C-20.56486214 88.83077856 -16.7661992 86.80206111 -13.4609375 83.4296875 C-12.2675475 81.9850575 -11.1295901 80.49504573 -10 79 C-6.28708669 77.14354335 -2.05256766 77.55964225 2 78 C5.08085647 79.54042823 6.38588317 80.68931546 7.84375 83.80078125 C9.05615108 87.51736788 9.08839999 89.66997336 8.0625 93.5 C2.87602593 103.2523444 -4.94171813 108.01595035 -15 112 C-26.17294876 114.37751554 -37.18815085 112.93915621 -47.25 107.375 C-57.11724754 100.96604822 -63.17247683 91.99224293 -65.59411621 80.60107422 C-66.34794695 75.77020943 -66.28421233 70.94181229 -66.265625 66.0625 C-66.26753845 64.94238525 -66.2694519 63.82227051 -66.27142334 62.66821289 C-66.27277786 60.3116839 -66.26913295 57.95514726 -66.26074219 55.59863281 C-66.25003252 52.01089568 -66.26066281 48.42365923 -66.2734375 44.8359375 C-66.27211578 42.53645724 -66.26955312 40.23697729 -66.265625 37.9375 C-66.26967346 36.87474854 -66.27372192 35.81199707 -66.27789307 34.71704102 C-66.20328892 22.74891501 -63.84593654 12.71970641 -55.8046875 3.4765625 C-39.96439814 -11.85439279 -17.58283452 -13.00737572 0 0 Z " fill="#000000" transform="translate(397,206)"/>
<path d="M0 0 C1.26165985 -0.01591187 2.5233197 -0.03182373 3.82321167 -0.04821777 C5.19740747 -0.04948518 6.57160465 -0.0496618 7.94580078 -0.04882812 C9.36060894 -0.0559325 10.77541422 -0.0636319 12.19021606 -0.07189941 C15.15423592 -0.08533783 18.11798948 -0.08691642 21.08203125 -0.08105469 C24.87082563 -0.07516421 28.65833605 -0.10572347 32.44688225 -0.14617157 C35.36897604 -0.17209066 38.29076258 -0.17492218 41.21295547 -0.17127991 C42.60915474 -0.1729678 44.0053687 -0.18257865 45.40145493 -0.20042419 C57.66965149 -0.33996941 57.66965149 -0.33996941 61.61206055 2.81445312 C64.75865824 6.62047042 65.15317757 9.58161825 64.76611328 14.41992188 C63.21713498 18.17007987 61.22455867 20.32389437 57.76611328 22.41992188 C55.00178939 23.2645764 52.53982386 23.53941968 49.65673828 23.51757812 C48.90263672 23.51435547 48.14853516 23.51113281 47.37158203 23.5078125 C46.59427734 23.49943359 45.81697266 23.49105469 45.01611328 23.48242188 C44.22333984 23.47791016 43.43056641 23.47339844 42.61376953 23.46875 C40.6645182 23.45700752 38.7153059 23.43907333 36.76611328 23.41992188 C36.78276787 25.12881088 36.78276787 25.12881088 36.79975891 26.8722229 C36.90115414 37.61305103 36.97608808 48.35378195 37.02517414 59.09498024 C37.05125838 64.61707138 37.08663567 70.1387759 37.14331055 75.66064453 C37.19767117 80.99043956 37.22754265 86.31986291 37.2404995 91.64991379 C37.24973203 93.68250758 37.26776123 95.71508123 37.29476357 97.74751663 C37.33110744 100.59660918 37.33605636 103.44416965 37.33374023 106.29345703 C37.35171661 107.13215332 37.36969299 107.97084961 37.38821411 108.83496094 C37.35164561 112.99734005 37.02329782 115.62783428 34.37321472 118.93344116 C31.05444317 122.0986657 29.31744431 122.3836036 24.91455078 122.59570312 C21.8637143 122.34608923 20.11059318 121.35067003 17.76611328 119.41992188 C17.18861328 118.96617187 16.61111328 118.51242188 16.01611328 118.04492188 C12.78042857 113.83853175 13.62999983 107.83104724 13.65258789 102.77416992 C13.65244186 101.91512558 13.65229584 101.05608124 13.65214539 100.17100525 C13.65284016 97.34119105 13.66061217 94.51144328 13.66845703 91.68164062 C13.67032276 89.71580542 13.67174593 87.74996975 13.67274475 85.78413391 C13.67655775 80.61712352 13.68637766 75.45014135 13.69744873 70.28314209 C13.70768901 65.00777569 13.71224798 59.73240473 13.71728516 54.45703125 C13.72800101 44.11131574 13.74506283 33.76562116 13.76611328 23.41992188 C12.13802734 23.45472656 12.13802734 23.45472656 10.47705078 23.49023438 C9.03174521 23.50900458 7.58643213 23.52720343 6.14111328 23.54492188 C5.42826172 23.56167969 4.71541016 23.5784375 3.98095703 23.59570312 C-1.46480528 23.64566425 -5.92159766 22.98227935 -10.54638672 19.85742188 C-13.04425749 16.24938631 -13.4359269 12.76378568 -13.23388672 8.41992188 C-10.59247266 2.02491943 -6.71305976 0.05091881 0 0 Z " fill="#000000" transform="translate(106.23388671875,34.580078125)"/>
<path d="M0 0 C1.16155609 -0.00960754 2.32311218 -0.01921509 3.51986694 -0.02911377 C4.77095245 -0.03336365 6.02203796 -0.03761353 7.31103516 -0.04199219 C8.60071198 -0.04769226 9.89038879 -0.05339233 11.21914673 -0.05926514 C13.94769686 -0.06975384 16.67621772 -0.07561054 19.40478516 -0.07910156 C22.89056918 -0.08458443 26.37596225 -0.10861647 29.86162376 -0.13707352 C33.1989198 -0.16024358 36.53616289 -0.16215206 39.87353516 -0.16699219 C41.74409073 -0.18551239 41.74409073 -0.18551239 43.6524353 -0.20440674 C50.62650106 -0.1864852 55.6304423 0.04576484 61.10009766 4.78613281 C63.10017353 9.0085152 63.00637721 13.84750938 61.51806641 18.25488281 C59.68150199 20.9625669 58.23957581 21.79093731 55.22509766 23.16113281 C51.77894416 23.52365059 48.37279928 23.44400233 44.91259766 23.34863281 C43.51557617 23.32833008 43.51557617 23.32833008 42.09033203 23.30761719 C39.80132119 23.27240164 37.51351307 23.2231538 35.22509766 23.16113281 C35.23175949 24.27755661 35.23842133 25.39398041 35.24528503 26.54423523 C35.3060961 37.06469025 35.35107032 47.58510961 35.38053417 58.10570049 C35.39619105 63.51447054 35.41742992 68.92309871 35.45141602 74.33178711 C35.48400839 79.55132759 35.50195051 84.77073159 35.50972939 89.99036598 C35.51527309 91.98188233 35.52609854 93.97339121 35.54228783 95.96484947 C35.56406033 98.75399298 35.56706464 101.54257231 35.56567383 104.33178711 C35.57645966 105.1553772 35.58724548 105.97896729 35.59835815 106.82751465 C35.57338928 111.45407255 35.16329334 114.37000227 32.22509766 118.16113281 C28.54944444 121.64574377 25.5326589 121.72073621 20.63916016 121.59082031 C16.96943325 120.93763268 15.38364844 119.08562097 13.22509766 116.16113281 C11.57735864 112.86565478 12.0961404 109.20206118 12.11157227 105.58056641 C12.11142624 104.69269943 12.11128021 103.80483246 12.11112976 102.89006042 C12.1118281 99.94653912 12.11961684 97.0030806 12.12744141 94.05957031 C12.12930586 92.02218663 12.13072964 89.9848025 12.13172913 87.94741821 C12.13555211 82.57815316 12.14538054 77.20891504 12.15643311 71.83966064 C12.16665192 66.36348841 12.17122776 60.88731183 12.17626953 55.41113281 C12.18700299 44.66112096 12.20407681 33.91112912 12.22509766 23.16113281 C11.64542236 23.17684326 11.06574707 23.19255371 10.46850586 23.20874023 C7.82497027 23.27136072 5.18159111 23.31020799 2.53759766 23.34863281 C1.62558594 23.37376953 0.71357422 23.39890625 -0.22607422 23.42480469 C-8.80720285 23.518417 -8.80720285 23.518417 -12.77490234 20.16113281 C-15.6080749 15.91137398 -15.54184926 12.15016121 -14.77490234 7.16113281 C-13.23740845 4.09839596 -11.30295107 1.70307369 -7.96395874 0.51885986 C-5.28357176 0.08084149 -2.71695188 0.01816714 0 0 Z " fill="#000000" transform="translate(243.77490234375,196.8388671875)"/>
<path d="M0 0 C3.57236674 1.9270028 5.69560702 4.08682105 7 8 C7.09454817 9.43317941 7.13484782 10.87031101 7.14044189 12.30659485 C7.14900711 13.62500366 7.14900711 13.62500366 7.15774536 14.970047 C7.15886322 15.93166245 7.15998108 16.89327789 7.16113281 17.8840332 C7.16609772 18.89895844 7.17106262 19.91388367 7.17617798 20.95956421 C7.19080496 24.32331008 7.19760256 27.68700878 7.203125 31.05078125 C7.20887605 33.38624574 7.21463379 35.72171022 7.22039795 38.05717468 C7.23090949 42.95730815 7.23675115 47.8574252 7.24023438 52.75756836 C7.24571908 59.03572329 7.26974615 65.31366133 7.29820633 71.59174824 C7.31683228 76.41731906 7.3220383 81.24283765 7.32357025 86.06844139 C7.32659745 88.3828875 7.33462819 90.69733268 7.34775543 93.01174355 C7.36481445 96.25059115 7.36293579 99.48890887 7.35644531 102.7277832 C7.3656601 103.68332596 7.37487488 104.63886871 7.3843689 105.62336731 C7.3516538 110.83624863 6.94103801 114.50184237 4 119 C1.11067212 121.40777323 -0.69478136 121.96115399 -4.4375 122.4375 C-8.68345227 121.91606726 -10.73817577 120.73082959 -14 118 C-15.80480833 115.08707533 -16.25172905 112.89277408 -16.26069641 109.49049377 C-16.26778122 108.59190643 -16.27486603 107.69331909 -16.28216553 106.76750183 C-16.27968811 105.78920914 -16.27721069 104.81091644 -16.2746582 103.80297852 C-16.27976913 102.76679382 -16.28488007 101.73060913 -16.29014587 100.6630249 C-16.30405554 97.23492674 -16.30308408 93.8070293 -16.30078125 90.37890625 C-16.30466734 87.99763412 -16.30900182 85.61636269 -16.31376648 83.23509216 C-16.32123159 78.24256138 -16.32093521 73.2501013 -16.31567383 68.25756836 C-16.30987799 61.85713689 -16.3268118 55.45699469 -16.3500185 49.05661106 C-16.364744 44.13842575 -16.36562916 39.2203103 -16.36250877 34.30210686 C-16.36302255 31.94218307 -16.36827083 29.58225543 -16.37832069 27.22235298 C-16.39064491 23.92351559 -16.3839172 20.62524422 -16.37231445 17.32641602 C-16.37995819 16.35014755 -16.38760193 15.37387909 -16.39547729 14.36802673 C-16.35716935 9.4450845 -16.2714564 5.96527946 -13 2 C-8.99266798 -0.69063722 -4.6641491 -0.80694621 0 0 Z " fill="#000000" transform="translate(54,35)"/>
<path d="M0 0 C3.06881816 1.71904752 5.40357084 3.80714167 7 7 C7.26518877 10.26463453 7.23154074 13.53828887 7.25 16.8125 C7.270625 17.71548828 7.29125 18.61847656 7.3125 19.54882812 C7.34169329 24.51533622 7.29105277 27.99694063 4 32 C0.06538376 35.16955197 -3.02077887 35.53348798 -8 35 C-12.22696591 33.17471927 -14.07659909 31.1456353 -16 27 C-16.43279453 23.82506939 -16.41910111 20.69978082 -16.375 17.5 C-16.39240234 16.23736328 -16.39240234 16.23736328 -16.41015625 14.94921875 C-16.38232679 9.0586503 -15.37998859 5.65460266 -11.375 1.1875 C-7.62824429 -0.68587786 -4.09342525 -0.77902557 0 0 Z " fill="#000000" transform="translate(206,0)"/>
</svg>
