<svg width="14" height="14" viewBox="0 0 14 14" fill="none" xmlns="http://www.w3.org/2000/svg">
<g clip-path="url(#clip0_1994_9053)">
<path d="M7 1.75L7.00583 7.90417C6.66167 7.70583 6.265 7.58333 5.83917 7.58333C4.54417 7.58333 3.5 8.6275 3.5 9.91667C3.5 11.2058 4.54417 12.25 5.83917 12.25C7.13417 12.25 8.16667 11.2058 8.16667 9.91667V4.08333H10.5V1.75H7ZM5.83917 11.0833C5.1975 11.0833 4.6725 10.5583 4.6725 9.91667C4.6725 9.275 5.1975 8.75 5.83917 8.75C6.48083 8.75 7.00583 9.275 7.00583 9.91667C7.00583 10.5583 6.48083 11.0833 5.83917 11.0833Z" fill="#3E79A1"/>
</g>
<defs>
<clipPath id="clip0_1994_9053">
<rect width="14" height="14" fill="white"/>
</clipPath>
</defs>
</svg>
