<svg width="24" height="24" viewBox="0 0 24 24" fill="none" xmlns="http://www.w3.org/2000/svg">
<path d="M6.04055 8.92841V11.8012C6.04055 12.4075 5.78124 13.332 5.47206 13.8489L4.3251 15.7475C3.61698 16.9204 4.10569 18.2226 5.40224 18.66C9.70083 20.0914 14.3385 20.0914 18.6371 18.66C19.8439 18.2624 20.3725 16.8409 19.7142 15.7475L18.5673 13.8489C18.2681 13.332 18.0088 12.4075 18.0088 11.8012V8.92841C18.0088 5.64811 15.3159 2.96423 12.0247 2.96423C8.72343 2.96423 6.04055 5.63817 6.04055 8.92841Z" stroke="#EC4B5D" stroke-width="1.5" stroke-linecap="round"/>
<path d="M12.9124 3.05367C11.955 2.93439 11.0374 3.00397 10.1797 3.25248C10.4689 2.5169 11.187 2 12.0248 2C12.8626 2 13.5807 2.5169 13.8699 3.25248C13.5607 3.16302 13.2416 3.09343 12.9124 3.05367Z" stroke="#EC4B5D" stroke-width="1.5" stroke-linecap="round" stroke-linejoin="round"/>
<path d="M15.0173 19.0179C15.0173 20.6581 13.6709 22 12.0253 22C11.2074 22 10.4494 21.6621 9.91087 21.1253C9.3723 20.5885 9.0332 19.833 9.0332 19.0179" stroke="#EC4B5D" stroke-width="1.5"/>
</svg>
