<svg width="20" height="20" viewBox="0 0 20 20" fill="none" xmlns="http://www.w3.org/2000/svg">
<g clip-path="url(#clip0_1961_8751)">
<path d="M10.832 6.66536C10.832 4.8237 9.34037 3.33203 7.4987 3.33203C5.65703 3.33203 4.16536 4.8237 4.16536 6.66536C4.16536 8.50703 5.65703 9.9987 7.4987 9.9987C9.34037 9.9987 10.832 8.50703 10.832 6.66536ZM9.16537 6.66536C9.16537 7.58203 8.41536 8.33203 7.4987 8.33203C6.58203 8.33203 5.83203 7.58203 5.83203 6.66536C5.83203 5.7487 6.58203 4.9987 7.4987 4.9987C8.41536 4.9987 9.16537 5.7487 9.16537 6.66536ZM0.832031 14.9987V16.6654H14.1654V14.9987C14.1654 12.782 9.7237 11.6654 7.4987 11.6654C5.2737 11.6654 0.832031 12.782 0.832031 14.9987ZM2.4987 14.9987C2.66536 14.407 5.2487 13.332 7.4987 13.332C9.74037 13.332 12.3154 14.3987 12.4987 14.9987H2.4987ZM16.6654 12.4987V9.9987H19.1654V8.33203H16.6654V5.83203H14.9987V8.33203H12.4987V9.9987H14.9987V12.4987H16.6654Z" fill="#EC4B5D"/>
</g>
<defs>
<clipPath id="clip0_1961_8751">
<rect width="20" height="20" fill="white"/>
</clipPath>
</defs>
</svg>
