<svg width="20" height="20" viewBox="0 0 20 20" fill="none" xmlns="http://www.w3.org/2000/svg">
<g clip-path="url(#clip0_1961_8745)">
<path d="M7.91797 5.41797V7.91797H5.41797V5.41797H7.91797ZM9.16797 4.16797H4.16797V9.16797H9.16797V4.16797ZM7.91797 12.0846V14.5846H5.41797V12.0846H7.91797ZM9.16797 10.8346H4.16797V15.8346H9.16797V10.8346ZM14.5846 5.41797V7.91797H12.0846V5.41797H14.5846ZM15.8346 4.16797H10.8346V9.16797H15.8346V4.16797ZM10.8346 10.8346H12.0846V12.0846H10.8346V10.8346ZM12.0846 12.0846H13.3346V13.3346H12.0846V12.0846ZM13.3346 10.8346H14.5846V12.0846H13.3346V10.8346ZM10.8346 13.3346H12.0846V14.5846H10.8346V13.3346ZM12.0846 14.5846H13.3346V15.8346H12.0846V14.5846ZM13.3346 13.3346H14.5846V14.5846H13.3346V13.3346ZM14.5846 12.0846H15.8346V13.3346H14.5846V12.0846ZM14.5846 14.5846H15.8346V15.8346H14.5846V14.5846ZM18.3346 5.83464H16.668V3.33464H14.168V1.66797H18.3346V5.83464ZM18.3346 18.3346V14.168H16.668V16.668H14.168V18.3346H18.3346ZM1.66797 18.3346H5.83464V16.668H3.33464V14.168H1.66797V18.3346ZM1.66797 1.66797V5.83464H3.33464V3.33464H5.83464V1.66797H1.66797Z" fill="#EC4B5D"/>
</g>
<defs>
<clipPath id="clip0_1961_8745">
<rect width="20" height="20" fill="white"/>
</clipPath>
</defs>
</svg>
