<svg width="34" height="30" viewBox="0 0 34 30" fill="none" xmlns="http://www.w3.org/2000/svg">
<mask id="mask0_3220_16500" style="mask-type:luminance" maskUnits="userSpaceOnUse" x="0" y="0" width="16" height="19">
<path d="M0 0.625H15.9764V18.5042H0V0.625Z" fill="white"/>
</mask>
<g mask="url(#mask0_3220_16500)">
<path d="M14.1644 5.1242L9.38474 3.74706L9.78229 1.54071L14.8982 3.03482L14.1644 5.1242ZM15.5046 2.39846L9.56715 0.664156C9.46202 0.633522 9.35063 0.648143 9.25942 0.703841C9.25176 0.708715 9.2441 0.713588 9.23644 0.719158C9.15777 0.775553 9.10416 0.861189 9.08675 0.958661L8.54996 3.93922C8.51376 4.14252 8.64047 4.34512 8.84098 4.40291L9.05403 4.46418L9.01852 4.5519C8.75535 5.20845 8.26729 5.47441 6.61583 6.29665C6.13126 6.53755 5.52832 6.83832 4.82374 7.20732C4.4429 7.40714 4.10523 7.61531 3.80376 7.83254C1.78609 9.28557 1.42892 11.1229 0.99169 13.371C0.975676 13.456 0.975676 13.4546 0.979854 13.4351C0.978461 13.4441 0.976372 13.4539 0.974284 13.465C0.658892 15.0329 0.0204491 17.389 0.0141831 17.4127C0.00304337 17.451 -0.0011341 17.4913 0.000258454 17.5317C0.00234701 17.5811 0.0315887 18.0226 0.41173 18.2969C0.71459 18.5155 1.13442 18.5816 1.62108 18.3895C2.49694 18.0427 3.8344 16.1017 4.0551 14.0359C4.07877 13.8187 3.81699 13.6676 3.60394 13.6962C3.3909 13.7247 3.32476 13.9252 3.28368 14.1397C2.84505 16.4553 1.90097 17.3653 1.36278 17.6355C1.10309 17.7656 0.917889 17.7065 0.85314 17.6626C0.819025 17.6396 0.800923 17.5972 0.791175 17.5644C0.908142 17.1293 1.45468 15.0747 1.74083 13.6495C1.78748 13.4184 1.83134 13.1928 1.87451 12.9721C2.37371 10.4016 2.58954 9.28209 5.20527 7.91052C5.9022 7.54499 6.47659 7.25884 6.98275 7.00681C8.66693 6.16855 9.36385 5.82183 9.74539 4.87147L9.82058 4.68488L13.1555 5.64568C13.1214 5.74524 13.0859 5.84968 13.0476 5.96038C12.8318 6.46236 12.7879 6.97966 12.7454 7.47955C12.6647 8.42224 12.5895 9.31272 11.3975 10.2317C10.608 10.8535 9.59987 11.1125 8.71079 11.3415C7.90386 11.549 7.20693 11.7286 6.82331 12.1512C6.43551 12.5808 5.47959 13.0682 4.87596 13.0299C4.72279 13.0201 4.61626 12.9777 4.55987 12.9046C4.34682 12.6268 4.46657 12.3908 4.9602 11.776C5.03052 11.689 5.10223 11.5991 5.17116 11.5086C5.48933 11.0874 5.94885 10.8382 6.48146 10.5492C7.05446 10.2387 7.70334 9.88642 8.2652 9.24588C8.40584 9.08575 8.38704 8.8358 8.22273 8.6882C8.05842 8.5406 7.81126 8.55035 7.67132 8.71048C7.19649 9.25145 6.63463 9.5564 6.09088 9.8516C5.79219 10.0131 5.48794 10.1781 5.20597 10.3814C4.96229 10.5569 4.73532 10.7602 4.54246 11.015C4.4805 11.0979 4.41505 11.1793 4.34543 11.2656C4.12124 11.5448 3.8894 11.8338 3.76617 12.1561C3.60255 12.5836 3.66521 13.0041 3.94788 13.3731C4.09061 13.5583 4.36353 13.786 4.85576 13.8173C5.72675 13.8723 6.8797 13.2819 7.41023 12.6957C7.64347 12.4374 8.26868 12.2766 8.9308 12.1067C9.84356 11.8714 10.9805 11.5789 11.8905 10.8625C13.3407 9.74438 13.4382 8.59212 13.5245 7.57633C13.5642 7.11403 13.6011 6.6768 13.7717 6.28621C13.7766 6.27716 13.78 6.26741 13.7835 6.25697C13.8316 6.11772 13.8761 5.98683 13.9179 5.86569L14.3217 5.98196C14.518 6.03835 14.7193 5.9367 14.7854 5.74663L15.7782 2.92133C15.8144 2.81829 15.8054 2.70272 15.7532 2.60316C15.7016 2.5036 15.6111 2.4298 15.5046 2.39846Z" fill="#323232"/>
</g>
<mask id="mask1_3220_16500" style="mask-type:luminance" maskUnits="userSpaceOnUse" x="17" y="0" width="17" height="19">
<path d="M17.6094 0.648438H33.4194V18.506H17.6094V0.648438Z" fill="white"/>
</mask>
<g mask="url(#mask1_3220_16500)">
<path d="M19.2568 5.1242L18.5223 3.03482L23.6389 1.54071L24.0364 3.74706L19.2568 5.1242ZM33.4077 17.4127C33.4007 17.389 32.7623 15.0329 32.4469 13.465C32.4448 13.4539 32.4427 13.4441 32.4413 13.4351C32.4448 13.4546 32.4455 13.456 32.4295 13.371C31.9922 11.1229 31.6351 9.28557 29.6174 7.83254C29.3166 7.61531 28.9783 7.40714 28.5974 7.20732C27.8928 6.83832 27.2899 6.53755 26.8053 6.29665C25.1539 5.47441 24.6658 5.20845 24.4026 4.5519L24.3671 4.46418L24.5809 4.40291C24.7807 4.34512 24.9074 4.14252 24.8712 3.93922L24.3351 0.958661C24.317 0.861189 24.2634 0.775553 24.1847 0.719158C24.1771 0.713588 24.1694 0.708715 24.1618 0.703841C24.0705 0.648143 23.9591 0.633522 23.854 0.664156L17.9166 2.39846C17.81 2.4298 17.7195 2.5036 17.668 2.60316C17.6158 2.70272 17.6067 2.81829 17.643 2.92133L18.6358 5.74663C18.7019 5.9367 18.9031 6.03835 19.0995 5.98196L19.5033 5.86569C19.5451 5.98683 19.5896 6.11772 19.6377 6.25697C19.6411 6.26741 19.6453 6.27646 19.6488 6.28621C19.8201 6.6768 19.857 7.11403 19.8966 7.57633C19.983 8.59212 20.0805 9.74438 21.5307 10.8625C22.4407 11.5789 23.5769 11.8714 24.4904 12.1067C25.1525 12.2766 25.7777 12.4374 26.0109 12.6957C26.5415 13.2819 27.6944 13.8723 28.5654 13.8173C29.0576 13.786 29.3306 13.5583 29.4733 13.3724C29.756 13.0041 29.8186 12.5836 29.655 12.1561C29.5318 11.8338 29.2999 11.5448 29.0757 11.2656C29.0061 11.1793 28.9407 11.0972 28.8787 11.015C28.6859 10.7602 28.4589 10.5569 28.2152 10.3814C27.9332 10.1781 27.629 10.0131 27.3303 9.8516C26.7865 9.5564 26.2247 9.25145 25.7499 8.71048C25.6099 8.55035 25.3627 8.5406 25.1984 8.6882C25.0341 8.8358 25.0153 9.08575 25.156 9.24588C25.7178 9.88642 26.3667 10.2387 26.9397 10.5492C27.4723 10.8382 27.9311 11.0874 28.25 11.5086C28.3182 11.5991 28.3906 11.689 28.461 11.776C28.9546 12.3908 29.0737 12.6268 28.8606 12.9046C28.8049 12.9777 28.6984 13.0201 28.5452 13.0299C27.9416 13.0682 26.9857 12.5808 26.5972 12.1512C26.2142 11.7286 25.5173 11.549 24.7104 11.3415C23.8213 11.1125 22.8132 10.8535 22.0236 10.2317C20.8317 9.31272 20.7565 8.42224 20.6757 7.47955C20.6333 6.97966 20.5894 6.46236 20.3736 5.96038C20.3353 5.84968 20.2998 5.74524 20.2656 5.64568L23.6006 4.68488L23.6758 4.87147C24.0573 5.82183 24.7542 6.16855 26.4384 7.00681C26.9446 7.25884 27.519 7.54499 28.2159 7.91052C30.8316 9.28209 31.0475 10.4016 31.5467 12.9721C31.5898 13.1928 31.6337 13.4184 31.6803 13.6495C31.9665 15.0747 32.513 17.1293 32.63 17.5644C32.6202 17.5972 32.6021 17.6396 32.568 17.6626C32.5033 17.7065 32.3181 17.7656 32.0584 17.6355C31.5202 17.3653 30.5761 16.4553 30.1368 14.139C30.0964 13.9252 30.0303 13.7247 29.8172 13.6962C29.6042 13.6676 29.3424 13.8187 29.3661 14.0359C29.5868 16.1017 30.9242 18.0427 31.8001 18.3895C32.2868 18.5816 32.7066 18.5155 33.0094 18.2969C33.3896 18.0226 33.4188 17.5811 33.4202 17.5317C33.4223 17.4913 33.4174 17.451 33.4077 17.4127Z" fill="#323232"/>
</g>
<mask id="mask2_3220_16500" style="mask-type:luminance" maskUnits="userSpaceOnUse" x="11" y="22" width="12" height="8">
<path d="M11.3672 22.4727H22.055V29.6215H11.3672V22.4727Z" fill="white"/>
</mask>
<g mask="url(#mask2_3220_16500)">
<path d="M19.9765 22.538C19.9166 22.5025 19.8477 22.4844 19.7781 22.4844C19.6402 22.4844 19.5114 22.5575 19.4418 22.6758C19.3882 22.7657 19.3736 22.8701 19.4 22.971C19.4258 23.0713 19.4898 23.1562 19.5796 23.2092C20.6992 23.8657 21.2673 24.9462 21.2673 26.4195C21.2673 26.7947 21.2443 28.1754 21.2088 28.8458H19.6277V26.8985C19.6277 26.684 19.4522 26.5093 19.2371 26.5093C19.0213 26.5093 18.8458 26.684 18.8458 26.8985V28.8458H14.5738V26.8128C14.5738 26.5984 14.3983 26.4236 14.1825 26.4236C13.9673 26.4236 13.7919 26.5984 13.7919 26.8128V28.8458H12.2107C12.1752 28.1747 12.1523 26.7947 12.1523 26.4195C12.1523 24.9532 12.7148 23.8768 13.8239 23.2182C13.9137 23.1653 13.9771 23.0803 14.0028 22.9794C14.0286 22.8784 14.0133 22.774 13.9597 22.6842C13.8894 22.5672 13.7606 22.4941 13.6241 22.4941C13.5538 22.4941 13.4848 22.5136 13.4243 22.5491C12.0806 23.3463 11.3711 24.6845 11.3711 26.4195C11.3711 26.6012 11.3969 28.9057 11.4665 29.3026C11.4992 29.4891 11.6614 29.6242 11.8515 29.6242H21.5681C21.7581 29.6242 21.9204 29.4891 21.9531 29.3026C22.0227 28.9057 22.0485 26.6012 22.0485 26.4195C22.0485 24.6761 21.3321 23.3338 19.9765 22.538Z" fill="#323232"/>
</g>
<path d="M16.7118 17.1658C18.1467 17.1658 19.3136 18.3285 19.3136 19.7579C19.3136 21.1872 18.1467 22.3499 16.7118 22.3499C15.2769 22.3499 14.11 21.1872 14.11 19.7579C14.11 18.3285 15.2769 17.1658 16.7118 17.1658ZM16.7118 23.1283C18.5777 23.1283 20.0955 21.6161 20.0955 19.7579C20.0955 17.8989 18.5777 16.3867 16.7118 16.3867C14.8459 16.3867 13.3281 17.8989 13.3281 19.7579C13.3281 21.6161 14.8459 23.1283 16.7118 23.1283Z" fill="#323232"/>
<path d="M10.4897 26.0884H7.26825V23.857C7.26825 23.6425 7.0928 23.4678 6.87767 23.4678C6.66184 23.4678 6.48639 23.6425 6.48639 23.857V26.0884H5.27634C5.24849 25.5084 5.23108 24.4042 5.23108 24.1083C5.23108 22.8913 5.69825 22.0001 6.62006 21.4592C6.70988 21.4062 6.77393 21.322 6.80039 21.221C6.82615 21.1208 6.81153 21.0157 6.75861 20.9258C6.68899 20.8075 6.55949 20.7344 6.42164 20.7344C6.35201 20.7344 6.28378 20.7532 6.22321 20.788C5.0626 21.4696 4.44922 22.6177 4.44922 24.1083C4.44922 24.1278 4.46662 26.1838 4.53068 26.5451C4.5634 26.7317 4.72562 26.8668 4.91569 26.8668H10.4897C10.7048 26.8668 10.8803 26.692 10.8803 26.4776C10.8803 26.2631 10.7048 26.0884 10.4897 26.0884Z" fill="#323232"/>
<path d="M11.6019 20.7461C11.4647 20.7461 11.3366 20.8185 11.2663 20.9362C11.2127 21.0253 11.1974 21.1297 11.2231 21.2307C11.2489 21.3316 11.3123 21.4166 11.4021 21.4695C11.7404 21.6707 12.021 21.9241 12.2362 22.2221C12.3093 22.3238 12.4276 22.385 12.5536 22.385C12.6358 22.385 12.7145 22.3593 12.7813 22.3119C12.8662 22.2513 12.9219 22.1615 12.9393 22.0585C12.9561 21.9561 12.9317 21.8531 12.8711 21.7689C12.5933 21.3824 12.2334 21.0566 11.8017 20.8004C11.7411 20.7649 11.6722 20.7461 11.6019 20.7461Z" fill="#323232"/>
<path d="M11.5234 24.3585V23.8579C11.5234 23.6435 11.3479 23.4688 11.1328 23.4688C10.9169 23.4688 10.7422 23.6435 10.7422 23.8579V24.3585C10.7422 24.573 10.9169 24.7477 11.1328 24.7477C11.3479 24.7477 11.5234 24.573 11.5234 24.3585Z" fill="#323232"/>
<path d="M9.0065 16.3806C10.1797 16.3806 11.1342 17.331 11.1342 18.5C11.1342 19.6689 10.1797 20.62 9.0065 20.62C7.83336 20.62 6.87883 19.6689 6.87883 18.5C6.87883 17.331 7.83336 16.3806 9.0065 16.3806ZM9.0065 21.3984C10.6106 21.3984 11.916 20.0985 11.916 18.5C11.916 16.9021 10.6106 15.6016 9.0065 15.6016C7.40239 15.6016 6.09766 16.9021 6.09766 18.5C6.09766 20.0985 7.40239 21.3984 9.0065 21.3984Z" fill="#323232"/>
<path d="M27.1961 20.788C27.1356 20.7532 27.0673 20.7344 26.9977 20.7344C26.8599 20.7344 26.7304 20.8075 26.6607 20.9258C26.6078 21.0157 26.5932 21.1208 26.619 21.221C26.6454 21.322 26.7088 21.4062 26.7993 21.4592C27.7211 22.0001 28.1883 22.8913 28.1883 24.1083C28.1883 24.4042 28.1709 25.5091 28.143 26.0884H26.933V23.857C26.933 23.6425 26.7575 23.4678 26.5417 23.4678C26.3266 23.4678 26.1511 23.6425 26.1511 23.857V26.0884H22.9296C22.7145 26.0884 22.5391 26.2631 22.5391 26.4776C22.5391 26.692 22.7145 26.8668 22.9296 26.8668H28.5037C28.6937 26.8668 28.856 26.7317 28.8887 26.5451C28.9527 26.1838 28.9701 24.1278 28.9701 24.1083C28.9701 22.6177 28.3568 21.4696 27.1961 20.788Z" fill="#323232"/>
<path d="M20.6396 22.3119C20.7064 22.3593 20.7851 22.385 20.8672 22.385C20.9932 22.385 21.1116 22.3238 21.1847 22.2221C21.3998 21.9241 21.6804 21.6707 22.0188 21.4695C22.204 21.3595 22.2653 21.1207 22.1546 20.9362C22.0842 20.8185 21.9554 20.7461 21.8183 20.7461C21.7487 20.7461 21.679 20.7649 21.6192 20.8004C21.1868 21.0566 20.8275 21.3824 20.5497 21.7689C20.4237 21.9429 20.4648 22.1866 20.6396 22.3119Z" fill="#323232"/>
<path d="M22.6796 24.3585V23.8579C22.6796 23.6435 22.5049 23.4688 22.289 23.4688C22.0732 23.4688 21.8984 23.6435 21.8984 23.8579V24.3585C21.8984 24.573 22.0732 24.7477 22.289 24.7477C22.5049 24.7477 22.6796 24.573 22.6796 24.3585Z" fill="#323232"/>
<path d="M24.4135 16.3806C25.5866 16.3806 26.5411 17.331 26.5411 18.5C26.5411 19.6689 25.5866 20.62 24.4135 20.62C23.2403 20.62 22.2858 19.6689 22.2858 18.5C22.2858 17.331 23.2403 16.3806 24.4135 16.3806ZM24.4135 21.3984C26.0176 21.3984 27.323 20.0985 27.323 18.5C27.323 16.9021 26.0176 15.6016 24.4135 15.6016C22.8093 15.6016 21.5039 16.9021 21.5039 18.5C21.5039 20.0985 22.8093 21.3984 24.4135 21.3984Z" fill="#323232"/>
</svg>
