<svg width="16" height="16" viewBox="0 0 16 16" fill="none" xmlns="http://www.w3.org/2000/svg">
<path d="M7.19265 2.10313C7.26699 1.95257 7.38196 1.8258 7.52457 1.73717C7.66718 1.64853 7.83174 1.60156 7.99965 1.60156C8.16756 1.60156 8.33212 1.64853 8.47473 1.73717C8.61734 1.8258 8.73232 1.95257 8.80665 2.10313L10.3277 5.18513L13.7287 5.67913C13.8949 5.70311 14.0511 5.77314 14.1797 5.8813C14.3082 5.98947 14.4039 6.13144 14.4559 6.29116C14.5079 6.45089 14.5142 6.62198 14.4741 6.7851C14.4339 6.94821 14.3489 7.09682 14.2287 7.21413L11.7667 9.61413L12.3477 13.0011C12.3759 13.1666 12.3573 13.3367 12.2939 13.4921C12.2306 13.6476 12.125 13.7822 11.9892 13.8809C11.8533 13.9795 11.6926 14.0381 11.5251 14.0502C11.3577 14.0623 11.1902 14.0272 11.0417 13.9491L7.99965 12.3511L4.95765 13.9511C4.8089 14.0294 4.6412 14.0645 4.47354 14.0524C4.30588 14.0402 4.14497 13.9814 4.00903 13.8825C3.87309 13.7836 3.76756 13.6487 3.7044 13.4929C3.64124 13.3371 3.62297 13.1668 3.65165 13.0011L4.23165 9.61413L1.77165 7.21513C1.65143 7.09789 1.5664 6.94935 1.52619 6.78631C1.48597 6.62328 1.49218 6.45224 1.54409 6.29254C1.596 6.13284 1.69156 5.99086 1.81996 5.88263C1.94836 5.77441 2.10447 5.70426 2.27065 5.68013L5.67065 5.18613L7.19265 2.10313Z" fill="url(#paint0_linear_3716_15529)"/>
<defs>
<linearGradient id="paint0_linear_3716_15529" x1="14.4987" y1="14.3331" x2="1.12365" y2="1.72113" gradientUnits="userSpaceOnUse">
<stop stop-color="#FF6F47"/>
<stop offset="1" stop-color="#FFCD0F"/>
</linearGradient>
</defs>
</svg>
