<svg width="14" height="14" viewBox="0 0 14 14" fill="none" xmlns="http://www.w3.org/2000/svg">
<g clip-path="url(#clip0_2643_11060)">
<path d="M6.41667 6.9987C7.70583 6.9987 8.75 5.95453 8.75 4.66536C8.75 3.3762 7.70583 2.33203 6.41667 2.33203C5.1275 2.33203 4.08333 3.3762 4.08333 4.66536C4.08333 5.95453 5.1275 6.9987 6.41667 6.9987ZM6.41667 3.4987C7.05833 3.4987 7.58333 4.0237 7.58333 4.66536C7.58333 5.30703 7.05833 5.83203 6.41667 5.83203C5.775 5.83203 5.25 5.30703 5.25 4.66536C5.25 4.0237 5.775 3.4987 6.41667 3.4987ZM2.91667 10.4987C3.03333 10.1312 4.41583 9.5187 5.81 9.36703L7 8.20036C6.7725 8.17703 6.60333 8.16536 6.41667 8.16536C4.85917 8.16536 1.75 8.94703 1.75 10.4987V11.6654H7L5.83333 10.4987H2.91667ZM12.0167 7.29036L9.02417 10.3062L7.81667 9.09286L7 9.91536L9.02417 11.957L12.8333 8.11286L12.0167 7.29036Z" fill="#444444"/>
</g>
<defs>
<clipPath id="clip0_2643_11060">
<rect width="14" height="14" fill="white"/>
</clipPath>
</defs>
</svg>
