<svg width="193" height="199" viewBox="0 0 193 199" fill="none" xmlns="http://www.w3.org/2000/svg">
<path d="M146.472 80.5943C148.579 79.1474 149.616 76.4314 149.527 73.8625C149.39 69.8672 146.558 66.6279 143.828 63.9941C140.962 61.2302 137.544 58.5108 136.419 54.5156C134.955 49.3162 137.24 42.7076 132.797 38.6097C129.978 36.0135 125.726 35.5893 121.923 35.2575C109.03 34.139 95.8506 35.8698 86.9776 38.7466C78.7613 41.4078 70.9999 46.7679 69.1596 55.1792C69.122 55.251 69.1015 55.3331 69.1083 55.4289C68.992 56.0035 68.9031 56.585 68.8415 57.1734C68.8005 57.5941 69.057 57.8336 69.3751 57.8917C69.813 63.8128 68.4824 69.6175 65.8656 74.4851C64.8326 76.4074 63.5499 78.1383 62.2329 79.8725C59.9514 82.8827 57.7793 86.5427 59.3083 90.4011C59.9137 91.9267 61.0596 93.1376 62.6502 93.6199C64.2682 94.1091 65.9887 93.897 67.6512 94.0509C69.1049 94.1843 70.5142 94.889 70.4082 96.5617C70.309 98.142 69.2588 99.5821 68.7458 101.046C67.4425 104.781 69.9601 107.142 74.0101 107.036C76.1514 106.977 78.3406 106.05 80.4819 106.591C82.4898 107.101 83.6767 109.078 85.1031 110.419C94.9202 119.651 110.624 117.051 117.158 105.698C119.189 109.218 123.051 111.499 127.142 111.67C134.124 111.965 139.617 105.325 138.8 98.5217C142.378 99.8899 146.674 98.9116 149.455 96.2709C154.285 91.677 152.304 83.3821 146.472 80.5943Z" fill="#1B136A"/>
<path d="M115.615 109.636H94.6328V77.5508H115.615V109.636Z" fill="#FECE6B"/>
<path d="M73.6634 59.1194C74.4125 48.9842 76.0749 38.2777 83.8328 31.6656C91.5908 25.0502 102.677 24.5268 112.833 25.0639C116.708 25.2725 120.639 25.6556 124.234 27.212C128.133 28.9018 131.455 32.2711 131.998 36.4716C132.098 37.2515 131.971 37.9732 131.889 38.7394C135.635 47.6022 137.465 57.4638 137.42 66.4019C137.382 74.3172 135.149 79.5336 127.182 84.3977C118.456 89.727 106.686 92.1283 95.1927 89.8159C88.6422 88.499 81.7771 85.6702 77.45 80.3716C72.3772 74.1632 73.0784 67.021 73.6634 59.1194Z" fill="#FECE6B"/>
<path d="M119.833 57.2501C119.833 57.6024 119.764 57.9411 119.631 58.2694C119.494 58.5944 119.303 58.8852 119.053 59.1349C118.803 59.3846 118.512 59.5761 118.187 59.7129C117.859 59.8463 117.52 59.9148 117.168 59.9148C116.812 59.9148 116.474 59.8463 116.145 59.7129C115.82 59.5761 115.53 59.3846 115.28 59.1349C115.03 58.8852 114.839 58.5944 114.702 58.2694C114.568 57.9411 114.5 57.6024 114.5 57.2501C114.5 56.8944 114.568 56.5557 114.702 56.2273C114.839 55.9024 115.03 55.6151 115.28 55.3619C115.53 55.1122 115.82 54.9207 116.145 54.7873C116.474 54.6504 116.812 54.582 117.168 54.582C117.52 54.582 117.859 54.6504 118.187 54.7873C118.512 54.9207 118.803 55.1122 119.053 55.3619C119.303 55.6151 119.494 55.9024 119.631 56.2273C119.764 56.5557 119.833 56.8944 119.833 57.2501Z" fill="#1B136A"/>
<path d="M96.1687 57.0123C96.1687 57.3646 96.1003 57.7067 95.9668 58.0316C95.83 58.36 95.6385 58.6474 95.3888 58.8971C95.1391 59.1468 94.8483 59.3383 94.5234 59.4751C94.195 59.6085 93.8563 59.677 93.504 59.677C93.1483 59.677 92.8096 59.6085 92.4812 59.4751C92.1563 59.3383 91.8655 59.1468 91.6158 58.8971C91.3661 58.6474 91.1746 58.36 91.0378 58.0316C90.9044 57.7067 90.8359 57.3646 90.8359 57.0123C90.8359 56.66 90.9044 56.3179 91.0378 55.993C91.1746 55.6646 91.3661 55.3773 91.6158 55.1276C91.8655 54.8779 92.1563 54.6829 92.4812 54.5495C92.8096 54.4126 93.1483 54.3477 93.504 54.3477C93.8563 54.3477 94.195 54.4126 94.5234 54.5495C94.8483 54.6829 95.1391 54.8779 95.3888 55.1276C95.6385 55.3773 95.83 55.6646 95.9668 55.993C96.1003 56.3179 96.1687 56.66 96.1687 57.0123Z" fill="#1B136A"/>
<path d="M89.2997 51.782C89.6622 51.3339 90.0419 51.0021 90.5824 50.7798C91.913 50.2325 94.0098 49.9486 95.3439 50.489C95.963 50.7387 95.662 51.4776 95.2139 51.4434C94.4237 51.3818 92.9939 51.0124 90.9997 51.8333C90.5345 52.0249 90.0693 52.1412 89.5904 52.2883C89.2791 52.3806 89.1252 52.0009 89.2997 51.782Z" fill="#1B136A"/>
<path d="M117.28 50.7019C117.157 50.6232 117.178 50.4419 117.28 50.3564C117.26 50.3735 117.376 50.2093 117.39 50.1956C117.578 50.0315 117.78 50.0178 118.026 49.9938C119.982 49.7817 122.65 51.2013 123.092 52.5388C123.198 52.8671 122.9 53.2673 122.538 53.0997C121.631 52.679 120.985 51.6904 118.696 51.1739C117.838 50.9824 117.629 51.0371 117.393 50.8421C117.373 50.825 117.205 50.654 117.28 50.7019Z" fill="#1B136A"/>
<path d="M103.054 62.7515C103.792 61.568 104.692 61.2909 105.404 59.779C105.684 59.1735 105.852 58.4963 105.906 57.8327C105.934 57.4974 105.913 57.1656 105.9 56.8304C105.879 56.2797 105.954 56.1463 105.927 56.0505C105.845 55.7734 106.279 55.6537 106.361 55.9308C106.382 56.006 106.467 56.0368 106.508 56.1018C106.587 56.2215 106.645 56.3892 106.697 56.526C106.792 56.7962 106.82 57.1177 106.847 57.4017C106.998 59.0367 106.457 60.7778 105.109 62.2418C104.391 63.0251 103.365 63.9248 104.196 65.0228C105.048 66.1447 106.512 65.8608 107.665 66.3465C108.037 66.5039 108.099 67.0307 107.665 67.1675C106.341 67.5882 104.6 67.1435 103.584 66.196C102.609 65.2896 102.335 63.9008 103.054 62.7515Z" fill="#1B136A"/>
<path d="M95.3067 89.0324C95.9977 88.7793 96.846 89.3027 97.4856 89.525C103.058 91.4474 107.905 91.054 113.432 89.4497C113.959 89.2958 114.332 90.1099 113.816 90.3562C108.924 92.6617 102.247 92.6172 96.9794 90.7564C96.2645 90.5033 95.3409 90.2878 95.0296 89.5216C94.9441 89.3129 95.1254 89.1008 95.3067 89.0324Z" fill="#1B136A"/>
<path d="M131.37 63.6225C131.37 63.8653 131.339 64.1048 131.274 64.3442C131.206 64.5837 131.11 64.8129 130.98 65.0386C130.85 65.2644 130.692 65.4765 130.504 65.6783C130.316 65.8835 130.101 66.0682 129.861 66.2392C129.625 66.4137 129.365 66.5676 129.081 66.701C128.801 66.8379 128.503 66.9507 128.192 67.0431C127.881 67.1354 127.559 67.2073 127.227 67.2552C126.896 67.3031 126.56 67.327 126.222 67.327C125.883 67.327 125.548 67.3031 125.216 67.2552C124.884 67.2073 124.563 67.1354 124.251 67.0431C123.937 66.9507 123.643 66.8379 123.359 66.701C123.078 66.5676 122.818 66.4137 122.579 66.2392C122.339 66.0682 122.127 65.8835 121.939 65.6783C121.751 65.4765 121.594 65.2644 121.464 65.0386C121.334 64.8129 121.238 64.5837 121.17 64.3442C121.105 64.1048 121.07 63.8653 121.07 63.6225C121.07 63.3796 121.105 63.1368 121.17 62.9007C121.238 62.6613 121.334 62.4287 121.464 62.2029C121.594 61.9806 121.751 61.7651 121.939 61.5633C122.127 61.3615 122.339 61.1733 122.579 61.0023C122.818 60.8313 123.078 60.6773 123.359 60.5405C123.643 60.4071 123.937 60.2942 124.251 60.1985C124.563 60.1061 124.884 60.0377 125.216 59.9898C125.548 59.9419 125.883 59.918 126.222 59.918C126.56 59.918 126.896 59.9419 127.227 59.9898C127.559 60.0377 127.881 60.1061 128.192 60.1985C128.503 60.2942 128.801 60.4071 129.081 60.5405C129.365 60.6773 129.625 60.8313 129.861 61.0023C130.101 61.1733 130.316 61.3615 130.504 61.5633C130.692 61.7651 130.85 61.9806 130.98 62.2029C131.11 62.4287 131.206 62.6613 131.274 62.9007C131.339 63.1368 131.37 63.3796 131.37 63.6225Z" fill="#EC4B5D"/>
<path d="M90.8307 63.6225C90.8307 63.8653 90.7965 64.1048 90.7315 64.3442C90.6665 64.5837 90.5673 64.8129 90.4373 65.0386C90.3108 65.2644 90.15 65.4765 89.9619 65.6783C89.7737 65.8835 89.5617 66.0682 89.3222 66.2392C89.0828 66.4137 88.8228 66.5676 88.5423 66.701C88.2618 66.8379 87.9642 66.9507 87.653 67.0431C87.3383 67.1354 87.0167 67.2073 86.6849 67.2552C86.3531 67.3031 86.0179 67.327 85.6793 67.327C85.344 67.327 85.0088 67.3031 84.677 67.2552C84.3452 67.2073 84.0237 67.1354 83.709 67.0431C83.3977 66.9507 83.1001 66.8379 82.8196 66.701C82.5391 66.5676 82.2792 66.4137 82.0397 66.2392C81.8003 66.0682 81.5882 65.8835 81.4001 65.6783C81.212 65.4765 81.0512 65.2644 80.9246 65.0386C80.7946 64.8129 80.6954 64.5837 80.6304 64.3442C80.5655 64.1048 80.5312 63.8653 80.5312 63.6225C80.5312 63.3796 80.5655 63.1368 80.6304 62.9007C80.6954 62.6613 80.7946 62.4287 80.9246 62.2029C81.0512 61.9806 81.212 61.7651 81.4001 61.5633C81.5882 61.3615 81.8003 61.1733 82.0397 61.0023C82.2792 60.8313 82.5391 60.6773 82.8196 60.5405C83.1001 60.4071 83.3977 60.2942 83.709 60.1985C84.0237 60.1061 84.3452 60.0377 84.677 59.9898C85.0088 59.9419 85.344 59.918 85.6793 59.918C86.0179 59.918 86.3531 59.9419 86.6849 59.9898C87.0167 60.0377 87.3383 60.1061 87.653 60.1985C87.9642 60.2942 88.2618 60.4071 88.5423 60.5405C88.8228 60.6773 89.0828 60.8313 89.3222 61.0023C89.5617 61.1733 89.7737 61.3615 89.9619 61.5633C90.15 61.7651 90.3108 61.9806 90.4373 62.2029C90.5673 62.4287 90.6665 62.6613 90.7315 62.9007C90.7965 63.1368 90.8307 63.3796 90.8307 63.6225Z" fill="#EC4B5D"/>
<path d="M92.7511 99.6461C92.7511 99.6461 76.2878 103.734 69.9425 113.705C63.6007 123.679 64.2541 143.929 64.3567 148.01C64.4593 152.091 142.726 150.729 145.312 148.01C147.898 145.291 145.654 120.806 140.387 111.888C135.115 102.971 115.44 95.8697 92.7511 99.6461Z" fill="#EC4B5D"/>
<path d="M91.5859 99.9751C91.5859 99.9751 94.8013 107.247 105.337 106.768C115.872 106.293 117.774 99.7562 117.774 99.7562C117.774 99.7562 110.663 97.8201 102.645 98.0596C94.6269 98.299 91.5859 99.9751 91.5859 99.9751Z" fill="#FECE6B"/>
<path d="M114.391 18.1435C100.65 11.8393 87.207 11.3365 79.6372 16.1321C75.0365 19.0465 72.3069 23.1136 72.3069 23.1136C69.8406 26.7908 69.1736 30.1087 68.3834 34.275C67.2307 40.3569 66.0985 51.8056 69.6969 53.2149C70.6444 53.5878 71.1815 52.9687 74.431 53.1944C76.4595 53.3347 77.5335 53.6665 78.4981 53.8101C79.3328 53.9367 81.953 54.2103 87.3986 51.3473C92.6868 48.5698 96.3264 45.0876 98.5942 42.8368C102.162 39.2965 106.742 34.3913 111.664 28.0495C111.989 29.8248 114.288 41.3318 123.996 45.8504C126.281 46.9142 128.528 47.3794 130.512 47.5402C130.803 49.1581 131.282 50.7282 131.955 52.2298C132.643 53.7725 133.378 54.9218 135.01 54.6584C137.63 54.2343 139.556 54.8192 140.671 54.4635C141.506 54.2001 143.278 52.9687 143.257 36.95C143.247 29.5717 142.867 26.0622 140.384 22.881C134.76 15.6669 123.158 16.0295 114.391 18.1435Z" fill="#1B136A"/>
<path d="M145.476 57.0079C145.476 57.4697 145.431 57.928 145.339 58.383C145.25 58.8345 145.117 59.2757 144.939 59.7033C144.764 60.1309 144.545 60.5345 144.289 60.921C144.032 61.3042 143.738 61.6599 143.413 61.9883C143.085 62.3167 142.729 62.6074 142.346 62.864C141.959 63.1205 141.552 63.3394 141.128 63.5139C140.701 63.6917 140.259 63.8251 139.804 63.9141C139.349 64.0064 138.894 64.0509 138.429 64.0509C137.967 64.0509 137.509 64.0064 137.054 63.9141C136.603 63.8251 136.161 63.6917 135.734 63.5139C135.306 63.3394 134.899 63.1205 134.516 62.864C134.13 62.6074 133.774 62.3167 133.449 61.9883C133.12 61.6599 132.83 61.3042 132.573 60.921C132.313 60.5345 132.098 60.1309 131.92 59.7033C131.742 59.2757 131.609 58.8345 131.52 58.383C131.431 57.928 131.383 57.4697 131.383 57.0079C131.383 56.5461 131.431 56.0877 131.52 55.6328C131.609 55.1813 131.742 54.74 131.92 54.3124C132.098 53.8849 132.313 53.4778 132.573 53.0947C132.83 52.7082 133.12 52.3524 133.449 52.0275C133.774 51.6991 134.13 51.4083 134.516 51.1518C134.899 50.8952 135.306 50.6763 135.734 50.4985C136.161 50.324 136.603 50.1906 137.054 50.0982C137.509 50.0093 137.967 49.9648 138.429 49.9648C138.894 49.9648 139.349 50.0093 139.804 50.0982C140.259 50.1906 140.701 50.324 141.128 50.4985C141.552 50.6763 141.959 50.8952 142.346 51.1518C142.729 51.4083 143.085 51.6991 143.413 52.0275C143.738 52.3524 144.032 52.7082 144.289 53.0947C144.545 53.4778 144.764 53.8849 144.939 54.3124C145.117 54.74 145.25 55.1813 145.339 55.6328C145.431 56.0877 145.476 56.5461 145.476 57.0079Z" fill="#FECE6B"/>
<path d="M78.7882 57.0079C78.7882 57.4697 78.7403 57.928 78.6514 58.383C78.5625 58.8345 78.429 59.2757 78.2512 59.7033C78.0733 60.1309 77.8578 60.5345 77.5978 60.921C77.3413 61.3042 77.0505 61.6599 76.7222 61.9883C76.3972 62.3167 76.0415 62.6074 75.6549 62.864C75.2718 63.1205 74.8648 63.3394 74.4372 63.5139C74.0096 63.6917 73.5684 63.8251 73.1168 63.9141C72.6619 64.0064 72.2035 64.0509 71.7418 64.0509C71.28 64.0509 70.8216 64.0064 70.3667 63.9141C69.9117 63.8251 69.4705 63.6917 69.0463 63.5139C68.6187 63.3394 68.2117 63.1205 67.8252 62.864C67.4421 62.6074 67.0863 62.3167 66.7579 61.9883C66.433 61.6599 66.1388 61.3042 65.8823 60.921C65.6257 60.5345 65.4102 60.1309 65.2323 59.7033C65.0545 59.2757 64.9211 58.8345 64.8321 58.383C64.7398 57.928 64.6953 57.4697 64.6953 57.0079C64.6953 56.5461 64.7398 56.0877 64.8321 55.6328C64.9211 55.1813 65.0545 54.74 65.2323 54.3124C65.4102 53.8849 65.6257 53.4778 65.8823 53.0947C66.1388 52.7082 66.433 52.3524 66.7579 52.0275C67.0863 51.6991 67.4421 51.4083 67.8252 51.1518C68.2117 50.8952 68.6187 50.6763 69.0463 50.4985C69.4705 50.324 69.9117 50.1906 70.3667 50.0982C70.8216 50.0093 71.28 49.9648 71.7418 49.9648C72.2035 49.9648 72.6619 50.0093 73.1168 50.0982C73.5684 50.1906 74.0096 50.324 74.4372 50.4985C74.8648 50.6763 75.2718 50.8952 75.6549 51.1518C76.0415 51.4083 76.3972 51.6991 76.7222 52.0275C77.0505 52.3524 77.3413 52.7082 77.5978 53.0947C77.8578 53.4778 78.0733 53.8849 78.2512 54.3124C78.429 54.74 78.5625 55.1813 78.6514 55.6328C78.7403 56.0877 78.7882 56.5461 78.7882 57.0079Z" fill="#FECE6B"/>
<path d="M69.6231 52.6999C70.8921 52.1697 72.4451 52.6075 73.4781 53.4456C74.5556 54.3144 75.1234 55.7545 75.0174 57.1227C74.99 57.4614 74.624 57.6119 74.3641 57.393C73.7894 56.9004 72.7735 57.0406 72.363 57.6803C71.9252 58.361 72.3049 59.2161 72.924 59.6232C73.2763 59.8524 73.0574 60.5126 72.623 60.3415C71.4565 59.8797 70.9982 58.2755 71.6926 57.2356C72.2536 56.3976 73.3447 56.1444 74.2409 56.4694C74.1554 55.5287 73.721 54.6428 72.9856 54.0168C72.0552 53.2232 70.8648 53.1001 69.6949 53.213C69.3734 53.2438 69.3768 52.8025 69.6231 52.6999Z" fill="#1B136A"/>
<path d="M141.071 52.6999C139.802 52.1697 138.252 52.6075 137.216 53.4456C136.138 54.3144 135.571 55.7545 135.677 57.1227C135.704 57.4614 136.073 57.6119 136.33 57.393C136.905 56.9004 137.921 57.0406 138.331 57.6803C138.769 58.361 138.393 59.2161 137.77 59.6232C137.421 59.8524 137.637 60.5126 138.075 60.3415C139.238 59.8797 139.699 58.2755 139.001 57.2356C138.441 56.3976 137.353 56.1444 136.453 56.4694C136.542 55.5287 136.973 54.6428 137.712 54.0168C138.639 53.2232 139.829 53.1001 141.003 53.213C141.324 53.2438 141.317 52.8025 141.071 52.6999Z" fill="#1B136A"/>
<mask id="mask0_1751_7927" style="mask-type:luminance" maskUnits="userSpaceOnUse" x="0" y="123" width="92" height="76">
<path d="M0 123.906H91.4978V198.995H0V123.906Z" fill="white"/>
</mask>
<g mask="url(#mask0_1751_7927)">
<path d="M4.16064 124.328H87.2301C87.4798 124.328 87.7261 124.352 87.9689 124.4C88.2118 124.451 88.4512 124.523 88.6804 124.615C88.9096 124.711 89.1285 124.828 89.3372 124.968C89.5424 125.105 89.734 125.262 89.9118 125.44C90.0863 125.614 90.2436 125.806 90.3839 126.014C90.5207 126.22 90.637 126.439 90.7328 126.668C90.8285 126.897 90.9004 127.136 90.9483 127.379C90.9962 127.622 91.0201 127.872 91.0201 128.118V194.817C91.0201 195.063 90.9962 195.309 90.9483 195.555C90.9004 195.798 90.8285 196.034 90.7328 196.267C90.637 196.496 90.5207 196.715 90.3839 196.92C90.2436 197.129 90.0863 197.32 89.9118 197.495C89.734 197.673 89.5424 197.83 89.3372 197.967C89.1285 198.104 88.9096 198.223 88.6804 198.316C88.4512 198.412 88.2118 198.483 87.9689 198.531C87.7261 198.583 87.4798 198.607 87.2301 198.607H4.16064C3.91094 198.607 3.66465 198.583 3.41837 198.531C3.17551 198.483 2.93948 198.412 2.70688 198.316C2.4777 198.223 2.25878 198.104 2.05355 197.967C1.84489 197.83 1.65334 197.673 1.47888 197.495C1.30101 197.32 1.14367 197.129 1.00684 196.92C0.866596 196.715 0.750296 196.496 0.654518 196.267C0.562163 196.034 0.486908 195.798 0.43902 195.555C0.391131 195.309 0.367188 195.063 0.367188 194.817V128.118C0.367188 127.872 0.391131 127.622 0.43902 127.379C0.486908 127.136 0.562163 126.897 0.654518 126.668C0.750296 126.439 0.866596 126.22 1.00684 126.014C1.14367 125.806 1.30101 125.614 1.47888 125.44C1.65334 125.262 1.84489 125.105 2.05355 124.968C2.25878 124.828 2.4777 124.711 2.70688 124.615C2.93948 124.523 3.17551 124.451 3.41837 124.4C3.66465 124.352 3.91094 124.328 4.16064 124.328Z" fill="#E5E5FF"/>
</g>
<mask id="mask1_1751_7927" style="mask-type:luminance" maskUnits="userSpaceOnUse" x="39" y="0" width="36" height="37">
<path d="M39.8359 0H74.8629V36.3405H39.8359V0Z" fill="white"/>
</mask>
<g mask="url(#mask1_1751_7927)">
<path d="M40.995 35.5743C40.369 35.5743 39.8594 35.0681 39.8594 34.4421V1.13222C39.8594 0.50625 40.369 0 40.995 0H73.4395C74.0654 0 74.5751 0.50625 74.5751 1.13222C74.5751 1.75819 74.0654 2.26786 73.4395 2.26786H42.1272V34.4421C42.1272 35.0681 41.621 35.5743 40.995 35.5743Z" fill="#B4B2FA"/>
</g>
<path d="M50.8432 30.4849C50.2172 30.4849 49.7109 29.9786 49.7109 29.3527V10.683C49.7109 10.057 50.2172 9.55078 50.8432 9.55078H69.0271C69.6531 9.55078 70.1593 10.057 70.1593 10.683C70.1593 11.309 69.6531 11.8152 69.0271 11.8152H51.9754V29.3527C51.9754 29.9786 51.4691 30.4849 50.8432 30.4849Z" fill="#B4B2FA"/>
<mask id="mask2_1751_7927" style="mask-type:luminance" maskUnits="userSpaceOnUse" x="135" y="0" width="37" height="37">
<path d="M135.297 0H171.2V36.3405H135.297V0Z" fill="white"/>
</mask>
<g mask="url(#mask2_1751_7927)">
<path d="M169.26 35.5743C168.634 35.5743 168.124 35.0681 168.124 34.4421V2.26786H136.812C136.186 2.26786 135.68 1.75819 135.68 1.13222C135.68 0.50625 136.186 0 136.812 0H169.26C169.886 0 170.392 0.50625 170.392 1.13222V34.4421C170.392 35.0681 169.886 35.5743 169.26 35.5743Z" fill="#B4B2FA"/>
</g>
<path d="M159.406 30.4849C158.776 30.4849 158.27 29.9786 158.27 29.3527V11.8152H141.218C140.592 11.8152 140.086 11.309 140.086 10.683C140.086 10.057 140.592 9.55078 141.218 9.55078H159.406C160.031 9.55078 160.538 10.057 160.538 10.683V29.3527C160.538 29.9786 160.031 30.4849 159.406 30.4849Z" fill="#B4B2FA"/>
<path d="M169.252 112.836H136.804C136.178 112.836 135.672 112.33 135.672 111.704C135.672 111.078 136.178 110.572 136.804 110.572H168.116V78.3939C168.116 77.768 168.626 77.2617 169.252 77.2617C169.878 77.2617 170.384 77.768 170.384 78.3939V111.704C170.384 112.33 169.878 112.836 169.252 112.836Z" fill="#B4B2FA"/>
<path d="M159.406 103.293H141.218C140.592 103.293 140.086 102.784 140.086 102.158C140.086 101.532 140.592 101.026 141.218 101.026H158.27V83.4916C158.27 82.8656 158.78 82.3594 159.406 82.3594C160.031 82.3594 160.538 82.8656 160.538 83.4916V102.158C160.538 102.784 160.031 103.293 159.406 103.293Z" fill="#B4B2FA"/>
<path d="M73.4238 112.836H40.9794C40.3534 112.836 39.8438 112.33 39.8438 111.704V78.3939C39.8438 77.768 40.3534 77.2617 40.9794 77.2617C41.6054 77.2617 42.1116 77.768 42.1116 78.3939V110.572H73.4238C74.0498 110.572 74.5595 111.078 74.5595 111.704C74.5595 112.33 74.0498 112.836 73.4238 112.836Z" fill="#B4B2FA"/>
<path d="M69.0271 103.293H50.8432C50.2172 103.293 49.7109 102.784 49.7109 102.158V83.4916C49.7109 82.8656 50.2172 82.3594 50.8432 82.3594C51.4691 82.3594 51.9754 82.8656 51.9754 83.4916V101.026H69.0271C69.6531 101.026 70.1593 101.532 70.1593 102.158C70.1593 102.784 69.6531 103.293 69.0271 103.293Z" fill="#B4B2FA"/>
<path d="M63.3705 161.709C64.2804 161.083 64.7285 159.909 64.6909 158.804C64.6293 157.08 63.4081 155.681 62.2314 154.546C60.9966 153.352 59.5189 152.179 59.0332 150.455C58.4038 148.214 59.3889 145.361 57.47 143.593C56.2556 142.474 54.4222 142.29 52.7803 142.15C47.2184 141.664 41.5333 142.413 37.7057 143.655C33.7891 144.924 30.2967 147.534 29.8793 151.604C29.8622 151.785 29.9751 151.888 30.1119 151.912C30.3001 154.467 29.7254 156.971 28.5966 159.071C28.1519 159.902 27.5978 160.648 27.03 161.394C26.0448 162.694 25.1076 164.274 25.7678 165.94C26.4964 167.777 28.2135 167.407 29.3663 167.513C29.9922 167.568 30.6011 167.876 30.5566 168.594C30.5122 169.278 30.0606 169.897 29.8383 170.53C29.2773 172.141 30.3616 173.161 32.1096 173.113C33.0331 173.089 33.9772 172.689 34.9008 172.921C35.7696 173.144 36.2793 173.995 36.895 174.573C41.1331 178.558 47.9059 177.436 50.7245 172.538C51.6002 174.057 53.266 175.039 55.0311 175.114C58.0446 175.24 60.4151 172.377 60.0628 169.443C61.6055 170.031 63.4594 169.61 64.6601 168.471C66.7432 166.491 65.8881 162.909 63.3705 161.709Z" fill="#1B136A"/>
<path d="M50.0587 174.238H41.0078V160.395H50.0587V174.238Z" fill="#FECE6B"/>
<path d="M31.968 152.447C32.2895 148.072 33.0078 143.454 36.3532 140.601C39.7019 137.748 44.484 137.519 48.8658 137.752C50.5384 137.841 52.2316 138.008 53.7846 138.679C55.1391 139.267 56.3329 140.314 56.8871 141.706C57.2428 142.606 57.1436 143.105 57.0855 143.652C58.7034 147.476 59.4936 151.732 59.4731 155.587C59.456 159.007 58.4879 161.255 55.0571 163.352C51.291 165.65 46.2148 166.687 41.2549 165.688C36.4832 164.73 32.4126 162.192 31.8722 157.359C31.6909 155.73 31.8448 154.071 31.968 152.447Z" fill="#FECE6B"/>
<path d="M51.888 151.634C51.888 151.788 51.8572 151.935 51.7991 152.075C51.7409 152.215 51.6588 152.342 51.5528 152.448C51.4433 152.557 51.3202 152.639 51.1765 152.698C51.0363 152.756 50.8892 152.786 50.7387 152.786C50.5848 152.786 50.4377 152.756 50.2974 152.698C50.1572 152.639 50.0306 152.557 49.9246 152.448C49.8151 152.342 49.733 152.215 49.6749 152.075C49.6167 151.935 49.5859 151.788 49.5859 151.634C49.5859 151.483 49.6167 151.336 49.6749 151.196C49.733 151.052 49.8151 150.929 49.9246 150.823C50.0306 150.714 50.1572 150.631 50.2974 150.573C50.4377 150.515 50.5848 150.484 50.7387 150.484C50.8892 150.484 51.0363 150.515 51.1765 150.573C51.3202 150.631 51.4433 150.714 51.5528 150.823C51.6588 150.929 51.7409 151.052 51.7991 151.196C51.8572 151.336 51.888 151.483 51.888 151.634Z" fill="#1B136A"/>
<path d="M41.6736 151.532C41.6736 151.686 41.6463 151.833 41.5881 151.973C41.53 152.114 41.4445 152.237 41.3384 152.346C41.229 152.456 41.1058 152.538 40.9656 152.596C40.8253 152.654 40.6783 152.681 40.5243 152.681C40.3704 152.681 40.2267 152.654 40.0831 152.596C39.9428 152.538 39.8197 152.456 39.7102 152.346C39.6042 152.237 39.5187 152.114 39.4605 151.973C39.4024 151.833 39.375 151.686 39.375 151.532C39.375 151.382 39.4024 151.235 39.4605 151.094C39.5187 150.951 39.6042 150.827 39.7102 150.721C39.8197 150.612 39.9428 150.53 40.0831 150.472C40.2267 150.414 40.3704 150.383 40.5243 150.383C40.6783 150.383 40.8253 150.414 40.9656 150.472C41.1058 150.53 41.229 150.612 41.3384 150.721C41.4445 150.827 41.53 150.951 41.5881 151.094C41.6463 151.235 41.6736 151.382 41.6736 151.532Z" fill="#1B136A"/>
<path d="M38.7129 149.277C38.925 149.013 39.1918 148.781 39.9238 148.654C40.3651 148.579 40.8953 148.548 41.3194 148.719C41.5794 148.825 41.4665 149.147 41.2647 149.13C40.8953 149.102 40.3069 148.945 39.445 149.301C39.2431 149.383 39.0447 149.434 38.8395 149.496C38.7027 149.537 38.6343 149.372 38.7129 149.277Z" fill="#1B136A"/>
<path d="M50.7781 148.813C50.7268 148.779 50.7337 148.7 50.7781 148.662C50.7713 148.669 50.8192 148.601 50.826 148.594C50.9081 148.522 50.9936 148.519 51.0997 148.505C51.9788 148.413 53.1042 149.059 53.2855 149.606C53.3333 149.747 53.2034 149.918 53.046 149.846C52.6458 149.661 52.3893 149.24 51.3904 149.015C51.021 148.933 50.9287 148.956 50.826 148.874C50.8192 148.864 50.7474 148.792 50.7781 148.813Z" fill="#1B136A"/>
<path d="M44.6504 154.01C45.0711 153.336 45.9433 153.093 45.8784 151.455C45.8681 151.219 45.9023 151.154 45.892 151.119C45.8544 151 46.0425 150.948 46.0768 151.068C46.0973 151.137 46.2307 151.092 46.2854 151.701C46.3504 152.406 46.1178 153.158 45.5363 153.791C45.2284 154.126 44.7838 154.516 45.1429 154.988C45.5089 155.474 46.1417 155.351 46.6412 155.559C46.8019 155.628 46.8259 155.854 46.6412 155.915C46.0699 156.096 45.3174 155.905 44.8795 155.494C44.4588 155.104 44.3425 154.506 44.6504 154.01Z" fill="#1B136A"/>
<path d="M41.2935 165.351C41.6697 165.211 41.851 165.522 43.2159 165.844C45.3127 166.34 47.0777 166.121 49.113 165.529C49.3422 165.464 49.5029 165.813 49.2806 165.919C47.1701 166.914 44.2865 166.894 42.0152 166.093C41.7074 165.984 41.3106 165.888 41.1738 165.56C41.1361 165.471 41.2148 165.378 41.2935 165.351Z" fill="#1B136A"/>
<path d="M56.8652 154.386C56.8652 154.599 56.8105 154.8 56.6976 154.999C56.5848 155.194 56.424 155.365 56.2153 155.515C56.0067 155.666 55.7672 155.782 55.4936 155.861C55.2234 155.943 54.9394 155.984 54.6453 155.984C54.3511 155.984 54.0672 155.943 53.7935 155.861C53.5233 155.782 53.2804 155.666 53.0718 155.515C52.8631 155.365 52.7058 155.194 52.5929 154.999C52.48 154.8 52.4219 154.599 52.4219 154.386C52.4219 154.174 52.48 153.969 52.5929 153.774C52.7058 153.579 52.8631 153.405 53.0718 153.254C53.2804 153.107 53.5233 152.991 53.7935 152.909C54.0672 152.827 54.3511 152.789 54.6453 152.789C54.9394 152.789 55.2234 152.827 55.4936 152.909C55.7672 152.991 56.0067 153.107 56.2153 153.254C56.424 153.405 56.5848 153.579 56.6976 153.774C56.8105 153.969 56.8652 154.174 56.8652 154.386Z" fill="#EC4B5D"/>
<path d="M39.3731 154.386C39.3731 154.599 39.3149 154.8 39.202 154.999C39.0891 155.194 38.9284 155.365 38.7231 155.515C38.5145 155.666 38.2716 155.782 38.0014 155.861C37.7277 155.943 37.4438 155.984 37.1497 155.984C36.8555 155.984 36.5716 155.943 36.3014 155.861C36.0277 155.782 35.7883 155.666 35.5796 155.515C35.3709 155.365 35.2102 155.194 35.0973 154.999C34.9844 154.8 34.9297 154.599 34.9297 154.386C34.9297 154.174 34.9844 153.969 35.0973 153.774C35.2102 153.579 35.3709 153.405 35.5796 153.254C35.7883 153.107 36.0277 152.991 36.3014 152.909C36.5716 152.827 36.8555 152.789 37.1497 152.789C37.4438 152.789 37.7277 152.827 38.0014 152.909C38.2716 152.991 38.5145 153.107 38.7231 153.254C38.9284 153.405 39.0891 153.579 39.202 153.774C39.3149 153.969 39.3731 154.174 39.3731 154.386Z" fill="#EC4B5D"/>
<path d="M59.5117 135.629C56.221 133.242 50.6762 134.49 49.5372 134.764C43.6093 132.044 37.8113 131.829 34.5447 133.895C32.5573 135.154 31.3806 136.908 31.3806 136.908C30.3168 138.496 30.0295 139.925 29.6908 141.725C29.1914 144.348 28.7023 149.288 30.2552 149.897C30.6657 150.054 30.8949 149.787 32.2973 149.886C33.173 149.948 33.6382 150.088 34.0521 150.153C34.4113 150.208 35.5435 150.324 37.8934 149.089C40.175 147.892 41.745 146.387 42.7233 145.416C44.2626 143.89 46.2363 141.773 48.3605 139.036C49.1472 143.305 51.9316 147.081 56.4913 147.447C56.6178 148.145 56.8231 148.822 57.1138 149.469C57.4114 150.136 57.7295 150.632 58.4342 150.516C59.563 150.334 60.3942 150.587 60.8765 150.434C61.2357 150.321 61.9985 149.787 61.9916 142.877C61.9882 139.717 62.0053 137.442 59.5117 135.629Z" fill="#1B136A"/>
<path d="M62.9456 151.534C62.9456 151.937 62.8704 152.324 62.7164 152.697C62.5625 153.069 62.3436 153.398 62.0562 153.682C61.7723 153.969 61.444 154.188 61.0711 154.342C60.6983 154.496 60.3117 154.575 59.9081 154.575C59.5045 154.575 59.1179 154.496 58.7451 154.342C58.3723 154.188 58.0439 153.969 57.7565 153.682C57.4726 153.398 57.2537 153.069 57.0998 152.697C56.9459 152.324 56.8672 151.937 56.8672 151.534C56.8672 151.13 56.9459 150.743 57.0998 150.371C57.2537 149.998 57.4726 149.669 57.7565 149.385C58.0439 149.102 58.3723 148.883 58.7451 148.729C59.1179 148.571 59.5045 148.496 59.9081 148.496C60.3117 148.496 60.6983 148.571 61.0711 148.729C61.444 148.883 61.7723 149.102 62.0562 149.385C62.3436 149.669 62.5625 149.998 62.7164 150.371C62.8704 150.743 62.9456 151.13 62.9456 151.534Z" fill="#FECE6B"/>
<path d="M34.1722 151.534C34.1722 151.937 34.0969 152.324 33.9396 152.697C33.7856 153.069 33.5667 153.398 33.2828 153.682C32.9989 153.969 32.6671 154.188 32.2977 154.342C31.9248 154.496 31.5349 154.575 31.1312 154.575C30.731 154.575 30.3411 154.496 29.9682 154.342C29.5988 154.188 29.267 153.969 28.9831 153.682C28.6992 153.398 28.4803 153.069 28.3229 152.697C28.169 152.324 28.0938 151.937 28.0938 151.534C28.0938 151.13 28.169 150.743 28.3229 150.371C28.4803 149.998 28.6992 149.669 28.9831 149.385C29.267 149.102 29.5988 148.883 29.9682 148.729C30.3411 148.571 30.731 148.496 31.1312 148.496C31.5349 148.496 31.9248 148.571 32.2977 148.729C32.6671 148.883 32.9989 149.102 33.2828 149.385C33.5667 149.669 33.7856 149.998 33.9396 150.371C34.0969 150.743 34.1722 151.13 34.1722 151.534Z" fill="#FECE6B"/>
<path d="M30.2179 149.675C31.2372 149.248 32.6568 150.171 32.5439 151.584C32.5336 151.728 32.3763 151.793 32.2634 151.7C32.0171 151.488 31.5759 151.547 31.4014 151.824C31.2133 152.118 31.374 152.487 31.6408 152.662C31.7948 152.761 31.699 153.045 31.5109 152.97C31.008 152.771 30.8096 152.08 31.1107 151.632C31.3535 151.269 31.8221 151.16 32.2121 151.3C32.1745 150.893 31.9863 150.514 31.6682 150.243C31.268 149.901 30.7549 149.847 30.2487 149.898C30.1084 149.912 30.1118 149.72 30.2179 149.675Z" fill="#1B136A"/>
<path d="M61.0511 149.675C60.0284 149.248 58.6122 150.171 58.7251 151.584C58.7354 151.728 58.8927 151.793 59.0056 151.7C59.2519 151.488 59.6931 151.547 59.8676 151.824C60.0557 152.118 59.8949 152.487 59.6247 152.662C59.4742 152.761 59.57 153.045 59.7581 152.97C60.261 152.771 60.4559 152.08 60.1583 151.632C59.9155 151.269 59.4468 151.16 59.0569 151.3C59.0945 150.893 59.2827 150.514 59.6008 150.243C60.001 149.901 60.5141 149.847 61.0203 149.898C61.1572 149.912 61.1572 149.72 61.0511 149.675Z" fill="#1B136A"/>
<path d="M28.0981 180.802C28.0981 180.802 27.2977 171.47 38.678 169.893C50.0618 168.313 60.9975 170.317 61.9895 180.802H28.0981Z" fill="#FECE6B"/>
<path d="M113.224 69.2876C113.104 69.1097 112.871 69.0276 112.676 69.1439C112.245 69.4039 112.222 69.9888 112.051 70.4301C111.076 72.9168 108.568 74.8632 105.291 74.569C104.019 74.4561 102.996 73.9088 101.874 73.3649C101.532 73.1973 101.197 73.6044 101.464 73.8951C102.35 74.8632 103.814 75.3352 105.076 75.5062C108.527 75.9714 111.623 74.0012 112.919 71.056C113.135 70.5703 113.559 69.7836 113.224 69.2876Z" fill="#1B136A"/>
<path d="M49.5834 156.932C49.5595 156.798 49.5013 156.675 49.4603 156.545C49.3611 156.224 48.9198 156.302 48.8925 156.624C48.889 156.665 48.8856 156.706 48.8788 156.75C48.7419 157.123 48.7248 157.527 48.5265 157.89C47.8936 159.063 46.327 159.432 45.2666 158.485C44.9827 158.228 44.562 158.639 44.8425 158.909C45.6737 159.699 46.9974 159.921 48.0476 159.449C49.0703 158.988 49.7066 157.636 49.5834 156.932Z" fill="#1B136A"/>
<path d="M67.4436 127.895H83.3392C83.5547 127.895 83.7599 127.936 83.9549 128.018C84.1533 128.1 84.3277 128.216 84.4782 128.367C84.6287 128.517 84.7451 128.692 84.8271 128.887C84.9092 129.085 84.9503 129.29 84.9503 129.502V129.875C84.9503 130.091 84.9092 130.296 84.8271 130.491C84.7451 130.689 84.6287 130.864 84.4782 131.014C84.3277 131.165 84.1533 131.281 83.9549 131.363C83.7599 131.442 83.5547 131.483 83.3392 131.483H67.4436C67.2315 131.483 67.0263 131.442 66.8279 131.363C66.6329 131.281 66.4585 131.165 66.308 131.014C66.1541 130.864 66.0412 130.689 65.9591 130.491C65.877 130.296 65.8359 130.091 65.8359 129.875V129.502C65.8359 129.29 65.877 129.085 65.9591 128.887C66.0412 128.692 66.1541 128.517 66.308 128.367C66.4585 128.216 66.6329 128.1 66.8279 128.018C67.0263 127.936 67.2315 127.895 67.4436 127.895Z" fill="#B4B2FA"/>
<path d="M22.0187 182.094H68.0532C68.2482 182.094 68.4363 182.131 68.6142 182.207C68.7955 182.278 68.9529 182.385 69.0897 182.521C69.2265 182.662 69.3325 182.819 69.4078 182.997C69.483 183.178 69.5207 183.363 69.5207 183.558V191.182C69.5207 191.377 69.483 191.562 69.4078 191.743C69.3325 191.921 69.2265 192.079 69.0897 192.219C68.9529 192.356 68.7955 192.462 68.6142 192.533C68.4363 192.609 68.2482 192.646 68.0532 192.646H22.0187C21.8237 192.646 21.6356 192.609 21.4577 192.533C21.2764 192.462 21.1191 192.356 20.9823 192.219C20.8454 192.079 20.7394 191.921 20.6641 191.743C20.5889 191.562 20.5547 191.377 20.5547 191.182V183.558C20.5547 183.363 20.5889 183.178 20.6641 182.997C20.7394 182.819 20.8454 182.662 20.9823 182.521C21.1191 182.385 21.2764 182.278 21.4577 182.207C21.6356 182.131 21.8237 182.094 22.0187 182.094Z" fill="#B4B2FA"/>
<path d="M51.201 183.289H66.9119C67.0316 183.289 67.1308 183.33 67.2163 183.416C67.2984 183.498 67.3429 183.6 67.3429 183.717V191.02C67.3429 191.136 67.2984 191.239 67.2163 191.321C67.1308 191.406 67.0316 191.447 66.9119 191.447H51.201C51.0847 191.447 50.9821 191.406 50.9 191.321C50.8145 191.239 50.7734 191.136 50.7734 191.02V183.717C50.7734 183.6 50.8145 183.498 50.9 183.416C50.9821 183.33 51.0847 183.289 51.201 183.289Z" fill="#EC4B5D"/>
<path d="M23.0197 183.289H53.7607C53.877 183.289 53.9865 183.31 54.0959 183.354C54.202 183.399 54.2977 183.464 54.3798 183.546C54.4654 183.628 54.5269 183.723 54.5714 183.833C54.6159 183.939 54.6398 184.052 54.6398 184.168V190.568C54.6398 190.684 54.6159 190.797 54.5714 190.903C54.5269 191.013 54.4654 191.109 54.3798 191.191C54.2977 191.273 54.202 191.338 54.0959 191.382C53.9865 191.427 53.877 191.447 53.7607 191.447H23.0197C22.9034 191.447 22.7905 191.427 22.6845 191.382C22.575 191.338 22.4827 191.273 22.4006 191.191C22.3151 191.109 22.2535 191.013 22.209 190.903C22.1646 190.797 22.1406 190.684 22.1406 190.568V184.168C22.1406 184.052 22.1646 183.939 22.209 183.833C22.2535 183.723 22.3151 183.628 22.4006 183.546C22.4827 183.464 22.575 183.399 22.6845 183.354C22.7905 183.31 22.9034 183.289 23.0197 183.289Z" fill="#4A53E2"/>
<path d="M83.7934 36.313C83.7934 36.6448 83.7284 36.9629 83.6019 37.2707C83.4753 37.5786 83.294 37.8488 83.058 38.0814C82.8254 38.3174 82.5551 38.4987 82.2473 38.6253C81.9394 38.7519 81.6213 38.8134 81.2895 38.8134C80.9577 38.8134 80.6396 38.7519 80.3318 38.6253C80.0273 38.4987 79.7537 38.3174 79.5211 38.0814C79.2851 37.8488 79.1038 37.5786 78.9772 37.2707C78.8506 36.9629 78.7891 36.6448 78.7891 36.313C78.7891 35.9812 78.8506 35.663 78.9772 35.3552C79.1038 35.0508 79.2851 34.7805 79.5211 34.5445C79.7537 34.3085 80.0273 34.1306 80.3318 34.0006C80.6396 33.8741 80.9577 33.8125 81.2895 33.8125C81.6213 33.8125 81.9394 33.8741 82.2473 34.0006C82.5551 34.1306 82.8254 34.3085 83.058 34.5445C83.294 34.7805 83.4753 35.0508 83.6019 35.3552C83.7284 35.663 83.7934 35.9812 83.7934 36.313Z" fill="#E5E5FF"/>
<path d="M131.231 36.313C131.231 36.6448 131.166 36.9629 131.039 37.2707C130.913 37.5786 130.732 37.8488 130.499 38.0814C130.263 38.3174 129.993 38.4987 129.685 38.6253C129.38 38.7519 129.059 38.8134 128.727 38.8134C128.395 38.8134 128.077 38.7519 127.769 38.6253C127.465 38.4987 127.195 38.3174 126.959 38.0814C126.726 37.8488 126.545 37.5786 126.418 37.2707C126.288 36.9629 126.227 36.6448 126.227 36.313C126.227 35.9812 126.288 35.663 126.418 35.3552C126.545 35.0508 126.726 34.7805 126.959 34.5445C127.195 34.3085 127.465 34.1306 127.769 34.0006C128.077 33.8741 128.395 33.8125 128.727 33.8125C129.059 33.8125 129.38 33.8741 129.685 34.0006C129.993 34.1306 130.263 34.3085 130.499 34.5445C130.732 34.7805 130.913 35.0508 131.039 35.3552C131.166 35.663 131.231 35.9812 131.231 36.313Z" fill="#E5E5FF"/>
<path d="M108.95 51.2539C108.95 51.5857 108.885 51.9038 108.758 52.2117C108.632 52.5161 108.45 52.7863 108.218 53.0223C107.982 53.2549 107.711 53.4362 107.404 53.5628C107.099 53.6894 106.778 53.7543 106.446 53.7543C106.114 53.7543 105.796 53.6894 105.488 53.5628C105.184 53.4362 104.913 53.2549 104.677 53.0223C104.445 52.7863 104.263 52.5161 104.137 52.2117C104.007 51.9038 103.945 51.5857 103.945 51.2539C103.945 50.9221 104.007 50.6005 104.137 50.2961C104.263 49.9883 104.445 49.718 104.677 49.4854C104.913 49.2494 105.184 49.0681 105.488 48.9416C105.796 48.815 106.114 48.75 106.446 48.75C106.778 48.75 107.099 48.815 107.404 48.9416C107.711 49.0681 107.982 49.2494 108.218 49.4854C108.45 49.718 108.632 49.9883 108.758 50.2961C108.885 50.6005 108.95 50.9221 108.95 51.2539Z" fill="#E5E5FF"/>
<path d="M88.8012 79.7622C88.8012 80.094 88.7362 80.4155 88.6097 80.72C88.4831 81.0278 88.3018 81.298 88.0658 81.5306C87.8332 81.7667 87.563 81.9479 87.2551 82.0745C86.9473 82.2011 86.6291 82.2661 86.2973 82.2661C85.9655 82.2661 85.6474 82.2011 85.3396 82.0745C85.0351 81.9479 84.7615 81.7667 84.5289 81.5306C84.2929 81.298 84.1116 81.0278 83.985 80.72C83.8584 80.4155 83.7969 80.094 83.7969 79.7622C83.7969 79.4304 83.8584 79.1123 83.985 78.8044C84.1116 78.5 84.2929 78.2298 84.5289 77.9937C84.7615 77.7611 85.0351 77.5798 85.3396 77.4533C85.6474 77.3267 85.9655 77.2617 86.2973 77.2617C86.6291 77.2617 86.9473 77.3267 87.2551 77.4533C87.563 77.5798 87.8332 77.7611 88.0658 77.9937C88.3018 78.2298 88.4831 78.5 88.6097 78.8044C88.7362 79.1123 88.8012 79.4304 88.8012 79.7622Z" fill="#E5E5FF"/>
<path d="M128.122 82.2695C128.122 82.6013 128.06 82.9194 127.933 83.2239C127.807 83.5317 127.626 83.8019 127.39 84.038C127.157 84.2706 126.883 84.4519 126.579 84.5784C126.271 84.705 125.953 84.77 125.621 84.77C125.289 84.77 124.971 84.705 124.663 84.5784C124.355 84.4519 124.085 84.2706 123.853 84.038C123.617 83.8019 123.435 83.5317 123.309 83.2239C123.182 82.9194 123.117 82.6013 123.117 82.2695C123.117 81.9377 123.182 81.6162 123.309 81.3117C123.435 81.0039 123.617 80.7337 123.853 80.5011C124.085 80.265 124.355 80.0837 124.663 79.9572C124.971 79.8306 125.289 79.7656 125.621 79.7656C125.953 79.7656 126.271 79.8306 126.579 79.9572C126.883 80.0837 127.157 80.265 127.39 80.5011C127.626 80.7337 127.807 81.0039 127.933 81.3117C128.06 81.6162 128.122 81.9377 128.122 82.2695Z" fill="#E5E5FF"/>
<path d="M129.036 34.9494C128.971 34.9528 85.8574 35.9174 82.5736 36.1021C82.1152 35.8832 81.6637 35.6574 81.2019 35.4454C80.6238 35.182 80.121 36.0234 80.682 36.3039C80.4562 36.3894 80.5623 36.7383 80.7949 36.7657C81.1232 36.7999 81.455 36.8204 81.7868 36.8341C88.1697 39.8579 94.2002 43.6309 99.68 48.0913C103.183 50.9475 103.255 51.3922 104.216 51.8369C95.3461 66.7576 87.5984 77.3204 85.7924 80.009C85.5666 80.3477 86.1105 80.7786 86.367 80.4503C91.9187 73.3388 100.453 59.9814 105.382 51.6556C105.433 51.659 105.488 51.6522 105.54 51.6351C106.932 53.5369 108.392 55.3909 109.778 57.2962C121.161 72.9626 125.229 83.0773 126.251 84.2677C126.504 84.5584 126.922 84.2403 126.853 83.9153C126.74 83.3749 126.58 83.0773 125.222 80.4708C123.446 77.0604 121.555 73.6946 119.55 70.3868C115.993 64.5205 110.123 56.0032 106.077 51.358C106.121 51.3341 129.121 35.8045 127.664 36.7965C128.064 36.5263 128.475 36.2834 128.769 35.9037C128.858 35.9003 128.947 35.8969 129.036 35.8969C129.645 35.8832 129.645 34.9357 129.036 34.9494ZM105.464 50.7081C105.365 50.6773 105.259 50.7184 105.187 50.7902C104.845 50.7149 104.725 50.9783 104.602 51.1904C104.185 50.5302 103.429 50 102.871 49.5006C98.0929 45.2146 91.3987 40.4942 84.1094 36.8375C85.3066 36.8068 110.339 36.3176 127.52 35.9311L105.464 50.7081Z" fill="#E5E5FF"/>
<path d="M129.117 118.399C129.045 118.098 128.624 118.126 128.539 118.399C128.251 119.313 128.326 120.397 128.285 121.348C128.077 125.945 128.186 123.356 127.94 130.204C127.594 139.73 127.523 140.332 127.615 142.169C127.639 142.675 128.33 142.651 128.388 142.169C128.624 140.188 128.631 138.177 128.699 136.186C129.195 121.358 129.079 125.107 129.171 121.348C129.195 120.393 129.342 119.333 129.117 118.399Z" fill="#1B136A"/>
<path d="M83.0707 118.7C82.9988 117.767 82.9373 116.833 82.8244 115.902C82.7697 115.458 82.0992 115.43 82.1095 115.902C82.13 116.853 82.2053 117.804 82.2668 118.755C82.3284 119.703 82.3558 120.661 82.5268 121.594C82.5986 122.001 83.2041 121.885 83.2178 121.502C83.2554 120.568 83.1425 119.631 83.0707 118.7Z" fill="#1B136A"/>
<mask id="mask3_1751_7927" style="mask-type:luminance" maskUnits="userSpaceOnUse" x="79" y="172" width="14" height="27">
<path d="M79.2422 172.074H92.3773V199.001H79.2422V172.074Z" fill="white"/>
</mask>
<g mask="url(#mask3_1751_7927)">
<path d="M90.5174 172.763C90.278 193.229 90.3875 192.692 90.0009 194.19C89.5221 196.044 88.188 197.258 86.3409 197.682C83.9465 198.233 81.8154 197.576 80.3309 197.617C79.9854 197.628 79.9683 198.066 80.2556 198.185C81.1176 198.551 82.1096 198.647 83.0366 198.736C85.8483 199.006 88.7558 198.524 90.2506 196.109C91.3897 194.265 91.3008 191.936 91.3281 189.846L91.5471 172.763C91.5539 172.1 90.5243 172.1 90.5174 172.763Z" fill="#1B136A"/>
</g>
<path d="M90.7399 162.772C90.6202 163.32 90.5792 163.34 90.4423 164.551C90.3774 165.132 90.2747 165.721 90.2816 166.309C90.285 166.716 90.9041 166.815 91.0033 166.405C91.147 165.823 91.3351 163.894 91.3522 163.737C91.3796 163.446 91.3693 163.152 91.3727 162.858C91.3796 162.502 90.8186 162.413 90.7399 162.772Z" fill="#1B136A"/>
<mask id="mask4_1751_7927" style="mask-type:luminance" maskUnits="userSpaceOnUse" x="0" y="141" width="2" height="17">
<path d="M0 141.418H1.30325V157.18H0V141.418Z" fill="white"/>
</mask>
<g mask="url(#mask4_1751_7927)">
<path d="M1.10113 153.078C0.885636 145.481 0.936944 144.479 0.74539 142.18C0.711185 141.773 0.11942 141.763 0.105737 142.18C0.0270635 144.458 0.126261 145.57 0.280188 152.959C0.304132 154.098 0.17415 155.377 0.430694 156.489C0.505948 156.82 1.05667 156.841 1.11824 156.489C1.30979 155.397 1.13192 154.183 1.10113 153.078Z" fill="#1B136A"/>
</g>
<path d="M142.755 123.187C142.495 122.55 142.229 121.387 141.599 121.045C141.462 120.974 141.278 121.035 141.24 121.193C141.073 121.866 141.671 122.79 141.911 123.419C144.223 129.522 145.225 135.487 145.17 141.535C145.164 142.188 146.179 142.188 146.186 141.535C146.241 135.306 145.095 128.964 142.755 123.187Z" fill="#1B136A"/>
<path d="M146.006 146.488C145.698 146.087 144.823 146.621 144.402 146.891C143.868 147.233 143.533 147.442 143.372 147.644C142.859 147.989 143.287 148.639 143.797 148.366C144.043 148.324 144.744 147.917 144.953 147.794C145.404 147.531 145.739 147.329 146.037 146.912C146.126 146.789 146.092 146.6 146.006 146.488Z" fill="#1B136A"/>
<path d="M31.6102 44.8926C27.2626 41.879 22.6756 39.1939 18.1809 36.3958C17.8183 36.17 17.4934 36.7379 17.8491 36.967C22.2993 39.8301 26.6914 42.8231 31.2784 45.4638C31.6512 45.6793 31.9557 45.132 31.6102 44.8926Z" fill="#1B136A"/>
<path d="M28.6065 56.346C27.1493 56.0348 21.5566 55.2378 20.4107 55.077C20.0755 55.0325 19.9181 55.5354 20.267 55.6004C21.495 55.8261 26.9954 56.801 28.521 56.9652C28.8767 57.0028 28.952 56.4213 28.6065 56.346Z" fill="#1B136A"/>
<path d="M27.223 70.1347C24.3087 70.4323 21.4046 70.9728 18.5073 71.414C18.0421 71.4859 18.2405 72.1939 18.7057 72.1255C21.5687 71.6979 24.4728 71.3696 27.3119 70.8052C27.6848 70.7299 27.6095 70.0937 27.223 70.1347Z" fill="#1B136A"/>
<path d="M190.731 39.1206C188.367 40.5778 186.15 42.3018 183.889 43.9129C177.596 48.3939 177.667 48.3529 177.288 48.7804C177.137 48.9549 177.281 49.3209 177.541 49.2148C178.745 48.7223 179.826 47.7679 180.89 47.0291C182.066 46.215 183.233 45.3838 184.403 44.5594C186.67 42.962 189.024 41.4398 191.179 39.6987C191.504 39.4353 191.083 38.9051 190.731 39.1206Z" fill="#1B136A"/>
<path d="M192.672 59.2227C189.799 59.2672 186.929 59.5887 184.063 59.7769C183.741 59.7974 183.738 60.2968 184.063 60.2797C186.929 60.1258 189.813 60.1018 192.672 59.8076C193.038 59.77 193.059 59.2159 192.672 59.2227Z" fill="#1B136A"/>
<path d="M189.715 76.6802C188.285 76.3655 186.842 76.1021 185.409 75.8148C185.07 75.7464 184.923 76.2663 185.265 76.3347C186.702 76.6186 188.135 76.9333 189.575 77.1899C189.903 77.248 190.05 76.7554 189.715 76.6802Z" fill="#1B136A"/>
<path d="M127.125 159.097C123.513 159.607 119.918 160.25 116.319 160.866C112.741 161.478 109.092 161.96 105.565 162.812C105.278 162.881 105.329 163.366 105.633 163.335C109.239 162.976 112.837 162.231 116.408 161.629C120.041 161.016 123.68 160.431 127.296 159.713C127.707 159.631 127.522 159.043 127.125 159.097Z" fill="#1B136A"/>
<path d="M121.225 175.665C119.419 174.991 119.436 175.056 108.747 171.735C108.35 171.612 108.182 172.231 108.576 172.357C119.487 175.829 119.125 175.778 121.057 176.277C121.461 176.383 121.605 175.805 121.225 175.665Z" fill="#1B136A"/>
<path d="M109.902 186.784C109.118 185.925 109.094 185.935 104.347 181.14C104.056 180.842 103.597 181.3 103.892 181.594C108.561 186.315 108.619 186.411 109.477 187.211C109.761 187.474 110.162 187.071 109.902 186.784Z" fill="#1B136A"/>
</svg>
