<svg width="14" height="14" viewBox="0 0 14 14" fill="none" xmlns="http://www.w3.org/2000/svg">
<g clip-path="url(#clip0_2123_6782)">
<path d="M7 2C4.25 2 2 4.25 2 7C2 9.75 4.25 12 7 12C9.75 12 12 9.75 12 7C12 4.25 9.75 2 7 2ZM7 11C4.795 11 3 9.205 3 7C3 4.795 4.795 3 7 3C9.205 3 11 4.795 11 7C11 9.205 9.205 11 7 11ZM7.25 4.5H6.5V7.5L9.1 9.1L9.5 8.45L7.25 7.1V4.5Z" fill="#EC4B5D"/>
</g>
<defs>
<clipPath id="clip0_2123_6782">
<rect width="14" height="14" fill="white"/>
</clipPath>
</defs>
</svg>
