<svg width="16" height="16" viewBox="0 0 16 16" fill="none" xmlns="http://www.w3.org/2000/svg">
<path d="M10.1571 1.5L10.0321 1.828L8.65712 5.5H4.81313C4.37066 5.49791 3.93687 5.62267 3.56313 5.8595L2.36012 4.64L1.64062 5.36L2.85962 6.563C2.67412 6.85789 2.5568 7.19047 2.51623 7.53648C2.47566 7.8825 2.51287 8.2332 2.62513 8.563L2.98462 9.61L2.51563 11.3755L2.50013 11.438V14H3.50013V11.5625L3.98462 9.7345L4.01562 9.578L3.96863 9.4375L3.56263 8.2345C3.51973 8.09801 3.4988 7.95556 3.50063 7.8125C3.49896 7.63968 3.53176 7.46825 3.59713 7.30826C3.6625 7.14826 3.75911 7.00291 3.88133 6.8807C4.00354 6.75849 4.14889 6.66187 4.30888 6.59651C4.46888 6.53114 4.6403 6.49833 4.81313 6.5H8.82863L10.5006 8.1405V6.735L9.59413 5.8445L10.6256 3.0785L10.7506 3.266L10.8911 3.5005H11.8286L13.3601 4.657L12.9381 5.5H11.0006V8.4375L10.5316 9.844L10.5006 9.922V11.5625L11.0006 13.5625V14H12.0006V13.4375L11.5006 11.4375V10.0625L11.9696 8.656L12.0006 8.578V6.5H13.5631L14.6411 4.3435L14.2976 4.0935L12.1726 2.5H11.4536L10.9696 1.7345L10.8281 1.5H10.1571ZM5.11013 9L4.50063 11.4375V14H5.50063V11.5625L5.89113 10H6.36013C6.53562 10.117 7.15712 10.5 8.00063 10.5H8.50063V11.5625L9.00063 13.5625V14H10.0006V13.4375L9.50063 11.4375V9.5H8.00063C7.46913 9.5 6.78163 9.078 6.78163 9.078L6.65663 9H5.11013Z" fill="#3E79A1"/>
</svg>
