<svg width="14" height="14" viewBox="0 0 14 14" fill="none" xmlns="http://www.w3.org/2000/svg">
<g clip-path="url(#clip0_1994_9005)">
<path d="M5.98047 7.58464C5.98047 7.98714 5.6538 8.3138 5.2513 8.3138C4.8488 8.3138 4.52214 7.98714 4.52214 7.58464C4.52214 7.18214 4.8488 6.85547 5.2513 6.85547C5.6538 6.85547 5.98047 7.18214 5.98047 7.58464ZM8.7513 6.85547C8.3488 6.85547 8.02214 7.18214 8.02214 7.58464C8.02214 7.98714 8.3488 8.3138 8.7513 8.3138C9.1538 8.3138 9.48047 7.98714 9.48047 7.58464C9.48047 7.18214 9.1538 6.85547 8.7513 6.85547ZM12.8346 7.0013C12.8346 10.2213 10.2213 12.8346 7.0013 12.8346C3.7813 12.8346 1.16797 10.2213 1.16797 7.0013C1.16797 3.7813 3.7813 1.16797 7.0013 1.16797C10.2213 1.16797 12.8346 3.7813 12.8346 7.0013ZM6.21964 2.40464C7.0363 3.75797 8.51797 4.66797 10.2096 4.66797C10.478 4.66797 10.7405 4.6388 10.9913 4.59797C10.1746 3.24464 8.69297 2.33464 7.0013 2.33464C6.73297 2.33464 6.47047 2.3638 6.21964 2.40464ZM2.57964 5.52547C3.57714 4.95964 4.34714 4.03797 4.71464 2.93547C3.71714 3.5013 2.94714 4.42297 2.57964 5.52547ZM11.668 7.0013C11.668 6.5463 11.598 6.1088 11.4755 5.69464C11.0671 5.78214 10.6471 5.83464 10.2096 5.83464C8.3838 5.83464 6.7563 4.99464 5.68297 3.68214C5.07047 5.17547 3.8513 6.34797 2.33464 6.91964C2.34047 6.94297 2.33464 6.97214 2.33464 7.0013C2.33464 9.5738 4.4288 11.668 7.0013 11.668C9.5738 11.668 11.668 9.5738 11.668 7.0013Z" fill="#3E79A1"/>
</g>
<defs>
<clipPath id="clip0_1994_9005">
<rect width="14" height="14" fill="white"/>
</clipPath>
</defs>
</svg>
