<svg width="24" height="24" viewBox="0 0 24 24" fill="none" xmlns="http://www.w3.org/2000/svg">
<path d="M1.2768 6.612C2.27565 4.62424 3.80739 2.95327 5.70096 1.78568C7.59453 0.618087 9.77539 -0.000151784 12 2.79521e-08C15.234 2.79521e-08 17.9508 1.1892 20.028 3.126L16.5876 6.5676C15.3432 5.3784 13.7616 4.7724 12 4.7724C8.874 4.7724 6.228 6.8844 5.286 9.72C5.046 10.44 4.9092 11.208 4.9092 12C4.9092 12.792 5.046 13.56 5.286 14.28C6.2292 17.1168 8.874 19.2276 12 19.2276C13.614 19.2276 14.988 18.8016 16.0632 18.0816C16.6865 17.6712 17.2202 17.1387 17.6318 16.5162C18.0435 15.8937 18.3247 15.1942 18.4584 14.46H12V9.8184H23.3016C23.4432 10.6032 23.52 11.4216 23.52 12.2724C23.52 15.9276 22.212 19.0044 19.9416 21.0924C17.9568 22.926 15.24 24 12 24C10.424 24.0006 8.86325 23.6907 7.40705 23.0878C5.95086 22.485 4.62774 21.6011 3.51331 20.4867C2.39888 19.3723 1.51499 18.0491 0.912162 16.5929C0.309329 15.1368 -0.000629834 13.576 9.60857e-07 12C9.60857e-07 10.0632 0.463201 8.232 1.2768 6.612Z" fill="#F5F5F5"/>
</svg>
