<svg width="28" height="29" viewBox="0 0 28 29" fill="none" xmlns="http://www.w3.org/2000/svg">
<mask id="mask0_3220_16606" style="mask-type:luminance" maskUnits="userSpaceOnUse" x="2" y="0" width="27" height="29">
<path d="M2.49219 0.246094H28.0033V28.2506H2.49219V0.246094Z" fill="white"/>
</mask>
<g mask="url(#mask0_3220_16606)">
<path d="M26.5812 0.246094H12.3364C12.242 0.246861 12.1483 0.256073 12.0562 0.274497C11.9641 0.292921 11.8742 0.320557 11.7867 0.356638C11.7 0.392718 11.6171 0.437243 11.5388 0.489444C11.4605 0.542413 11.3883 0.601524 11.3215 0.66831C11.2547 0.735098 11.1956 0.808026 11.1434 0.886328C11.0912 0.96463 11.0467 1.04754 11.0106 1.13428C10.9745 1.2218 10.9477 1.31162 10.9292 1.40374C10.9108 1.49662 10.9016 1.58951 10.9016 1.68393V9.28307C10.7135 9.21167 10.5201 9.19095 10.3213 9.22165C10.1662 9.24468 10.0226 9.29689 9.88829 9.37826C9.75472 9.45963 9.64187 9.56327 9.54898 9.68916L8.98936 10.4545C8.91336 10.5582 8.85578 10.671 8.8174 10.7931C8.77825 10.9159 8.76059 11.041 8.76289 11.1692C8.7652 11.2974 8.78823 11.4218 8.83198 11.5431C8.87497 11.6636 8.93715 11.7741 9.01622 11.8747L4.70654 17.7558C4.51463 17.6798 4.31657 17.6583 4.11237 17.6913C3.9573 17.7136 3.81298 17.765 3.67864 17.8464C3.54506 17.9278 3.43222 18.0314 3.34086 18.1588L2.78047 18.9242C2.68681 19.0501 2.62156 19.189 2.58394 19.341C2.5471 19.493 2.54096 19.6466 2.56552 19.8016C2.58932 19.9559 2.64152 20.1003 2.72289 20.2338C2.8035 20.3674 2.90713 20.481 3.03303 20.5731L8.03668 24.2341C8.23935 24.3846 8.46734 24.4606 8.71914 24.4637C8.90798 24.4637 9.08685 24.4215 9.25497 24.337C9.42385 24.2518 9.56357 24.1336 9.67565 23.9816L10.2598 23.217C10.3358 23.1134 10.3927 23.0005 10.4318 22.8777C10.4702 22.7556 10.4886 22.6305 10.4863 22.5015C10.4832 22.3733 10.461 22.249 10.4172 22.1284C10.3735 22.0071 10.312 21.8966 10.2322 21.796L10.9154 20.8641V21.8882C10.9154 21.9826 10.9246 22.0762 10.9431 22.1684C10.9615 22.2605 10.9884 22.3503 11.0244 22.4378C11.0605 22.5246 11.105 22.6075 11.1572 22.6858C11.2094 22.7641 11.2686 22.837 11.3353 22.9038C11.4021 22.9706 11.4743 23.0304 11.5526 23.0826C11.6309 23.1348 11.7138 23.1794 11.8006 23.2155C11.8873 23.2515 11.9771 23.2792 12.07 23.2976C12.1621 23.3168 12.2558 23.326 12.3494 23.326H15.5567L21.7825 27.909C22.0857 28.137 22.4274 28.2506 22.8074 28.2506C22.9325 28.2498 23.0561 28.2352 23.1781 28.2076C23.3002 28.18 23.4184 28.14 23.5313 28.0871C23.6449 28.0341 23.7516 27.9696 23.8506 27.8936C23.9504 27.8176 24.041 27.7316 24.1216 27.6364C24.203 27.5405 24.2728 27.4376 24.3319 27.3271C24.3903 27.2165 24.4371 27.1014 24.4709 26.9809C24.5047 26.8603 24.5254 26.7375 24.5323 26.6124C24.54 26.4872 24.5338 26.3629 24.5146 26.2393C24.4816 26.0113 24.4056 25.7987 24.2874 25.6006C24.1692 25.4025 24.0172 25.2352 23.8314 25.0985L21.3319 23.2677C21.3319 23.2677 21.3626 23.2677 21.3726 23.2408L27.9192 16.7072C27.9469 16.678 27.9684 16.645 27.9845 16.6081C27.986 16.5982 27.986 16.5882 27.9845 16.5774C27.986 16.5483 27.986 16.5183 27.9845 16.4892C27.9845 16.4892 27.9845 16.4892 27.9845 16.4684V1.68393C27.9845 1.59105 27.9753 1.49893 27.9569 1.40757C27.9392 1.31699 27.9123 1.22794 27.8778 1.14196C27.8425 1.05598 27.7995 0.974609 27.7481 0.896308C27.6974 0.818773 27.6398 0.746613 27.5746 0.680593C27.5093 0.613806 27.4387 0.553928 27.3627 0.500959C27.2859 0.448758 27.2053 0.403465 27.1201 0.366617C27.0349 0.329002 26.9466 0.300598 26.856 0.279871C26.7654 0.259912 26.6741 0.248397 26.5812 0.246094ZM9.539 10.8576L10.0994 10.0922C10.1808 9.98318 10.289 9.91793 10.4234 9.89797C10.4495 9.89413 10.4763 9.89413 10.5024 9.89797C10.6099 9.89874 10.7082 9.93021 10.7957 9.99316L10.9016 10.0715L11.5848 10.5704L15.7924 13.6442C15.8439 13.6826 15.8868 13.7294 15.9206 13.7847C15.9536 13.8399 15.9759 13.8998 15.9859 13.9635C15.9958 14.0272 15.9943 14.0902 15.9797 14.1531C15.9651 14.2161 15.939 14.2744 15.9014 14.3274L15.3418 15.092C15.3026 15.1434 15.255 15.1857 15.1998 15.2187C15.1445 15.2517 15.0846 15.2724 15.0217 15.2824C14.958 15.2924 14.8942 15.2901 14.8321 15.2755C14.7691 15.2609 14.7115 15.2348 14.6586 15.1979H14.6417L11.5987 12.9679L10.9154 12.4689L9.67949 11.5646C9.62805 11.5254 9.58583 11.4778 9.55282 11.4226C9.51981 11.3673 9.49832 11.3082 9.48834 11.2445C9.47759 11.1807 9.47989 11.1178 9.49371 11.0548C9.5083 10.9919 9.53363 10.9343 9.56971 10.8813L9.539 10.8576ZM9.69254 22.8101L9.13291 23.5786C9.09376 23.63 9.04616 23.6722 8.99089 23.7052C8.93562 23.7382 8.87651 23.7597 8.81279 23.7689C8.74908 23.7789 8.68536 23.7766 8.62318 23.762C8.56023 23.7474 8.50265 23.7213 8.44969 23.6845L3.42915 20.0204C3.314 19.9352 3.24798 19.8208 3.23109 19.6788C3.21266 19.5437 3.24337 19.4201 3.32321 19.3096L3.8836 18.545C3.96498 18.4344 4.07322 18.3684 4.20833 18.3469H4.28663C4.3941 18.3461 4.49083 18.3776 4.57681 18.4421L9.51828 22.0624L9.57662 22.1031C9.69177 22.1891 9.75779 22.3027 9.77468 22.4447C9.79848 22.5791 9.77084 22.7019 9.69254 22.814V22.8101ZM11.2432 19.2382L10.9937 19.5798L10.9055 19.7057L9.69638 21.3523L7.4901 19.7364L5.2869 18.1212L9.539 12.3154L10.9055 13.3164L11.2471 13.5651L11.5879 13.8146L13.9516 15.5465L12.6504 17.3221L11.5848 18.7806L11.2432 19.2382ZM12.3364 22.6535C12.2366 22.6535 12.1399 22.6343 12.0477 22.5959C11.9556 22.5576 11.8742 22.5031 11.8036 22.4317C11.733 22.361 11.6793 22.2797 11.6409 22.1868C11.6033 22.0947 11.5841 21.9987 11.5848 21.8989V20.4403L14.611 22.6604L12.3364 22.6535ZM23.4391 25.6451C23.4952 25.6858 23.5474 25.7319 23.5942 25.7833C23.6418 25.8347 23.684 25.89 23.7201 25.9491C23.7562 26.009 23.7869 26.0712 23.8107 26.1364C23.8345 26.2024 23.8521 26.2692 23.8621 26.3383C23.8729 26.4074 23.8767 26.4765 23.8736 26.5464C23.8706 26.6162 23.8606 26.6845 23.8437 26.7521C23.8276 26.8196 23.8038 26.8857 23.7746 26.9486C23.7447 27.0116 23.7094 27.0714 23.6679 27.1275C23.6265 27.1835 23.5804 27.235 23.529 27.2818C23.4775 27.3286 23.4223 27.3701 23.3624 27.4061C23.3033 27.4422 23.2403 27.4722 23.1751 27.496C23.1098 27.5198 23.043 27.5374 22.9739 27.5482C22.9048 27.5581 22.8358 27.562 22.7667 27.5597C22.6968 27.5566 22.6285 27.5466 22.5609 27.5305C22.4934 27.5136 22.4274 27.4906 22.3644 27.4614C22.3015 27.4322 22.2416 27.3969 22.1855 27.3562L16.6975 23.3429L16.2331 23.0013L15.7686 22.6604L11.7453 19.7126L12.992 18.0053L19.3575 22.6604L19.8219 23.0013L20.2902 23.3429L23.4391 25.6451ZM21.4854 22.1753V17.5616C21.4862 17.4618 21.5054 17.3658 21.5438 17.2737C21.5822 17.1816 21.6367 17.1002 21.7081 17.0296C21.7787 16.9597 21.8601 16.9052 21.9522 16.8668C22.0443 16.8292 22.1403 16.81 22.24 16.81H26.8537L21.4854 22.1753ZM27.3358 16.1268H22.24C22.1456 16.1268 22.0527 16.136 21.9599 16.1545C21.8677 16.1729 21.7779 16.1997 21.6904 16.2358C21.6037 16.2719 21.5207 16.3164 21.4424 16.3686C21.3641 16.4208 21.2912 16.4799 21.2244 16.5467C21.1576 16.6135 21.0985 16.6857 21.0456 16.764C20.9934 16.8423 20.9488 16.9252 20.9128 17.0119C20.8767 17.0995 20.849 17.1885 20.8306 17.2814C20.8122 17.3735 20.803 17.4672 20.8022 17.5616V22.6604H20.5051L13.405 17.4487L14.525 15.9188C14.6586 15.9679 14.7968 15.9925 14.9388 15.994C15.1269 15.9932 15.3042 15.951 15.4723 15.8666C15.6397 15.7814 15.7794 15.6631 15.8914 15.5119L16.4511 14.7473C16.4971 14.6844 16.5363 14.6184 16.5693 14.5477C16.6015 14.4779 16.6276 14.4049 16.6461 14.3297C16.6645 14.2545 16.6752 14.1785 16.6783 14.1009C16.6821 14.0234 16.6775 13.9466 16.666 13.8699C16.6545 13.7939 16.6353 13.7186 16.6084 13.6457C16.5823 13.5736 16.5493 13.5037 16.5094 13.4377C16.4687 13.3709 16.4227 13.3095 16.3705 13.2527C16.3183 13.1951 16.2607 13.1437 16.1985 13.0976L11.5848 9.7168V1.68393C11.5841 1.58414 11.6033 1.48818 11.6409 1.39529C11.6793 1.30317 11.733 1.2218 11.8036 1.15041C11.8742 1.07978 11.9556 1.02528 12.0477 0.986892C12.1399 0.948509 12.2366 0.929317 12.3364 0.929317H26.5812C26.681 0.929317 26.777 0.948509 26.8698 0.986892C26.962 1.02528 27.0441 1.07978 27.1147 1.15041C27.1854 1.22103 27.2399 1.3024 27.2782 1.39529C27.3166 1.48741 27.3358 1.58414 27.3358 1.68393V16.1268Z" fill="#323232"/>
</g>
<path d="M18.4589 7.24493V2.44317C18.4589 2.39788 18.4505 2.35489 18.4328 2.31267C18.4151 2.27122 18.3906 2.2336 18.3591 2.20213C18.3269 2.16988 18.29 2.14532 18.2478 2.12766C18.2063 2.11077 18.1626 2.10156 18.1173 2.10156H13.2986C13.2534 2.10156 13.2096 2.11077 13.1681 2.12766C13.1259 2.14532 13.0891 2.16988 13.0568 2.20213C13.0254 2.2336 13 2.27122 12.9831 2.31267C12.9655 2.35489 12.957 2.39788 12.957 2.44317V7.24493C12.957 7.29022 12.9655 7.33398 12.9831 7.37543C13 7.41765 13.0246 7.4545 13.0568 7.48674C13.0891 7.51899 13.1259 7.54355 13.1681 7.56044C13.2096 7.5781 13.2534 7.58654 13.2986 7.58654H18.1173C18.1626 7.58654 18.2063 7.5781 18.2478 7.56044C18.29 7.54355 18.3269 7.51899 18.3591 7.48674C18.3906 7.4545 18.4151 7.41765 18.4328 7.37543C18.4505 7.33398 18.4589 7.29022 18.4589 7.24493ZM17.7757 6.90332H13.6403V2.78479H17.7757V6.90332Z" fill="#323232"/>
<path d="M25.7862 3.625H20.8885C20.8432 3.625 20.7994 3.63344 20.758 3.6511C20.7158 3.66876 20.6789 3.69332 20.6467 3.7248C20.6152 3.75704 20.5906 3.79389 20.573 3.83611C20.5553 3.87756 20.5469 3.92132 20.5469 3.96661C20.5469 4.0119 20.5553 4.05566 20.573 4.09712C20.5906 4.13934 20.6152 4.17618 20.6467 4.20843C20.6789 4.2399 20.7158 4.26447 20.758 4.28212C20.7994 4.29978 20.8432 4.30822 20.8885 4.30822H25.7862C25.8315 4.30822 25.8745 4.29978 25.9167 4.28212C25.9582 4.26447 25.995 4.2399 26.0272 4.20843C26.0595 4.17618 26.0841 4.13934 26.1017 4.09712C26.1186 4.05566 26.127 4.0119 26.127 3.96661C26.127 3.92132 26.1186 3.87756 26.1017 3.83611C26.0841 3.79389 26.0595 3.75704 26.0272 3.7248C25.995 3.69332 25.9582 3.66876 25.9167 3.6511C25.8745 3.63344 25.8315 3.625 25.7862 3.625Z" fill="#323232"/>
<path d="M25.7839 6.26562H19.783C19.7377 6.26562 19.694 6.27484 19.6525 6.29173C19.6103 6.30938 19.5734 6.33395 19.5412 6.36619C19.5097 6.39766 19.4852 6.43528 19.4675 6.47673C19.4499 6.51896 19.4414 6.56194 19.4414 6.60724C19.4414 6.65253 19.4499 6.69629 19.4675 6.73851C19.4852 6.77996 19.5097 6.81681 19.5412 6.84905C19.5734 6.88129 19.6103 6.90586 19.6525 6.92275C19.694 6.9404 19.7377 6.94885 19.783 6.94885H25.7839C25.8292 6.94885 25.8722 6.9404 25.9144 6.92275C25.9558 6.90586 25.9927 6.88129 26.0249 6.84905C26.0572 6.81681 26.0817 6.77996 26.0994 6.73851C26.1163 6.69629 26.1247 6.65253 26.1247 6.60724C26.1247 6.56194 26.1163 6.51896 26.0994 6.47673C26.0817 6.43528 26.0572 6.39766 26.0249 6.36619C25.9927 6.33395 25.9558 6.30938 25.9144 6.29173C25.8722 6.27484 25.8292 6.26562 25.7839 6.26562Z" fill="#323232"/>
<path d="M25.7831 8.95312H17.7947C17.7494 8.95312 17.7057 8.96157 17.6642 8.97923C17.622 8.99611 17.5852 9.02068 17.5529 9.05292C17.5214 9.08516 17.4961 9.12201 17.4792 9.16347C17.4616 9.20569 17.4531 9.24944 17.4531 9.29474C17.4531 9.34003 17.4616 9.38302 17.4792 9.42524C17.4961 9.46669 17.5214 9.50354 17.5529 9.53578C17.5852 9.56803 17.622 9.59259 17.6642 9.61025C17.7057 9.62714 17.7494 9.63558 17.7947 9.63558H25.7831C25.8284 9.63558 25.8714 9.62714 25.9136 9.61025C25.955 9.59259 25.9919 9.56803 26.0241 9.53578C26.0564 9.50354 26.0809 9.46669 26.0986 9.42524C26.1155 9.38302 26.1239 9.34003 26.1239 9.29474C26.1239 9.24944 26.1155 9.20569 26.0986 9.16347C26.0809 9.12201 26.0564 9.08516 26.0241 9.05292C25.9919 9.02068 25.955 8.99611 25.9136 8.97923C25.8714 8.96157 25.8284 8.95312 25.7831 8.95312Z" fill="#323232"/>
<path d="M25.7843 11.6445H19.5408C19.4955 11.6445 19.4518 11.6537 19.4103 11.6706C19.3681 11.6883 19.3313 11.7129 19.2998 11.7451C19.2675 11.7766 19.243 11.8134 19.2253 11.8556C19.2084 11.8971 19.1992 11.9409 19.1992 11.9861C19.1992 12.0314 19.2084 12.0752 19.2253 12.1166C19.243 12.1589 19.2675 12.1957 19.2998 12.228C19.3313 12.2594 19.3681 12.2848 19.4103 12.3017C19.4518 12.3193 19.4955 12.3278 19.5408 12.3278H25.7843C25.8296 12.3278 25.8725 12.3193 25.9148 12.3017C25.9562 12.2848 25.9931 12.2594 26.0253 12.228C26.0576 12.1957 26.0821 12.1589 26.0998 12.1166C26.1167 12.0752 26.1251 12.0314 26.1251 11.9861C26.1251 11.9409 26.1167 11.8971 26.0998 11.8556C26.0821 11.8134 26.0576 11.7766 26.0253 11.7451C25.9931 11.7129 25.9562 11.6883 25.9148 11.6706C25.8725 11.6537 25.8296 11.6445 25.7843 11.6445Z" fill="#323232"/>
<path d="M25.7831 14.3359H17.7947C17.7494 14.3359 17.7057 14.3451 17.6642 14.362C17.622 14.3797 17.5852 14.4043 17.5529 14.4365C17.5214 14.468 17.4961 14.5056 17.4792 14.547C17.4616 14.5893 17.4531 14.6323 17.4531 14.6775C17.4531 14.7228 17.4616 14.7666 17.4792 14.8088C17.4961 14.8503 17.5214 14.8871 17.5529 14.9194C17.5852 14.9516 17.622 14.9762 17.6642 14.9931C17.7057 15.0107 17.7494 15.0192 17.7947 15.0192H25.7831C25.8284 15.0192 25.8714 15.0107 25.9136 14.9931C25.955 14.9762 25.9919 14.9516 26.0241 14.9194C26.0564 14.8871 26.0809 14.8503 26.0986 14.8088C26.1155 14.7666 26.1239 14.7228 26.1239 14.6775C26.1239 14.6323 26.1155 14.5893 26.0986 14.547C26.0809 14.5056 26.0564 14.468 26.0241 14.4365C25.9919 14.4043 25.955 14.3797 25.9136 14.362C25.8714 14.3451 25.8284 14.3359 25.7831 14.3359Z" fill="#323232"/>
<mask id="mask1_3220_16606" style="mask-type:luminance" maskUnits="userSpaceOnUse" x="0" y="25" width="11" height="4">
<path d="M0 25.0078H10.9439V28.2558H0V25.0078Z" fill="white"/>
</mask>
<g mask="url(#mask1_3220_16606)">
<path d="M9.3129 25.0547H1.61858C1.51341 25.0547 1.40901 25.0654 1.30614 25.0854C1.20327 25.1061 1.10348 25.1361 1.00675 25.1767C0.909257 25.2167 0.817137 25.2658 0.730391 25.3241C0.642877 25.3825 0.562272 25.4485 0.487808 25.523C0.414112 25.5974 0.347325 25.678 0.288982 25.7655C0.23064 25.8523 0.181509 25.9444 0.14159 26.0411C0.101672 26.1386 0.0709648 26.2384 0.0502379 26.3413C0.0302785 26.4442 0.0195312 26.5486 0.0195312 26.653C0.0195312 26.7581 0.0302785 26.8618 0.0502379 26.9646C0.0709648 27.0675 0.101672 27.1681 0.14159 27.2648C0.181509 27.3615 0.23064 27.4536 0.288982 27.5412C0.347325 27.6287 0.414112 27.7093 0.487808 27.783C0.562272 27.8574 0.642877 27.9235 0.730391 27.9818C0.817137 28.0401 0.909257 28.0893 1.00675 28.13C1.10348 28.1699 1.20327 28.2006 1.30614 28.2205C1.40901 28.2413 1.51341 28.2513 1.61858 28.2513H9.3129C9.41731 28.2513 9.52171 28.2413 9.62458 28.2205C9.72744 28.2006 9.82724 28.1699 9.92397 28.13C10.0215 28.0893 10.1136 28.0401 10.2003 27.9818C10.2878 27.9235 10.3684 27.8574 10.4429 27.783C10.5166 27.7093 10.5834 27.6287 10.6417 27.5412C10.7001 27.4536 10.7492 27.3615 10.7891 27.2648C10.829 27.1681 10.8598 27.0675 10.8805 26.9646C10.9004 26.8618 10.9112 26.7581 10.9112 26.653C10.9112 26.5486 10.9004 26.4442 10.8805 26.3413C10.8598 26.2384 10.829 26.1386 10.7891 26.0411C10.7492 25.9444 10.7001 25.8523 10.6417 25.7655C10.5834 25.678 10.5166 25.5974 10.4429 25.523C10.3684 25.4485 10.2878 25.3825 10.2003 25.3241C10.1136 25.2658 10.0215 25.2167 9.92397 25.1767C9.82724 25.1361 9.72744 25.1061 9.62458 25.0854C9.52171 25.0654 9.41731 25.0547 9.3129 25.0547ZM9.3129 27.568H1.61858C1.55794 27.568 1.49882 27.5627 1.43971 27.5504C1.3806 27.5389 1.3238 27.5212 1.26852 27.4982C1.21325 27.4751 1.16028 27.4467 1.11039 27.4137C1.06049 27.38 1.01443 27.3423 0.972206 27.3001C0.929216 27.2571 0.891601 27.2111 0.857823 27.1612C0.824814 27.1113 0.79641 27.0583 0.77338 27.003C0.751118 26.9478 0.733461 26.8902 0.721946 26.8318C0.710431 26.7727 0.70429 26.7128 0.70429 26.653C0.70429 26.5931 0.710431 26.534 0.721946 26.4749C0.733461 26.4158 0.751118 26.359 0.77338 26.3029C0.79641 26.2476 0.824814 26.1947 0.857823 26.1448C0.891601 26.0949 0.929216 26.0488 0.972206 26.0066C1.01443 25.9636 1.06049 25.926 1.11039 25.8922C1.16028 25.8592 1.21325 25.8308 1.26852 25.8078C1.3238 25.7847 1.3806 25.7671 1.43971 25.7556C1.49882 25.7441 1.55794 25.7379 1.61858 25.7379H9.3129C9.37278 25.7379 9.43189 25.7441 9.491 25.7556C9.55011 25.7671 9.60692 25.7847 9.66219 25.8078C9.71823 25.8308 9.77043 25.8592 9.82033 25.8922C9.87023 25.926 9.91629 25.9636 9.95928 26.0066C10.0015 26.0488 10.0391 26.0949 10.0729 26.1448C10.1059 26.1947 10.1343 26.2476 10.1573 26.3029C10.1804 26.359 10.1973 26.4158 10.2088 26.4749C10.2211 26.534 10.2264 26.5931 10.2264 26.653C10.2264 26.7128 10.2211 26.7727 10.2088 26.8318C10.1973 26.8902 10.1804 26.9478 10.1573 27.003C10.1343 27.0583 10.1059 27.1113 10.0729 27.1612C10.0391 27.2111 10.0015 27.2571 9.95928 27.3001C9.91629 27.3423 9.87023 27.38 9.82033 27.4137C9.77043 27.4467 9.71823 27.4751 9.66219 27.4982C9.60692 27.5212 9.55011 27.5389 9.491 27.5504C9.43189 27.5627 9.37278 27.568 9.3129 27.568Z" fill="#323232"/>
</g>
</svg>
