<svg width="14" height="14" viewBox="0 0 14 14" fill="none" xmlns="http://www.w3.org/2000/svg">
<g clip-path="url(#clip0_2123_6772)">
<path d="M7 7C6.45 7 6 6.55 6 6C6 5.45 6.45 5 7 5C7.55 5 8 5.45 8 6C8 6.55 7.55 7 7 7ZM10 6.1C10 4.285 8.675 3 7 3C5.325 3 4 4.285 4 6.1C4 7.27 4.975 8.82 7 10.67C9.025 8.82 10 7.27 10 6.1ZM7 2C9.1 2 11 3.61 11 6.1C11 7.76 9.665 9.725 7 12C4.335 9.725 3 7.76 3 6.1C3 3.61 4.9 2 7 2Z" fill="#EC4B5D"/>
</g>
<defs>
<clipPath id="clip0_2123_6772">
<rect width="14" height="14" fill="white"/>
</clipPath>
</defs>
</svg>
