<svg width="32" height="30" viewBox="0 0 32 30" fill="none" xmlns="http://www.w3.org/2000/svg">
<g clip-path="url(#clip0_689_10045)">
<path d="M12.0078 13.5C13.9653 13.5 15.6753 14.895 16.0578 16.8225L16.2828 17.9475L17.4228 18.03C18.5928 18.1125 19.5078 19.0875 19.5078 20.25C19.5078 21.4875 18.4953 22.5 17.2578 22.5H7.50781C5.85031 22.5 4.50781 21.1575 4.50781 19.5C4.50781 17.9625 5.65531 16.68 7.17781 16.5225L7.98031 16.44L8.35531 15.7275C9.06031 14.355 10.4628 13.5 12.0078 13.5ZM12.0078 12C9.84031 12 7.95031 13.23 7.01281 15.03C4.76281 15.27 3.00781 17.1825 3.00781 19.5C3.00781 21.9825 5.02531 24 7.50781 24H17.2578C19.3278 24 21.0078 22.32 21.0078 20.25C21.0078 18.27 19.4703 16.665 17.5278 16.53C17.0103 13.9425 14.7378 12 12.0078 12Z" fill="#444444"/>
</g>
<g clip-path="url(#clip1_689_10045)">
<path d="M28.8344 16.1328C26.9819 16.1328 23.9069 15.1353 22.3244 12.0603C20.5769 8.67781 21.9494 5.70031 22.7219 4.50781C18.7019 4.65031 15.4844 7.94281 15.4844 12.0003C15.4844 12.1053 15.4994 12.2103 15.4994 12.3153C15.9569 12.1203 16.4594 12.0003 16.9844 12.0003C16.9844 9.68281 18.2819 7.67281 20.2094 6.67531C19.8344 8.31781 19.8044 10.4553 20.9894 12.7503C22.1669 15.0303 24.1244 16.4628 26.0894 17.1453C25.1669 17.7003 24.1019 18.0078 22.9919 18.0078C22.6169 18.0078 22.2419 17.9703 21.8819 17.9028C21.6044 18.4278 21.1769 18.8553 20.6519 19.1328C21.3869 19.3728 22.1744 19.5078 22.9844 19.5078C25.6094 19.5078 27.9194 18.1578 29.2619 16.1178C29.1344 16.1253 28.9844 16.1328 28.8344 16.1328Z" fill="#444444"/>
</g>
<defs>
<clipPath id="clip0_689_10045">
<rect width="18" height="18" fill="white" transform="translate(3 9)"/>
</clipPath>
<clipPath id="clip1_689_10045">
<rect width="18" height="18" fill="white" transform="translate(14 3)"/>
</clipPath>
</defs>
</svg>
