<svg width="20" height="20" viewBox="0 0 20 20" fill="none" xmlns="http://www.w3.org/2000/svg">
<g clip-path="url(#clip0_2203_4486)">
<path d="M9.16797 15.0013H10.8346V13.3346H9.16797V15.0013ZM10.0013 1.66797C5.4013 1.66797 1.66797 5.4013 1.66797 10.0013C1.66797 14.6013 5.4013 18.3346 10.0013 18.3346C14.6013 18.3346 18.3346 14.6013 18.3346 10.0013C18.3346 5.4013 14.6013 1.66797 10.0013 1.66797ZM10.0013 16.668C6.3263 16.668 3.33464 13.6763 3.33464 10.0013C3.33464 6.3263 6.3263 3.33464 10.0013 3.33464C13.6763 3.33464 16.668 6.3263 16.668 10.0013C16.668 13.6763 13.6763 16.668 10.0013 16.668ZM10.0013 5.0013C8.15964 5.0013 6.66797 6.49297 6.66797 8.33464H8.33464C8.33464 7.41797 9.08464 6.66797 10.0013 6.66797C10.918 6.66797 11.668 7.41797 11.668 8.33464C11.668 10.0013 9.16797 9.79297 9.16797 12.5013H10.8346C10.8346 10.6263 13.3346 10.418 13.3346 8.33464C13.3346 6.49297 11.843 5.0013 10.0013 5.0013Z" fill="#989898"/>
</g>
<defs>
<clipPath id="clip0_2203_4486">
<rect width="20" height="20" fill="white"/>
</clipPath>
</defs>
</svg>
