<svg width="14" height="14" viewBox="0 0 14 14" fill="none" xmlns="http://www.w3.org/2000/svg">
<g clip-path="url(#clip0_1994_9029)">
<path d="M10.5013 9.33463H11.3763V11.0846H10.5013V9.33463ZM1.16797 9.33463H9.91797V11.0846H1.16797V9.33463ZM9.35214 5.9513H8.45964C7.86463 5.9513 7.38047 5.37964 7.38047 4.78464C7.38047 4.18964 7.86463 3.7638 8.45964 3.7638V2.8888C7.38047 2.8888 6.50547 3.7638 6.50547 4.84297C6.50547 5.92214 7.38047 6.79713 8.45964 6.79713H9.35214C9.96464 6.79713 10.5013 7.2288 10.5013 7.99297V8.7513H11.3763V7.79463C11.3763 6.7388 10.443 5.9513 9.35214 5.9513ZM11.9596 9.33463H12.8346V11.0846H11.9596V9.33463ZM10.9971 4.51047C11.3588 4.15464 11.5805 3.66464 11.5805 3.12214C11.5805 2.04297 10.7055 1.16797 9.6263 1.16797V2.04297C10.2213 2.04297 10.7055 2.52714 10.7055 3.12214C10.7055 3.71714 10.2213 4.2013 9.6263 4.2013V5.0763C10.933 5.0763 11.9596 6.1438 11.9596 7.45047V8.7513H12.8346V7.44464C12.8346 6.14964 12.088 5.02964 10.9971 4.51047Z" fill="#3E79A1"/>
</g>
<defs>
<clipPath id="clip0_1994_9029">
<rect width="14" height="14" fill="white"/>
</clipPath>
</defs>
</svg>
