<svg width="34" height="27" viewBox="0 0 34 27" fill="none" xmlns="http://www.w3.org/2000/svg">
<mask id="mask0_3220_16555" style="mask-type:luminance" maskUnits="userSpaceOnUse" x="0" y="0" width="35" height="27">
<path d="M0 0H34.0094V27H0V0Z" fill="white"/>
</mask>
<g mask="url(#mask0_3220_16555)">
<path d="M16.6686 4.02226C16.5537 4.15967 16.3495 4.17765 16.2114 4.06271C16.074 3.94777 16.056 3.74358 16.171 3.60552C17.1123 2.48373 18.2951 1.56935 19.6397 0.941995C20.9349 0.337757 22.3777 0 23.897 0C26.6806 0 29.2009 1.12821 31.0258 2.95184C32.8501 4.77547 33.9783 7.29516 33.9783 10.0775C33.9783 12.6222 33.0338 14.948 31.476 16.7222C29.8996 18.5176 27.6932 19.7479 25.2018 20.0708C25.0246 20.0927 24.8621 19.9675 24.8396 19.7896C24.8178 19.6124 24.9437 19.4506 25.1209 19.4281C27.4499 19.1269 29.513 17.9756 30.988 16.2952C32.4449 14.6359 33.3279 12.4604 33.3279 10.0775C33.3279 7.47431 32.2722 5.11772 30.5654 3.4116C28.8593 1.70548 26.5014 0.650471 23.897 0.650471C22.4715 0.650471 21.1224 0.965111 19.9139 1.5289C18.6573 2.11515 17.5515 2.9711 16.6686 4.02226ZM23.3981 4.18793C23.3981 4.00813 23.5432 3.86237 23.7236 3.86237C23.9028 3.86237 24.0485 4.00813 24.0485 4.18793V9.32042C24.3221 9.38206 24.5674 9.5214 24.7587 9.71276C24.9507 9.90475 25.0894 10.1494 25.1517 10.4236H29.3974C29.5766 10.4236 29.7223 10.5687 29.7223 10.7485C29.7223 10.9277 29.5766 11.0734 29.3974 11.0734H25.1517C25.0894 11.347 24.9507 11.5916 24.7587 11.7836C24.4935 12.0482 24.1275 12.2119 23.723 12.2119C23.3191 12.2119 22.9524 12.0482 22.6872 11.7836C22.4227 11.5184 22.2583 11.1524 22.2583 10.7485C22.2583 10.344 22.4227 9.97795 22.6872 9.71276C22.8792 9.5214 23.1239 9.38206 23.3981 9.32042V4.18793ZM24.2983 10.1725C24.1519 10.0255 23.9477 9.93429 23.7236 9.93429C23.4982 9.93429 23.2947 10.0255 23.1476 10.1725C22.9999 10.3202 22.9088 10.5238 22.9088 10.7485C22.9088 10.9726 22.9999 11.1762 23.1476 11.3232C23.2947 11.4709 23.4982 11.5621 23.7236 11.5621C23.9477 11.5621 24.1513 11.4709 24.2983 11.3232C24.446 11.1762 24.5372 10.9726 24.5372 10.7485C24.5372 10.5238 24.446 10.3202 24.2983 10.1725ZM1.51257 14.2783H4.92867C5.33706 14.2783 5.70821 14.4452 5.9779 14.7136C6.08835 14.8247 6.1821 14.9531 6.25401 15.0944L9.65085 11.3283C9.92953 11.0195 10.1928 10.7331 10.4798 10.4602C10.7694 10.1854 11.077 9.93108 11.4379 9.69285L13.415 8.38806L14.1521 5.94285C14.1348 5.24872 14.3974 4.77868 14.7891 4.54623C15.0228 4.40753 15.2977 4.35745 15.5828 4.3979C15.8499 4.43579 16.126 4.55265 16.3835 4.75043C17.0757 5.27954 17.6671 6.41866 17.5631 8.17872C17.5143 9.00193 17.2472 10.0107 16.8946 10.9193C16.5164 11.8928 16.0323 12.7654 15.6033 13.1924C15.5475 13.2476 15.5128 13.308 15.5025 13.3645C15.4967 13.3966 15.5006 13.4281 15.5141 13.4544C15.5308 13.4865 15.5648 13.5173 15.6181 13.5437C15.7414 13.6034 15.9353 13.6291 16.2146 13.5989C16.4888 13.5732 16.7636 13.5327 17.0372 13.5096V13.509L21.5468 13.1616C22.2519 13.107 22.7964 13.2098 23.2112 13.4146C23.7172 13.6637 24.0248 14.0574 24.1898 14.5024C24.3484 14.9281 24.3728 15.3968 24.3176 15.8226C24.2598 16.2682 24.1108 16.6785 23.9342 16.9501C24.2296 17.9127 24.3863 18.7532 24.3657 19.4178C24.3465 20.0407 24.175 20.5242 23.8212 20.8343C24.193 22.579 23.3801 23.3271 22.955 23.7181L22.9505 23.722C22.9383 23.738 22.9255 23.7515 22.9113 23.7669C22.8632 23.8202 22.7707 23.9217 22.7964 24.0745C22.8189 24.208 22.8311 24.3416 22.8349 24.4726V24.4765C22.8516 25.0993 22.6519 25.6252 22.3392 26.0156C22.0207 26.4131 21.5828 26.6693 21.132 26.7451C21.0569 26.7573 20.9785 26.765 20.897 26.7669L12.1243 27.0083C11.8103 27.0173 11.5181 26.9981 11.2298 26.9518C10.9422 26.9056 10.6635 26.8337 10.3739 26.7348L6.35611 25.6509C6.28548 25.8962 6.1532 26.1152 5.9779 26.2911C5.70821 26.5601 5.33706 26.7271 4.92867 26.7271H1.51257C1.10418 26.7271 0.732395 26.5601 0.463345 26.2911C0.194296 26.022 0.0273438 25.6509 0.0273438 25.2425V15.7628C0.0273438 15.3538 0.194296 14.9827 0.463345 14.7136C0.732395 14.4452 1.10418 14.2783 1.51257 14.2783ZM4.92867 14.9281H1.51257C1.28334 14.9281 1.07465 15.0225 0.923748 15.1734C0.772207 15.3249 0.677815 15.533 0.677815 15.7628V25.2425C0.677815 25.4717 0.772207 25.6798 0.923748 25.8313C1.07465 25.9829 1.28334 26.0766 1.51257 26.0766H4.92867C5.15791 26.0766 5.36596 25.9829 5.5175 25.8313C5.66904 25.6798 5.76343 25.4717 5.76343 25.2425V15.7628C5.76343 15.533 5.66904 15.3249 5.5175 15.1734C5.36596 15.0225 5.15791 14.9281 4.92867 14.9281ZM6.41326 15.8868V24.994L10.5498 26.1107L10.5704 26.1164C10.8336 26.2063 11.0828 26.2718 11.3313 26.3116C11.5811 26.3521 11.8341 26.3675 12.107 26.3611C14.933 26.2262 18.0575 26.1196 20.8803 26.1196C20.9259 26.1184 20.974 26.1132 21.0254 26.1049C21.3227 26.0548 21.6155 25.8808 21.8339 25.6092C22.0567 25.3311 22.1992 24.9497 22.187 24.4919V24.4906C22.1845 24.393 22.1742 24.2902 22.1562 24.1811C22.0785 23.7175 22.3109 23.4625 22.4317 23.3303C22.4374 23.3232 22.4362 23.3283 22.4362 23.329C22.4509 23.3052 22.4696 23.2834 22.4914 23.2628L22.5158 23.2404C22.86 22.9238 23.5303 22.3061 23.1476 20.7939C23.1053 20.6552 23.1605 20.4998 23.2915 20.4221C23.5682 20.2558 23.7024 19.9007 23.7178 19.4005C23.7371 18.775 23.5734 17.9538 23.2703 16.9976C23.233 16.8904 23.2529 16.7665 23.3332 16.6753C23.4815 16.5077 23.6215 16.1539 23.6748 15.741C23.7185 15.4077 23.7011 15.0469 23.583 14.7284C23.4713 14.4292 23.2645 14.164 22.9242 13.9957C22.6095 13.841 22.1767 13.7639 21.595 13.8089L17.086 14.1569L16.2859 14.2436C15.8749 14.2892 15.5616 14.2372 15.3362 14.1274C15.1474 14.0362 15.0158 13.9052 14.9374 13.7543C14.8559 13.597 14.8341 13.4229 14.8649 13.2509C14.8983 13.064 14.9952 12.8823 15.1455 12.7327C15.5121 12.3686 15.9424 11.5807 16.2904 10.6856C16.6211 9.83348 16.8702 8.89598 16.9152 8.14084C17.0044 6.63121 16.5383 5.68536 15.9899 5.26605C15.8223 5.13827 15.6521 5.06314 15.4942 5.04067C15.3548 5.02076 15.2245 5.04259 15.1198 5.10488C14.9169 5.22496 14.7846 5.50749 14.802 5.95441C14.8058 5.9955 14.8026 6.03789 14.7898 6.07962L14.0038 8.68664C13.982 8.75663 13.9377 8.82021 13.8715 8.86451L11.7962 10.2342C11.4693 10.4493 11.19 10.6804 10.9274 10.9302C10.6622 11.1819 10.4066 11.46 10.1337 11.7631L6.41326 15.8868ZM3.22062 21.454C3.69708 21.454 4.12923 21.6479 4.44194 21.96C4.75401 22.272 4.94729 22.7042 4.94729 23.1807C4.94729 23.6571 4.75401 24.0893 4.44194 24.402C4.12923 24.714 3.69708 24.9073 3.22062 24.9073C2.74353 24.9073 2.31202 24.714 1.9993 24.402C1.68659 24.0893 1.49331 23.6571 1.49331 23.1807C1.49331 22.7042 1.68659 22.272 1.9993 21.96C2.31202 21.6479 2.74353 21.454 3.22062 21.454ZM3.98154 22.4197C3.78698 22.2252 3.51793 22.1045 3.22062 22.1045C2.92332 22.1045 2.65363 22.2252 2.45971 22.4197C2.2645 22.6143 2.14378 22.8833 2.14378 23.1807C2.14378 23.478 2.2645 23.747 2.45971 23.9416C2.65363 24.1368 2.92268 24.2568 3.22062 24.2568C3.51793 24.2568 3.78698 24.1368 3.98154 23.9416C4.17674 23.747 4.29682 23.478 4.29682 23.1807C4.29682 22.8833 4.17674 22.6143 3.98154 22.4197Z" fill="#323232"/>
</g>
</svg>
