<svg width="12" height="12" viewBox="0 0 12 12" fill="none" xmlns="http://www.w3.org/2000/svg">
<path d="M2.70342 2.12834C2.74266 2.10892 2.78535 2.09742 2.82904 2.09449C2.87272 2.09157 2.91656 2.09728 2.95804 2.11131C2.99952 2.12533 3.03783 2.14739 3.07078 2.17622C3.10373 2.20505 3.13068 2.24009 3.15009 2.27934L3.41376 2.81401L3.95142 2.23734C4.01168 2.17269 4.09515 2.13462 4.18347 2.13149C4.2718 2.12837 4.35774 2.16044 4.42242 2.22067C4.55676 2.34667 4.56409 2.55767 4.43876 2.69234L3.72942 3.45334L3.99709 3.99534L4.44076 3.59101C4.47314 3.56154 4.51102 3.53874 4.55222 3.52391C4.59342 3.50908 4.63714 3.50252 4.68088 3.50459C4.72462 3.50666 4.76753 3.51734 4.80714 3.536C4.84675 3.55466 4.8823 3.58094 4.91176 3.61334C4.94133 3.64574 4.96421 3.68366 4.9791 3.72493C4.99399 3.76619 5.00058 3.80999 4.99851 3.85381C4.99643 3.89763 4.98573 3.94061 4.96701 3.98028C4.94829 4.01996 4.92192 4.05554 4.88942 4.08501L4.30442 4.61767L4.65642 5.33067C4.69567 5.40993 4.70183 5.50153 4.67355 5.58533C4.64526 5.66913 4.58484 5.73825 4.50559 5.77751C4.42633 5.81676 4.33473 5.82292 4.25093 5.79463C4.16714 5.76635 4.09801 5.70593 4.05876 5.62667L3.69376 4.88701L3.03909 5.01967C2.95232 5.03722 2.86213 5.01958 2.78837 4.97064C2.7146 4.92169 2.6633 4.84544 2.64576 4.75867C2.62821 4.6719 2.64585 4.58172 2.69479 4.50795C2.74374 4.43419 2.81999 4.38289 2.90676 4.36534L3.38809 4.26801L3.12309 3.73134L2.10976 3.88401C2.02223 3.89714 1.93308 3.87496 1.86191 3.82235C1.79074 3.76975 1.74338 3.69103 1.73026 3.60351C1.71713 3.51599 1.7393 3.42683 1.79191 3.35566C1.84451 3.28449 1.92323 3.23714 2.01076 3.22401L2.81276 3.10301L2.55242 2.57534C2.53295 2.53608 2.52141 2.49337 2.51846 2.44965C2.51551 2.40592 2.52121 2.36205 2.53523 2.32053C2.54926 2.27901 2.57133 2.24067 2.60019 2.20769C2.62905 2.17471 2.66413 2.14775 2.70342 2.12834ZM10.2368 5.08267C10.2803 5.07815 10.3243 5.08226 10.3663 5.09475C10.4083 5.10725 10.4474 5.12789 10.4814 5.15551C10.5154 5.18312 10.5436 5.21716 10.5644 5.25568C10.5852 5.2942 10.5983 5.33645 10.6028 5.38001C10.6694 6.01567 10.3894 6.61667 9.86042 6.97467C9.78703 7.02016 9.69888 7.03546 9.61445 7.01735C9.53003 6.99925 9.45589 6.94916 9.4076 6.87758C9.3593 6.80601 9.34061 6.71851 9.35543 6.63345C9.37025 6.54838 9.41744 6.47237 9.48709 6.42134C9.64478 6.31677 9.77051 6.17066 9.8504 5.99913C9.93028 5.8276 9.9612 5.63734 9.93976 5.44934C9.93514 5.40576 9.93916 5.36169 9.95159 5.31966C9.96403 5.27763 9.98463 5.23847 10.0122 5.20441C10.0398 5.17035 10.0738 5.14207 10.1124 5.12118C10.1509 5.10029 10.1932 5.08721 10.2368 5.08267Z" fill="#3E79A1"/>
<path fill-rule="evenodd" clip-rule="evenodd" d="M1.37006 11.9995C2.35806 11.9495 2.97506 11.6749 3.35839 11.2689C3.49239 11.4602 3.72506 11.5722 3.97739 11.5329C5.30206 11.3262 8.25406 10.7822 11.5717 9.63486C11.6964 9.59541 11.8052 9.51728 11.8825 9.41179C11.9598 9.30631 12.0014 9.17895 12.0014 9.04819C12.0014 8.91743 11.9598 8.79008 11.8825 8.68459C11.8052 8.5791 11.6964 8.50097 11.5717 8.46152C11.1955 8.33175 10.8247 8.20941 10.4594 8.09453C11.1211 7.74553 11.6287 7.15986 11.8274 6.41653C12.2757 4.74153 11.0991 3.28419 9.57206 3.74786C9.46439 2.97919 9.71372 2.27119 10.3681 1.89286L10.0347 1.31486C9.22539 1.78253 8.88539 2.58286 8.88239 3.40252C8.30872 2.96353 7.61339 2.94686 7.02239 3.25586C7.01989 3.15689 7.00579 3.05855 6.98039 2.96286C6.87872 2.58253 6.60706 2.31086 6.23372 2.15453C6.15706 1.80253 5.98039 1.37519 5.64672 1.05653C5.26006 0.687859 4.70472 0.504525 3.98106 0.682525C3.80314 0.439281 3.56422 0.247267 3.28839 0.125859C2.84339 -0.0658081 2.28439 -0.0618081 1.65372 0.301192C0.994723 0.609525 0.677057 1.06319 0.58939 1.53886C0.530057 1.86219 0.581723 2.16886 0.666723 2.41086C0.10739 2.90119 -0.0609434 3.46119 0.0193899 3.98886C0.0890566 4.44519 0.337723 4.83519 0.581723 5.09986C0.495723 5.49552 0.562723 5.87352 0.815723 6.17519C0.881057 6.25275 0.955501 6.32197 1.03906 6.38286C1.03756 6.39636 1.03689 6.40994 1.03706 6.42353C1.04472 7.04286 1.08006 7.53253 1.20706 7.91319C0.797723 8.06952 0.411723 8.38719 0.0597232 8.86652C0.0209273 8.91921 0 8.98293 0 9.04836C0 9.11379 0.0209273 9.1775 0.0597232 9.23019C0.408723 9.70553 0.79139 10.0222 1.19706 10.1795C1.08906 10.5489 1.04706 11.0349 1.03739 11.6722C1.03635 11.7159 1.04429 11.7594 1.06071 11.7999C1.07713 11.8405 1.10169 11.8772 1.13286 11.9079C1.16404 11.9385 1.20117 11.9625 1.24196 11.9783C1.28276 11.994 1.32636 12.0013 1.37006 11.9995ZM3.97372 9.04819C3.97372 9.39153 3.96039 9.73486 3.90572 10.0599V10.8685C4.22906 10.8175 4.64806 10.7469 5.14372 10.6522V9.41819H5.81039V10.5199C6.94524 10.2853 8.07082 10.008 9.18472 9.68853V9.04852H9.85139V9.49186C10.2991 9.35519 10.7581 9.20786 11.2247 9.04852C10.5852 8.82979 9.94061 8.6264 9.29139 8.43853L9.25472 8.44186L8.15706 8.12586C7.98417 8.08075 7.81417 8.03741 7.64706 7.99586V9.41819H6.98039V7.83453C5.96321 7.59501 4.93764 7.39265 3.90572 7.22786V8.03652C3.96006 8.36153 3.97372 8.70486 3.97372 9.04819ZM3.23906 10.0015V8.09486C3.19239 7.84153 3.11739 7.62719 3.00272 7.45052C2.82772 7.18086 2.49072 6.90053 1.71339 6.79719C1.73039 7.20486 1.76872 7.49052 1.83906 7.70152L2.04172 8.30886L1.44439 8.53686C1.23672 8.61619 1.00672 8.77419 0.76739 9.04819C1.00406 9.31952 1.23239 9.47719 1.43806 9.55719L2.00906 9.77919L1.83672 10.3675C1.77339 10.5839 1.73406 10.8802 1.71506 11.2989C2.49139 11.1955 2.82772 10.9155 3.00272 10.6462C3.11739 10.4695 3.19239 10.2552 3.23939 10.0019M3.55506 6.64519C3.17339 6.34919 2.71806 6.11853 2.16139 6.07019C1.71006 6.03086 1.45039 5.89353 1.32639 5.74586C1.21639 5.61486 1.16472 5.41686 1.27072 5.11019L1.34339 4.90019L1.17806 4.75219C0.96639 4.56286 0.732056 4.23786 0.678723 3.88853C0.63139 3.57653 0.717723 3.18319 1.27039 2.78286L1.50872 2.61053L1.36739 2.35219C1.27739 2.18786 1.19739 1.92219 1.24539 1.66019C1.28939 1.42153 1.44906 1.13086 1.94739 0.900859L1.96206 0.894192L1.97572 0.886192C2.45039 0.609525 2.79239 0.638859 3.02572 0.739525C3.27839 0.847859 3.45472 1.06286 3.53372 1.22286L3.66406 1.48619L3.94139 1.39053C4.58639 1.16719 4.95839 1.32186 5.18706 1.54019C5.44272 1.78419 5.57439 2.16286 5.60839 2.44453L5.63472 2.66453L5.84806 2.72553C6.16006 2.81453 6.29272 2.97053 6.33706 3.13586C6.38706 3.32219 6.35039 3.61353 6.12372 4.00519C5.95317 4.30192 5.84624 4.63089 5.80972 4.97119C5.70406 5.49552 5.76639 6.02386 5.96406 6.50519C5.99339 6.62353 6.02406 6.73786 6.05306 6.84653L6.06472 6.88919C6.0705 6.91008 6.0755 6.93075 6.07972 6.95119C5.19572 6.76586 4.47306 6.64119 3.97806 6.56386C3.83178 6.54063 3.68232 6.56941 3.55506 6.64519ZM9.35172 7.76186C8.68597 7.57109 8.01602 7.39526 7.34239 7.23453C7.01792 6.98884 6.76188 6.66405 6.59872 6.29119C6.49872 5.87586 6.42972 5.47086 6.46706 5.08286C6.47372 5.05019 6.4815 5.01752 6.49039 4.98486C6.67472 4.29619 7.12139 3.88719 7.54706 3.75919C7.94306 3.64019 8.40206 3.73486 8.77372 4.24052L9.08939 4.67052L9.57806 4.45653C10.1524 4.20453 10.5967 4.35219 10.8804 4.65352C11.1854 4.97786 11.3677 5.55519 11.1837 6.24419C10.9714 7.03686 10.2501 7.63419 9.35172 7.76186Z" fill="#3E79A1"/>
</svg>
